<?xml version="1.0" encoding="UTF-8" standalone="no"?>
<!-- Created with Inkscape (http://www.inkscape.org/) -->

<svg
   xmlns:dc="http://purl.org/dc/elements/1.1/"
   xmlns:cc="http://creativecommons.org/ns#"
   xmlns:rdf="http://www.w3.org/1999/02/22-rdf-syntax-ns#"
   xmlns:svg="http://www.w3.org/2000/svg"
   xmlns="http://www.w3.org/2000/svg"
   xmlns:sodipodi="http://sodipodi.sourceforge.net/DTD/sodipodi-0.dtd"
   xmlns:inkscape="http://www.inkscape.org/namespaces/inkscape"
   width="155.10001"
   height="156"
   viewBox="0 0 155.10001 156"
   id="svg5545"
   version="1.1"
   inkscape:version="0.92.3 (2405546, 2018-03-11)"
   sodipodi:docname="addFriend3.svg">
  <defs
     id="defs5547">
    <clipPath
       clipPathUnits="userSpaceOnUse"
       id="clipPath6827">
      <path
         style="fill:#000000;fill-opacity:1;fill-rule:evenodd;stroke:#000000;stroke-width:1px;stroke-linecap:butt;stroke-linejoin:miter;stroke-opacity:1"
         d="m 13.637059,1087.2124 -9.5964488,-36.8705 c 0,0 39.3959488,-41.4163 42.4264068,-44.4467 3.030458,-3.0305 16.667517,-72.73102 16.667517,-72.73102 L 142.93659,920.0322 c 0,0 11.11167,26.76904 10.10152,31.31472 -1.01015,4.54569 -5.05076,39.39595 -5.55584,44.44672 -0.50507,5.05076 8.5863,41.92136 8.5863,41.92136 l 1.01015,6.0609 12.62691,3.5355 10.10152,23.2335 -14.64721,20.7082 -0.50508,35.8604 -9.59644,40.9111 -43.43656,15.6574 -71.720834,-17.1726 -22.728433,-15.6573 4.04061,-47.4772 -7.576144,-14.6472"
         id="path6829"
         inkscape:connector-curvature="0" />
    </clipPath>
    <filter
       inkscape:collect="always"
       style="color-interpolation-filters:sRGB"
       id="filter4102"
       x="-0.019008677"
       width="1.0380174"
       y="-0.015051159"
       height="1.0301023">
      <feGaussianBlur
         inkscape:collect="always"
         stdDeviation="0.30328412"
         id="feGaussianBlur4104" />
    </filter>
  </defs>
  <sodipodi:namedview
     id="base"
     pagecolor="#ffffff"
     bordercolor="#666666"
     borderopacity="1.0"
     inkscape:pageopacity="0.0"
     inkscape:pageshadow="2"
     inkscape:zoom="2.8284271"
     inkscape:cx="75.954144"
     inkscape:cy="71.6272"
     inkscape:document-units="px"
     inkscape:current-layer="layer1"
     showgrid="false"
     units="px"
     inkscape:window-width="1366"
     inkscape:window-height="705"
     inkscape:window-x="-8"
     inkscape:window-y="-8"
     inkscape:window-maximized="1"
     inkscape:snap-global="false" />
  <metadata
     id="metadata5550">
    <rdf:RDF>
      <cc:Work
         rdf:about="">
        <dc:format>image/svg+xml</dc:format>
        <dc:type
           rdf:resource="http://purl.org/dc/dcmitype/StillImage" />
        <dc:title></dc:title>
      </cc:Work>
    </rdf:RDF>
  </metadata>
  <g
     inkscape:label="Layer 1"
     inkscape:groupmode="layer"
     id="layer1"
     transform="translate(0,-896.36218)">
    <rect
       style="opacity:1;fill:#729fcf;fill-opacity:1;stroke:none;stroke-width:0.54657704;stroke-linejoin:round;stroke-miterlimit:4;stroke-dasharray:none;stroke-opacity:1"
       id="rect1496"
       width="155.0901"
       height="156.00432"
       x="0"
       y="896.98352"
       ry="0.22338445" />
    <g
       id="g949"
       transform="matrix(0.30323748,0,0,0.30323748,72.4882,670.66086)">
      <circle
         r="35.613617"
         cy="986.89496"
         cx="77.550003"
         id="path3101"
         style="opacity:0.98000004;fill:#a3d1ff;fill-opacity:1;stroke:#1b214b;stroke-width:2.85653687;stroke-linecap:round;stroke-linejoin:round;stroke-miterlimit:4;stroke-dasharray:none;stroke-opacity:1" />
      <g
         transform="matrix(1.7798298,0,0,1.7798298,-39.918746,-770.44182)"
         id="g875">
        <path
           inkscape:connector-curvature="0"
           id="path3133"
           d="m 66,996.11218 v -17.5"
           style="fill:#1b214b;fill-opacity:1;fill-rule:evenodd;stroke:#1b214b;stroke-width:3.18537474;stroke-linecap:round;stroke-linejoin:miter;stroke-miterlimit:4;stroke-dasharray:none;stroke-opacity:1" />
        <path
           style="fill:#1b214b;fill-opacity:1;fill-rule:evenodd;stroke:#1b214b;stroke-width:3.18537474;stroke-linecap:round;stroke-linejoin:miter;stroke-miterlimit:4;stroke-dasharray:none;stroke-opacity:1"
           d="M 74.75,987.36218 H 57.25"
           id="path3135"
           inkscape:connector-curvature="0" />
      </g>
    </g>
    <text
       xml:space="preserve"
       style="font-style:normal;font-weight:normal;line-height:0%;font-family:sans-serif;text-align:center;letter-spacing:0px;word-spacing:0px;text-anchor:middle;fill:#000000;fill-opacity:1;stroke:none;stroke-width:1px;stroke-linecap:butt;stroke-linejoin:miter;stroke-opacity:1"
       x="77.414589"
       y="928.50903"
       id="text6093"><tspan
         sodipodi:role="line"
         id="tspan6095"
         x="80.461464"
         y="928.50903"
         style="font-style:normal;font-variant:normal;font-weight:normal;font-stretch:normal;font-size:17.33333397px;line-height:1;font-family:sans-serif;-inkscape-font-specification:sans-serif;text-align:center;text-anchor:middle">Adicionar </tspan><tspan
         sodipodi:role="line"
         x="77.414589"
         y="945.84235"
         style="font-style:normal;font-variant:normal;font-weight:normal;font-stretch:normal;font-size:17.33333397px;line-height:1;font-family:sans-serif;-inkscape-font-specification:sans-serif;text-align:center;text-anchor:middle"
         id="tspan2517">amigo</tspan></text>
    <g
       id="g5094"
       transform="matrix(0.40060824,0,0,0.3019351,-79.02265,957.0691)"
       style="fill:#46b366;fill-opacity:1" />
    <g
       id="g4109"
       transform="translate(-39.688948,10.00115)">
      <path
         id="path3832"
         style="fill:#3f51b5;fill-opacity:1;fill-rule:evenodd;stroke:#030641;stroke-width:0.46039969px;stroke-linecap:butt;stroke-linejoin:miter;stroke-opacity:1;filter:url(#filter4102)"
         d="m 114.97644,961.51775 c -0.0998,-2.94364 -0.73024,-7.67904 -7.55032,-7.67904 -6.83901,0 -7.461576,4.83125 -7.550306,7.44672 -0.0855,6.51945 2.342746,11.43163 7.550306,12.42622 5.03523,-1.0995 7.84393,-3.53861 7.55032,-12.1939 z m 11.42221,40.60745 c 0,0 0.91023,-23.99527 -1.4388,-27.67834 0,0 -2.04789,-4.84328 -7.78119,-4.84328 0,0 -1.16918,7.73045 -9.75254,7.73045 -8.583345,0 -9.752537,-7.73045 -9.752537,-7.73045 -5.73331,0 -7.781194,4.84328 -7.781194,4.84328 -2.349035,3.68307 -1.438778,27.67834 -1.438778,27.67834 l 18.972509,0.074 z"
         inkscape:connector-curvature="0" />
    </g>
  </g>
</svg>
