<?xml version="1.0" encoding="UTF-8" standalone="no"?>
<!-- Created with Inkscape (http://www.inkscape.org/) -->

<svg
   xmlns:dc="http://purl.org/dc/elements/1.1/"
   xmlns:cc="http://creativecommons.org/ns#"
   xmlns:rdf="http://www.w3.org/1999/02/22-rdf-syntax-ns#"
   xmlns:svg="http://www.w3.org/2000/svg"
   xmlns="http://www.w3.org/2000/svg"
   xmlns:sodipodi="http://sodipodi.sourceforge.net/DTD/sodipodi-0.dtd"
   xmlns:inkscape="http://www.inkscape.org/namespaces/inkscape"
   width="155.10001"
   height="156"
   viewBox="0 0 155.10001 156"
   id="svg5545"
   version="1.1"
   inkscape:version="0.92.3 (2405546, 2018-03-11)"
   sodipodi:docname="addFriend.svg">
  <defs
     id="defs5547">
    <clipPath
       clipPathUnits="userSpaceOnUse"
       id="clipPath6827">
      <path
         style="fill:#000000;fill-opacity:1;fill-rule:evenodd;stroke:#000000;stroke-width:1px;stroke-linecap:butt;stroke-linejoin:miter;stroke-opacity:1"
         d="m 13.637059,1087.2124 -9.5964488,-36.8705 c 0,0 39.3959488,-41.4163 42.4264068,-44.4467 3.030458,-3.0305 16.667517,-72.73102 16.667517,-72.73102 L 142.93659,920.0322 c 0,0 11.11167,26.76904 10.10152,31.31472 -1.01015,4.54569 -5.05076,39.39595 -5.55584,44.44672 -0.50507,5.05076 8.5863,41.92136 8.5863,41.92136 l 1.01015,6.0609 12.62691,3.5355 10.10152,23.2335 -14.64721,20.7082 -0.50508,35.8604 -9.59644,40.9111 -43.43656,15.6574 -71.720834,-17.1726 -22.728433,-15.6573 4.04061,-47.4772 -7.576144,-14.6472"
         id="path6829"
         inkscape:connector-curvature="0" />
    </clipPath>
    <filter
       inkscape:collect="always"
       style="color-interpolation-filters:sRGB"
       id="filter4002"
       x="-0.042221575"
       width="1.0844432"
       y="-0.033431348"
       height="1.0668627">
      <feGaussianBlur
         inkscape:collect="always"
         stdDeviation="0.46597602"
         id="feGaussianBlur4004" />
    </filter>
    <filter
       inkscape:collect="always"
       style="color-interpolation-filters:sRGB"
       id="filter4006"
       x="-0.042221576"
       width="1.0844432"
       y="-0.033431348"
       height="1.0668627">
      <feGaussianBlur
         inkscape:collect="always"
         stdDeviation="0.46597602"
         id="feGaussianBlur4008" />
    </filter>
    <filter
       inkscape:collect="always"
       style="color-interpolation-filters:sRGB"
       id="filter4102"
       x="-0.019008677"
       width="1.0380174"
       y="-0.015051159"
       height="1.0301023">
      <feGaussianBlur
         inkscape:collect="always"
         stdDeviation="0.30328412"
         id="feGaussianBlur4104" />
    </filter>
  </defs>
  <sodipodi:namedview
     id="base"
     pagecolor="#ffffff"
     bordercolor="#666666"
     borderopacity="1.0"
     inkscape:pageopacity="0.0"
     inkscape:pageshadow="2"
     inkscape:zoom="2.8284271"
     inkscape:cx="70.845258"
     inkscape:cy="75.996758"
     inkscape:document-units="px"
     inkscape:current-layer="layer1"
     showgrid="false"
     units="px"
     inkscape:window-width="1366"
     inkscape:window-height="705"
     inkscape:window-x="-8"
     inkscape:window-y="-8"
     inkscape:window-maximized="1" />
  <metadata
     id="metadata5550">
    <rdf:RDF>
      <cc:Work
         rdf:about="">
        <dc:format>image/svg+xml</dc:format>
        <dc:type
           rdf:resource="http://purl.org/dc/dcmitype/StillImage" />
        <dc:title></dc:title>
      </cc:Work>
    </rdf:RDF>
  </metadata>
  <g
     inkscape:label="Layer 1"
     inkscape:groupmode="layer"
     id="layer1"
     transform="translate(0,-896.36218)">
    <rect
       style="opacity:1;fill:#729fcf;fill-opacity:1;stroke:none;stroke-width:0.54657704;stroke-linejoin:round;stroke-miterlimit:4;stroke-dasharray:none;stroke-opacity:1"
       id="rect1496"
       width="155.0901"
       height="156.00432"
       x="0"
       y="896.98352"
       ry="0.22338445" />
    <g
       id="g3145"
       transform="matrix(3.8820304,0,0,3.8820304,-375.40667,-3005.9768)"
       style="opacity:0.22400004">
      <g
         id="g4723"
         transform="matrix(0.67490673,0,0,0.67490673,72.491769,359.8824)">
        <circle
           style="opacity:1;fill:#a3d1ff;fill-opacity:1;stroke:#1b214b;stroke-width:1.09027779;stroke-linecap:round;stroke-linejoin:round;stroke-miterlimit:4;stroke-dasharray:none;stroke-opacity:1"
           id="path3101"
           cx="65.473618"
           cy="985.97565"
           r="13.592939" />
        <g
           id="g3139"
           transform="matrix(0.67932215,0,0,0.67932215,20.638355,315.23865)">
          <path
             style="fill:#1b214b;fill-opacity:1;fill-rule:evenodd;stroke:#1b214b;stroke-width:3.18537474;stroke-linecap:round;stroke-linejoin:miter;stroke-miterlimit:4;stroke-dasharray:none;stroke-opacity:1"
             d="m 66,996.11218 v -17.5"
             id="path3133"
             inkscape:connector-curvature="0" />
          <path
             inkscape:connector-curvature="0"
             id="path3135"
             d="M 74.75,987.36218 H 57.25"
             style="fill:#1b214b;fill-opacity:1;fill-rule:evenodd;stroke:#1b214b;stroke-width:3.18537474;stroke-linecap:round;stroke-linejoin:miter;stroke-miterlimit:4;stroke-dasharray:none;stroke-opacity:1" />
        </g>
      </g>
    </g>
    <text
       xml:space="preserve"
       style="font-style:normal;font-weight:normal;line-height:0%;font-family:sans-serif;text-align:center;letter-spacing:0px;word-spacing:0px;text-anchor:middle;fill:#000000;fill-opacity:1;stroke:none;stroke-width:1px;stroke-linecap:butt;stroke-linejoin:miter;stroke-opacity:1"
       x="77.414589"
       y="928.50903"
       id="text6093"><tspan
         sodipodi:role="line"
         id="tspan6095"
         x="80.461464"
         y="928.50903"
         style="font-style:normal;font-variant:normal;font-weight:normal;font-stretch:normal;font-size:17.33333397px;line-height:1;font-family:sans-serif;-inkscape-font-specification:sans-serif;text-align:center;text-anchor:middle">Adicionar </tspan><tspan
         sodipodi:role="line"
         x="77.414589"
         y="945.84235"
         style="font-style:normal;font-variant:normal;font-weight:normal;font-stretch:normal;font-size:17.33333397px;line-height:1;font-family:sans-serif;-inkscape-font-specification:sans-serif;text-align:center;text-anchor:middle"
         id="tspan2517">amigo</tspan></text>
    <g
       id="g5094"
       transform="matrix(0.40060824,0,0,0.3019351,-79.02265,957.0691)"
       style="fill:#46b366;fill-opacity:1" />
    <g
       id="g4109"
       transform="translate(-4.5500623,4.75856)">
      <path
         id="use48"
         style="fill:#3c4a93;fill-opacity:1;fill-rule:evenodd;stroke:#13142e;stroke-width:0.31846839px;stroke-linecap:butt;stroke-linejoin:miter;stroke-opacity:1;filter:url(#filter4006)"
         d="m 71.878991,983.65228 c -0.06903,-2.03618 -0.505123,-5.31176 -5.222719,-5.31176 -4.730691,0 -5.161336,3.34188 -5.222713,5.15106 -0.05914,4.50964 1.620531,7.9075 5.222713,8.59548 3.482977,-0.76054 5.425816,-2.44773 5.222719,-8.43478 z m 7.900985,28.08912 c 0,0 0.62963,-16.59812 -0.99525,-19.14578 0,0 -1.416564,-3.3502 -5.382419,-3.3502 0,0 -0.80874,5.34732 -6.746035,5.34732 -5.937288,0 -6.746043,-5.34732 -6.746043,-5.34732 -3.965855,0 -5.38242,3.3502 -5.38242,3.3502 -1.624878,2.54766 -0.995234,19.14578 -0.995234,19.14578 l 13.123697,0.051 z"
         inkscape:connector-curvature="0" />
      <path
         inkscape:connector-curvature="0"
         d="m 105.94855,988.84895 c -0.069,-2.03618 -0.50512,-5.31176 -5.22271,-5.31176 -4.7307,0 -5.16134,3.34188 -5.22272,5.15106 -0.0591,4.50964 1.62053,7.9075 5.22272,8.59548 3.48297,-0.76054 5.42581,-2.44773 5.22271,-8.43478 z m 7.90099,28.08915 c 0,0 0.62963,-16.5982 -0.99525,-19.14581 0,0 -1.41657,-3.3502 -5.38242,-3.3502 0,0 -0.80874,5.34732 -6.74603,5.34732 -5.93729,0 -6.74605,-5.34732 -6.74605,-5.34732 -3.96585,0 -5.38241,3.3502 -5.38241,3.3502 -1.62489,2.54761 -0.99524,19.14581 -0.99524,19.14581 l 13.1237,0.051 z"
         style="fill:#3c4a93;fill-opacity:1;fill-rule:evenodd;stroke:#13142e;stroke-width:0.31846839px;stroke-linecap:butt;stroke-linejoin:miter;stroke-opacity:1;filter:url(#filter4002)"
         id="path3830"
         transform="matrix(0.88922282,0,0,0.88922282,8.1529208,101.82292)" />
      <path
         id="path3832"
         style="fill:#3f51b5;fill-opacity:1;fill-rule:evenodd;stroke:#030641;stroke-width:0.46039969px;stroke-linecap:butt;stroke-linejoin:miter;stroke-opacity:1;filter:url(#filter4102)"
         d="m 89.650384,984.35462 c -0.0998,-2.94364 -0.73024,-7.67904 -7.55032,-7.67904 -6.83901,0 -7.46158,4.83125 -7.55031,7.44672 -0.0855,6.51945 2.34275,11.43163 7.55031,12.42622 5.03523,-1.0995 7.84393,-3.53861 7.55032,-12.1939 z m 11.422206,40.60748 c 0,0 0.91023,-23.9953 -1.438801,-27.67837 0,0 -2.04789,-4.84328 -7.78119,-4.84328 0,0 -1.169175,7.73045 -9.752535,7.73045 -8.583349,0 -9.752541,-7.73045 -9.752541,-7.73045 -5.73331,0 -7.781194,4.84328 -7.781194,4.84328 -2.349035,3.68307 -1.438778,27.67837 -1.438778,27.67837 l 18.972513,0.074 z"
         inkscape:connector-curvature="0" />
    </g>
  </g>
</svg>
