<?xml version="1.0" encoding="UTF-8" standalone="no"?>
<!-- Created with Inkscape (http://www.inkscape.org/) -->

<svg
   xmlns:dc="http://purl.org/dc/elements/1.1/"
   xmlns:cc="http://creativecommons.org/ns#"
   xmlns:rdf="http://www.w3.org/1999/02/22-rdf-syntax-ns#"
   xmlns:svg="http://www.w3.org/2000/svg"
   xmlns="http://www.w3.org/2000/svg"
   xmlns:sodipodi="http://sodipodi.sourceforge.net/DTD/sodipodi-0.dtd"
   xmlns:inkscape="http://www.inkscape.org/namespaces/inkscape"
   width="101.22894"
   height="33.418049"
   viewBox="0 0 101.22893 33.418049"
   id="svg5545"
   version="1.1"
   inkscape:version="0.92.3 (2405546, 2018-03-11)"
   sodipodi:docname="friend.svg">
  <defs
     id="defs5547">
    <clipPath
       clipPathUnits="userSpaceOnUse"
       id="clipPath6827">
      <path
         style="fill:#000000;fill-opacity:1;fill-rule:evenodd;stroke:#000000;stroke-width:1px;stroke-linecap:butt;stroke-linejoin:miter;stroke-opacity:1"
         d="m 13.637059,1087.2124 -9.5964488,-36.8705 c 0,0 39.3959488,-41.4163 42.4264068,-44.4467 3.030458,-3.0305 16.667517,-72.73102 16.667517,-72.73102 L 142.93659,920.0322 c 0,0 11.11167,26.76904 10.10152,31.31472 -1.01015,4.54569 -5.05076,39.39595 -5.55584,44.44672 -0.50507,5.05076 8.5863,41.92136 8.5863,41.92136 l 1.01015,6.0609 12.62691,3.5355 10.10152,23.2335 -14.64721,20.7082 -0.50508,35.8604 -9.59644,40.9111 -43.43656,15.6574 -71.720834,-17.1726 -22.728433,-15.6573 4.04061,-47.4772 -7.576144,-14.6472"
         id="path6829"
         inkscape:connector-curvature="0" />
    </clipPath>
  </defs>
  <sodipodi:namedview
     id="base"
     pagecolor="#ffffff"
     bordercolor="#666666"
     borderopacity="1.0"
     inkscape:pageopacity="0.0"
     inkscape:pageshadow="2"
     inkscape:zoom="2.8284271"
     inkscape:cx="41.722703"
     inkscape:cy="33.46328"
     inkscape:document-units="px"
     inkscape:current-layer="g1581"
     showgrid="false"
     units="px"
     inkscape:window-width="1366"
     inkscape:window-height="705"
     inkscape:window-x="-8"
     inkscape:window-y="-8"
     inkscape:window-maximized="1"
     fit-margin-top="0.5"
     fit-margin-left="0.5"
     fit-margin-right="0.5"
     fit-margin-bottom="0.5" />
  <metadata
     id="metadata5550">
    <rdf:RDF>
      <cc:Work
         rdf:about="">
        <dc:format>image/svg+xml</dc:format>
        <dc:type
           rdf:resource="http://purl.org/dc/dcmitype/StillImage" />
        <dc:title></dc:title>
      </cc:Work>
    </rdf:RDF>
  </metadata>
  <g
     inkscape:label="Layer 1"
     inkscape:groupmode="layer"
     id="layer1"
     transform="translate(-4.9587109,-903.20725)">
    <g
       id="g5094"
       transform="matrix(0.40060824,0,0,0.3019351,-79.02265,957.0691)"
       style="fill:#46b366;fill-opacity:1" />
    <g
       id="g1581"
       transform="translate(-21.213204,-42.072854)">
      <g
         transform="translate(10.75,-4)"
         id="g893">
        <path
           style="opacity:1;fill:#a3d1ff;fill-opacity:1;stroke:#1a1b45;stroke-width:1.81004155;stroke-linecap:round;stroke-linejoin:round;stroke-miterlimit:4;stroke-dasharray:none;stroke-opacity:1"
           d="m 32.860471,952.69481 h 75.872589 c 3.60807,0 6.51277,2.90469 6.51277,6.51276 v 12.90503 c 0,3.60808 -2.9047,6.51277 -6.51277,6.51277 H 32.860471 c -12.365528,-3.56425 -5.045307,-25.4865 0,-25.93056 z"
           id="rect5151"
           inkscape:connector-curvature="0"
           sodipodi:nodetypes="csssscc" />
        <g
           id="g859"
           transform="matrix(0.84653483,0,0,0.84653483,-22.238766,106.25892)">
          <path
             style="opacity:1;fill:#a3d1ff;fill-opacity:1;stroke:#1a1b45;stroke-width:2.08664656;stroke-linecap:round;stroke-linejoin:round;stroke-miterlimit:4;stroke-dasharray:none;stroke-opacity:1"
             d="m 82.330364,1015.5875 a 18.104176,18.104176 0 0 1 -18.104175,18.1042 18.104176,18.104176 0 0 1 -18.104176,-18.1042 18.104176,18.104176 0 0 1 18.104176,-18.10415 18.104176,18.104176 0 0 1 18.104175,18.10415 z"
             id="path5153"
             inkscape:connector-curvature="0" />
        </g>
      </g>
      <text
         xml:space="preserve"
         style="font-style:normal;font-variant:normal;font-weight:normal;font-stretch:normal;font-size:13.33333302px;line-height:80.00000119%;font-family:'Adobe Fan Heiti Std';-inkscape-font-specification:'Adobe Fan Heiti Std';letter-spacing:0px;word-spacing:0px;fill:#000000;fill-opacity:1;stroke:none;stroke-width:1px;stroke-linecap:butt;stroke-linejoin:miter;stroke-opacity:1"
         x="63.28606"
         y="960.79187"
         id="text1588"><tspan
           sodipodi:role="line"
           id="tspan1586"
           x="63.28606"
           y="971.19189" /></text>
    </g>
  </g>
</svg>
