<?xml version="1.0" encoding="UTF-8" standalone="no"?>
<!-- Created with Inkscape (http://www.inkscape.org/) -->

<svg
   xmlns:dc="http://purl.org/dc/elements/1.1/"
   xmlns:cc="http://creativecommons.org/ns#"
   xmlns:rdf="http://www.w3.org/1999/02/22-rdf-syntax-ns#"
   xmlns:svg="http://www.w3.org/2000/svg"
   xmlns="http://www.w3.org/2000/svg"
   xmlns:sodipodi="http://sodipodi.sourceforge.net/DTD/sodipodi-0.dtd"
   xmlns:inkscape="http://www.inkscape.org/namespaces/inkscape"
   version="1.1"
   id="svg5340"
   width="156"
   height="156"
   viewBox="0 0 156 156"
   sodipodi:docname="helpscreen.svg"
   inkscape:version="0.92.3 (2405546, 2018-03-11)">
  <metadata
     id="metadata5346">
    <rdf:RDF>
      <cc:Work
         rdf:about="">
        <dc:format>image/svg+xml</dc:format>
        <dc:type
           rdf:resource="http://purl.org/dc/dcmitype/StillImage" />
        <dc:title></dc:title>
      </cc:Work>
    </rdf:RDF>
  </metadata>
  <defs
     id="defs5344" />
  <sodipodi:namedview
     pagecolor="#ffffff"
     bordercolor="#666666"
     borderopacity="1"
     objecttolerance="10"
     gridtolerance="10"
     guidetolerance="10"
     inkscape:pageopacity="0"
     inkscape:pageshadow="2"
     inkscape:window-width="1366"
     inkscape:window-height="705"
     id="namedview5342"
     showgrid="false"
     inkscape:snap-bbox="false"
     inkscape:bbox-nodes="true"
     inkscape:snap-page="true"
     inkscape:zoom="1.4142136"
     inkscape:cx="70.62752"
     inkscape:cy="11.790267"
     inkscape:window-x="-8"
     inkscape:window-y="-8"
     inkscape:window-maximized="1"
     inkscape:current-layer="svg5340" />
  <rect
     style="opacity:1;fill:#a3d1ff;fill-opacity:1;stroke:none;stroke-width:1.20000005;stroke-linecap:round;stroke-linejoin:round;stroke-miterlimit:4;stroke-dasharray:none;stroke-opacity:0.7292818"
     id="rect5893"
     width="156"
     height="156"
     x="0"
     y="0"
     ry="0.244141" />
  <g
     aria-label="Acompanha os teus 
amigos durante o festival
atraves deste menu,
onde quer que estejas.

Podes adicionar amigos, 
consultar a tua friends 
list e encontrar alguem
em em especifico nesta
funcionalidade"
     style="font-style:normal;font-variant:normal;font-weight:normal;font-stretch:normal;font-size:13.33333302px;line-height:80.00000119%;font-family:'Adobe Fan Heiti Std';-inkscape-font-specification:'Adobe Fan Heiti Std';letter-spacing:0px;word-spacing:0px;fill:#000000;fill-opacity:1;stroke:none;stroke-width:1px;stroke-linecap:butt;stroke-linejoin:miter;stroke-opacity:1"
     id="text5897">
    <path
       d="M 7.2664607,7.9161978 H 5.3731275 l -3.12,10.2000002 h 1.5866667 l 0.8799999,-3 h 3.12 l 0.9199999,3 h 1.626667 z m -2.3066666,6.0133332 0.8133333,-2.68 c 0.1733334,-0.626667 0.3333334,-1.3733332 0.48,-1.9999999 h 0.026667 c 0.1466667,0.6266667 0.32,1.3466669 0.5066667,2.0133329 l 0.7999999,2.666667 z"
       style="line-height:104.99999523%"
       id="path3422" />
    <path
       d="m 16.441877,16.729531 c -0.346667,0.146667 -0.773333,0.293333 -1.386667,0.293333 -1.28,0 -2.226666,-0.96 -2.226666,-2.573333 0,-1.44 0.8,-2.613333 2.24,-2.613333 0.626666,0 1.053333,0.16 1.32,0.293333 l 0.306666,-1.186667 c -0.32,-0.16 -0.933333,-0.333333 -1.64,-0.333333 -2.359999,0 -3.799999,1.68 -3.799999,3.906667 0,2.293333 1.386666,3.746666 3.506666,3.746666 0.853333,0 1.546667,-0.213333 1.893333,-0.373333 z"
       style="line-height:104.99999523%"
       id="path3424" />
    <path
       d="m 21.036669,10.609531 c -1.946667,0 -3.466667,1.4 -3.466667,3.88 0,2.373333 1.453334,3.773333 3.36,3.773333 1.653333,0 3.44,-1.133333 3.44,-3.88 0,-2.253333 -1.32,-3.773333 -3.333333,-3.773333 z m 1.746666,3.813333 c 0,1.466667 -0.693333,2.68 -1.813333,2.68 -1.133333,0 -1.813333,-1.213333 -1.813333,-2.653333 0,-1.266667 0.506666,-2.68 1.826666,-2.68 1.293334,0 1.8,1.44 1.8,2.653333 z"
       style="line-height:104.99999523%"
       id="path3426" />
    <path
       d="m 35.981252,13.676198 c 0,-2.32 -1.2,-3.066667 -2.293334,-3.066667 -1.053333,0 -1.773333,0.533333 -2.266666,1.346667 h -0.02667 c -0.306667,-0.826667 -1.013333,-1.346667 -1.946667,-1.346667 -1.12,0 -1.786666,0.626667 -2.146666,1.24 h -0.04 l -0.08,-1.08 h -1.333333 c 0.02667,0.626667 0.05333,1.24 0.05333,2.066667 v 5.28 h 1.52 v -4.453334 c 0,-1.16 0.786666,-1.786666 1.48,-1.786666 0.893333,0 1.28,0.786666 1.28,1.813333 v 4.426667 h 1.52 v -4.533334 c 0,-1.066666 0.72,-1.706666 1.426666,-1.706666 0.933334,0 1.333334,0.813333 1.333334,2.04 v 4.2 h 1.52 z"
       style="line-height:104.99999523%"
       id="path3428" />
    <path
       d="m 39.293127,11.889531 -0.08,-1.12 h -1.359999 c 0.02667,0.653333 0.05333,1.413333 0.05333,2.373333 v 7.946667 h 1.546666 v -3.84 h 0.02667 c 0.36,0.6 1.08,1.013333 1.96,1.013333 1.546667,0 3.106667,-1.213333 3.106667,-3.906666 0,-2.28 -1.24,-3.746667 -2.893334,-3.746667 -1.026666,0 -1.826666,0.453333 -2.333333,1.28 z m 0.16,1.906667 c 0,-1.08 0.786667,-1.946667 1.706667,-1.946667 1.186667,0 1.813333,1.16 1.813333,2.56 0,1.52 -0.653333,2.626667 -1.853333,2.626667 -0.76,0 -1.666667,-0.56 -1.666667,-1.88 z"
       style="line-height:104.99999523%"
       id="path3430" />
    <path
       d="m 51.204167,13.596198 c 0,-1.56 -0.6,-2.986667 -2.76,-2.986667 -0.986667,0 -1.853334,0.28 -2.373334,0.613333 l 0.32,1.026667 c 0.466667,-0.306667 1.133334,-0.506667 1.786667,-0.506667 1.48,0 1.48,1.093334 1.48,1.64 -2.52,0 -4.106667,0.906667 -4.106667,2.733334 0,1.133333 0.786667,2.146666 2.16,2.146666 0.92,0 1.64,-0.426666 2.053334,-1 h 0.04 l 0.106666,0.853334 h 1.4 c -0.09333,-0.48 -0.106666,-1.12 -0.106666,-1.746667 z m -1.506667,2.04 c 0,0.853333 -0.693333,1.493333 -1.533333,1.493333 -0.573334,0 -1.08,-0.36 -1.08,-1.173333 0,-1.306667 1.4,-1.533334 2.613333,-1.533334 z"
       style="line-height:104.99999523%"
       id="path3432" />
    <path
       d="m 59.207502,13.622864 c 0,-2.266666 -1.28,-3.013333 -2.426666,-3.013333 -1.106667,0 -1.88,0.626667 -2.226667,1.253333 h -0.04 l -0.08,-1.093333 h -1.346666 c 0.02667,0.626667 0.05333,1.253333 0.05333,2.066667 v 5.28 h 1.546666 v -4.426667 c 0,-1.173333 0.813334,-1.8 1.573334,-1.8 1.053333,0 1.4,0.88 1.4,1.92 v 4.306667 h 1.546666 z"
       style="line-height:104.99999523%"
       id="path3434" />
    <path
       d="m 67.228334,13.676198 c 0,-2.32 -1.28,-3.066667 -2.386666,-3.066667 -0.8,0 -1.626667,0.4 -2.106667,1.16 h -0.02667 V 7.4228645 H 61.161668 V 18.116198 h 1.546667 v -4.493334 c 0,-1.106666 0.813333,-1.733333 1.573333,-1.733333 1.04,0 1.4,0.88 1.4,1.933333 v 4.293334 h 1.546666 z"
       style="line-height:104.99999523%"
       id="path3436" />
    <path
       d="m 74.329167,13.596198 c 0,-1.56 -0.6,-2.986667 -2.76,-2.986667 -0.986667,0 -1.853334,0.28 -2.373334,0.613333 l 0.32,1.026667 c 0.466667,-0.306667 1.133334,-0.506667 1.786667,-0.506667 1.48,0 1.48,1.093334 1.48,1.64 -2.52,0 -4.106667,0.906667 -4.106667,2.733334 0,1.133333 0.786667,2.146666 2.16,2.146666 0.92,0 1.64,-0.426666 2.053334,-1 h 0.04 l 0.106666,0.853334 h 1.4 c -0.09333,-0.48 -0.106666,-1.12 -0.106666,-1.746667 z m -1.506667,2.04 c 0,0.853333 -0.693333,1.493333 -1.533333,1.493333 -0.573334,0 -1.08,-0.36 -1.08,-1.173333 0,-1.306667 1.4,-1.533334 2.613333,-1.533334 z"
       style="line-height:104.99999523%"
       id="path3438" />
    <path
       d="m 82.260625,10.609531 c -1.946667,0 -3.466667,1.4 -3.466667,3.88 0,2.373333 1.453334,3.773333 3.36,3.773333 1.653334,0 3.44,-1.133333 3.44,-3.88 0,-2.253333 -1.32,-3.773333 -3.333333,-3.773333 z m 1.746667,3.813333 c 0,1.466667 -0.693334,2.68 -1.813334,2.68 -1.133333,0 -1.813333,-1.213333 -1.813333,-2.653333 0,-1.266667 0.506667,-2.68 1.826667,-2.68 1.293333,0 1.8,1.44 1.8,2.653333 z"
       style="line-height:104.99999523%"
       id="path3440" />
    <path
       d="m 91.125211,11.036198 c -0.4,-0.226667 -1.026667,-0.426667 -1.746667,-0.426667 -1.546667,0 -2.546666,0.973333 -2.546666,2.2 0,0.853333 0.573333,1.586667 1.879999,2.106667 0.88,0.373333 1.186667,0.68 1.186667,1.24 0,0.56 -0.4,0.96 -1.226667,0.96 -0.626666,0 -1.306666,-0.266667 -1.679999,-0.493334 l -0.346667,1.146667 c 0.493333,0.293333 1.226666,0.493333 2,0.493333 1.666666,0 2.746666,-0.84 2.746666,-2.253333 0,-1.066667 -0.64,-1.733333 -1.853333,-2.226667 -0.893333,-0.386666 -1.226667,-0.64 -1.226667,-1.146666 0,-0.493334 0.373334,-0.893334 1.066667,-0.893334 0.6,0 1.106667,0.226667 1.4,0.413334 z"
       style="line-height:104.99999523%"
       id="path3442" />
    <path
       d="m 96.207917,10.769531 h -1.04 v 1.16 h 1.04 v 3.8 c 0,0.96 0.173333,1.573333 0.546666,1.973333 0.32,0.36 0.84,0.56 1.453334,0.56 0.52,0 0.933333,-0.06667 1.2,-0.173333 l -0.05333,-1.186667 c -0.186666,0.05333 -0.373333,0.09333 -0.68,0.09333 -0.653333,0 -0.933333,-0.44 -0.933333,-1.346667 v -3.72 h 1.746667 v -1.16 H 97.74125 V 8.9561978 l -1.533333,0.48 z"
       style="line-height:104.99999523%"
       id="path3444" />
    <path
       d="m 105.94312,16.729531 c -0.48,0.2 -1.04,0.346667 -1.85333,0.346667 -1.16,0 -2.18667,-0.626667 -2.22667,-2.28 h 4.66667 c 0.0267,-0.186667 0.04,-0.4 0.04,-0.653334 0,-1.813333 -0.82667,-3.533333 -2.89333,-3.533333 -2.08,0 -3.30667,1.746667 -3.30667,3.933333 0,2.24 1.28,3.72 3.49333,3.72 1,0 1.81334,-0.2 2.33334,-0.44 z m -4.06666,-3.04 c 0.08,-0.853333 0.56,-1.973333 1.69333,-1.973333 1.18667,0 1.54667,1.093333 1.53333,1.973333 z"
       style="line-height:104.99999523%"
       id="path3446" />
    <path
       d="m 114.03604,10.769531 h -1.54666 v 4.546667 c 0,1.106666 -0.82667,1.666666 -1.53334,1.666666 -1.01333,0 -1.37333,-0.84 -1.37333,-2.106666 v -4.12 h -1.54667 v 4.373333 c 0,2.346667 1.10667,3.133333 2.37334,3.133333 1.18666,0 1.90666,-0.706666 2.21333,-1.213333 h 0.04 l 0.08,1.066667 h 1.36 c -0.0267,-0.586667 -0.0667,-1.28 -0.0667,-2.106667 z"
       style="line-height:104.99999523%"
       id="path3448" />
    <path
       d="m 120.03146,11.036198 c -0.4,-0.226667 -1.02667,-0.426667 -1.74667,-0.426667 -1.54666,0 -2.54666,0.973333 -2.54666,2.2 0,0.853333 0.57333,1.586667 1.88,2.106667 0.88,0.373333 1.18666,0.68 1.18666,1.24 0,0.56 -0.4,0.96 -1.22666,0.96 -0.62667,0 -1.30667,-0.266667 -1.68,-0.493334 l -0.34667,1.146667 c 0.49333,0.293333 1.22667,0.493333 2,0.493333 1.66667,0 2.74667,-0.84 2.74667,-2.253333 0,-1.066667 -0.64,-1.733333 -1.85334,-2.226667 -0.89333,-0.386666 -1.22666,-0.64 -1.22666,-1.146666 0,-0.493334 0.37333,-0.893334 1.06666,-0.893334 0.6,0 1.10667,0.226667 1.4,0.413334 z"
       style="line-height:104.99999523%"
       id="path3450" />
    <path
       d="m 8.0531274,27.596197 c 0,-1.56 -0.6,-2.986667 -2.7599999,-2.986667 -0.9866667,0 -1.8533333,0.28 -2.3733333,0.613333 l 0.32,1.026667 c 0.4666666,-0.306667 1.1333333,-0.506667 1.7866666,-0.506667 1.48,0 1.48,1.093334 1.48,1.64 -2.52,0 -4.1066666,0.906667 -4.1066666,2.733334 0,1.133333 0.7866666,2.146666 2.1599999,2.146666 0.92,0 1.64,-0.426666 2.0533333,-1 h 0.04 l 0.1066667,0.853334 h 1.4 c -0.093333,-0.48 -0.1066667,-1.12 -0.1066667,-1.746667 z m -1.5066666,2.04 c 0,0.853333 -0.6933334,1.493333 -1.5333333,1.493333 -0.5733334,0 -1.08,-0.36 -1.08,-1.173333 0,-1.306667 1.4,-1.533334 2.6133333,-1.533334 z"
       style="line-height:104.99999523%"
       id="path3452" />
    <path
       d="m 20.069794,27.676197 c 0,-2.32 -1.2,-3.066667 -2.293334,-3.066667 -1.053333,0 -1.773333,0.533333 -2.266666,1.346667 h -0.02667 C 15.17646,25.12953 14.469794,24.60953 13.53646,24.60953 c -1.12,0 -1.786666,0.626667 -2.146666,1.24 h -0.04 l -0.08,-1.08 H 9.9364605 c 0.026667,0.626667 0.053333,1.24 0.053333,2.066667 v 5.28 h 1.5200001 v -4.453334 c 0,-1.16 0.786666,-1.786666 1.48,-1.786666 0.893333,0 1.28,0.786666 1.28,1.813333 v 4.426667 h 1.52 v -4.533334 c 0,-1.066666 0.72,-1.706666 1.426666,-1.706666 0.933334,0 1.333334,0.813333 1.333334,2.04 v 4.2 h 1.52 z"
       style="line-height:104.99999523%"
       id="path3454" />
    <path
       d="m 23.675002,22.742864 c 0,-0.52 -0.36,-0.906667 -0.893333,-0.906667 -0.533334,0 -0.906667,0.386667 -0.906667,0.906667 0,0.493333 0.36,0.893333 0.893333,0.893333 0.56,0 0.906667,-0.4 0.906667,-0.893333 z m -0.133333,2.013333 h -1.546667 v 7.36 h 1.546667 z"
       style="line-height:104.99999523%"
       id="path3456" />
    <path
       d="m 30.296668,24.76953 -0.06667,0.986667 h -0.02667 c -0.306666,-0.586667 -0.92,-1.146667 -2.013333,-1.146667 -1.6,0 -3.106666,1.386667 -3.106666,3.88 0,2.053333 1.186666,3.586667 2.92,3.586667 0.946666,0 1.666666,-0.453334 2.039999,-1.08 h 0.02667 v 0.706666 c 0,1.666667 -0.853333,2.333334 -2.053333,2.333334 -0.826667,0 -1.533333,-0.253334 -1.986667,-0.52 l -0.346666,1.2 c 0.573333,0.346666 1.466666,0.533333 2.32,0.533333 3.479999,0 3.599999,-2.706667 3.599999,-4.173333 V 26.88953 c 0,-0.986667 0.02667,-1.6 0.06667,-2.12 z m -0.24,4.28 c 0,1.226667 -0.8,1.84 -1.6,1.84 -1.146667,0 -1.8,-1.026667 -1.8,-2.466667 0,-1.573333 0.746667,-2.586666 1.813333,-2.586666 0.946667,0 1.586667,0.8 1.586667,1.773333 z"
       style="line-height:104.99999523%"
       id="path3458" />
    <path
       d="m 36.583543,24.60953 c -1.946667,0 -3.466667,1.4 -3.466667,3.88 0,2.373333 1.453334,3.773333 3.36,3.773333 1.653333,0 3.44,-1.133333 3.44,-3.88 0,-2.253333 -1.32,-3.773333 -3.333333,-3.773333 z m 1.746666,3.813333 c 0,1.466667 -0.693333,2.68 -1.813333,2.68 -1.133333,0 -1.813333,-1.213333 -1.813333,-2.653333 0,-1.266667 0.506667,-2.68 1.826667,-2.68 1.293333,0 1.799999,1.44 1.799999,2.653333 z"
       style="line-height:104.99999523%"
       id="path3460" />
    <path
       d="m 45.448125,25.036197 c -0.4,-0.226667 -1.026667,-0.426667 -1.746667,-0.426667 -1.546666,0 -2.546666,0.973333 -2.546666,2.2 0,0.853333 0.573333,1.586667 1.88,2.106667 0.88,0.373333 1.186666,0.68 1.186666,1.24 0,0.56 -0.4,0.96 -1.226666,0.96 -0.626667,0 -1.306667,-0.266667 -1.68,-0.493334 l -0.346667,1.146667 c 0.493333,0.293333 1.226667,0.493333 2,0.493333 1.666667,0 2.746667,-0.84 2.746667,-2.253333 0,-1.066667 -0.64,-1.733333 -1.853334,-2.226667 -0.893333,-0.386666 -1.226666,-0.64 -1.226666,-1.146666 0,-0.493334 0.373333,-0.893334 1.066666,-0.893334 0.6,0 1.106667,0.226667 1.4,0.413334 z"
       style="line-height:104.99999523%"
       id="path3462" />
    <path
       d="m 56.357501,21.422864 h -1.546667 v 4.173333 h -0.02667 c -0.32,-0.56 -1,-0.986667 -1.946667,-0.986667 -1.64,0 -3.066666,1.413333 -3.066666,3.906667 0,2.266666 1.266666,3.746666 2.933333,3.746666 1.04,0 1.84,-0.546666 2.226666,-1.293333 h 0.04 l 0.08,1.146667 h 1.36 c -0.02667,-0.506667 -0.05333,-1.293334 -0.05333,-1.96 z m -1.546667,7.679999 c 0,1.026667 -0.653333,1.906667 -1.653333,1.906667 -1.173333,0 -1.813333,-1.106667 -1.813333,-2.546667 0,-1.453333 0.653333,-2.626666 1.84,-2.626666 0.866666,0 1.626666,0.706666 1.626666,1.906666 z"
       style="line-height:104.99999523%"
       id="path3464" />
    <path
       d="m 64.296458,24.76953 h -1.546666 v 4.546667 c 0,1.106666 -0.826667,1.666666 -1.533334,1.666666 -1.013333,0 -1.373333,-0.84 -1.373333,-2.106666 v -4.12 h -1.546667 v 4.373333 c 0,2.346667 1.106667,3.133333 2.373334,3.133333 1.186666,0 1.906666,-0.706666 2.213333,-1.213333 h 0.04 l 0.08,1.066667 h 1.36 c -0.02667,-0.586667 -0.06667,-1.28 -0.06667,-2.106667 z"
       style="line-height:104.99999523%"
       id="path3466" />
    <path
       d="m 69.985208,24.64953 c -0.133333,-0.02667 -0.24,-0.04 -0.386666,-0.04 -0.8,0 -1.573334,0.573333 -1.906667,1.506667 h -0.05333 l -0.05333,-1.346667 h -1.346666 c 0.04,0.68 0.05333,1.386667 0.05333,2.24 v 5.106667 h 1.546667 v -3.893334 c 0,-1.28 0.653333,-2.133333 1.693333,-2.133333 0.173333,0 0.32,0.01333 0.453333,0.04 z"
       style="line-height:104.99999523%"
       id="path3468" />
    <path
       d="m 76.334377,27.596197 c 0,-1.56 -0.6,-2.986667 -2.76,-2.986667 -0.986666,0 -1.853333,0.28 -2.373333,0.613333 l 0.32,1.026667 c 0.466667,-0.306667 1.133333,-0.506667 1.786667,-0.506667 1.48,0 1.48,1.093334 1.48,1.64 -2.52,0 -4.106667,0.906667 -4.106667,2.733334 0,1.133333 0.786667,2.146666 2.16,2.146666 0.92,0 1.64,-0.426666 2.053333,-1 h 0.04 l 0.106667,0.853334 h 1.4 c -0.09333,-0.48 -0.106667,-1.12 -0.106667,-1.746667 z m -1.506666,2.04 c 0,0.853333 -0.693334,1.493333 -1.533334,1.493333 -0.573333,0 -1.08,-0.36 -1.08,-1.173333 0,-1.306667 1.4,-1.533334 2.613334,-1.533334 z"
       style="line-height:104.99999523%"
       id="path3470" />
    <path
       d="m 84.337706,27.622863 c 0,-2.266666 -1.28,-3.013333 -2.426667,-3.013333 -1.106667,0 -1.88,0.626667 -2.226667,1.253333 h -0.04 l -0.08,-1.093333 h -1.346666 c 0.02667,0.626667 0.05333,1.253333 0.05333,2.066667 v 5.28 h 1.546667 V 27.68953 c 0,-1.173333 0.813333,-1.8 1.573333,-1.8 1.053333,0 1.4,0.88 1.4,1.92 v 4.306667 h 1.546667 z"
       style="line-height:104.99999523%"
       id="path3472" />
    <path
       d="m 86.598542,24.76953 h -1.04 v 1.16 h 1.04 v 3.8 c 0,0.96 0.173333,1.573333 0.546666,1.973333 0.32,0.36 0.84,0.56 1.453334,0.56 0.52,0 0.933333,-0.06667 1.2,-0.173333 l -0.05333,-1.186667 c -0.186666,0.05333 -0.373333,0.09333 -0.68,0.09333 -0.653333,0 -0.933333,-0.44 -0.933333,-1.346667 v -3.72 h 1.746667 v -1.16 h -1.746667 v -1.813333 l -1.533333,0.48 z"
       style="line-height:104.99999523%"
       id="path3474" />
    <path
       d="m 96.33375,30.72953 c -0.48,0.2 -1.04,0.346667 -1.853333,0.346667 -1.16,0 -2.186667,-0.626667 -2.226667,-2.28 h 4.666666 c 0.02667,-0.186667 0.04,-0.4 0.04,-0.653334 0,-1.813333 -0.826666,-3.533333 -2.893333,-3.533333 -2.08,0 -3.306666,1.746667 -3.306666,3.933333 0,2.24 1.28,3.72 3.493333,3.72 1,0 1.813333,-0.2 2.333333,-0.44 z m -4.066667,-3.04 c 0.08,-0.853333 0.56,-1.973333 1.693334,-1.973333 1.186666,0 1.546666,1.093333 1.533333,1.973333 z"
       style="line-height:104.99999523%"
       id="path3476" />
    <path
       d="m 104.44812,24.60953 c -1.94666,0 -3.46666,1.4 -3.46666,3.88 0,2.373333 1.45333,3.773333 3.36,3.773333 1.65333,0 3.44,-1.133333 3.44,-3.88 0,-2.253333 -1.32,-3.773333 -3.33334,-3.773333 z m 1.74667,3.813333 c 0,1.466667 -0.69333,2.68 -1.81333,2.68 -1.13334,0 -1.81334,-1.213333 -1.81334,-2.653333 0,-1.266667 0.50667,-2.68 1.82667,-2.68 1.29333,0 1.8,1.44 1.8,2.653333 z"
       style="line-height:104.99999523%"
       id="path3478" />
    <path
       d="m 111.52083,24.76953 v 1.16 h 0.98667 v 6.186667 h 1.54667 V 25.92953 h 1.6 v -1.16 h -1.61334 v -0.4 c 0,-0.986667 0.29334,-1.853333 1.25334,-1.853333 0.36,0 0.58666,0.06667 0.78666,0.146667 l 0.16,-1.186667 c -0.26666,-0.106667 -0.64,-0.2 -1.12,-0.2 -0.6,0 -1.28,0.186667 -1.78666,0.68 -0.82667,0.826667 -0.82667,2.013333 -0.82667,2.813333 z"
       style="line-height:104.99999523%"
       id="path3480" />
    <path
       d="m 121.85459,30.72953 c -0.48,0.2 -1.04,0.346667 -1.85334,0.346667 -1.16,0 -2.18666,-0.626667 -2.22666,-2.28 h 4.66666 c 0.0267,-0.186667 0.04,-0.4 0.04,-0.653334 0,-1.813333 -0.82666,-3.533333 -2.89333,-3.533333 -2.08,0 -3.30667,1.746667 -3.30667,3.933333 0,2.24 1.28,3.72 3.49334,3.72 1,0 1.81333,-0.2 2.33333,-0.44 z m -4.06667,-3.04 c 0.08,-0.853333 0.56,-1.973333 1.69333,-1.973333 1.18667,0 1.54667,1.093333 1.53334,1.973333 z"
       style="line-height:104.99999523%"
       id="path3482" />
    <path
       d="m 127.97416,25.036197 c -0.4,-0.226667 -1.02666,-0.426667 -1.74666,-0.426667 -1.54667,0 -2.54667,0.973333 -2.54667,2.2 0,0.853333 0.57333,1.586667 1.88,2.106667 0.88,0.373333 1.18667,0.68 1.18667,1.24 0,0.56 -0.4,0.96 -1.22667,0.96 -0.62667,0 -1.30667,-0.266667 -1.68,-0.493334 l -0.34667,1.146667 c 0.49334,0.293333 1.22667,0.493333 2,0.493333 1.66667,0 2.74667,-0.84 2.74667,-2.253333 0,-1.066667 -0.64,-1.733333 -1.85333,-2.226667 -0.89334,-0.386666 -1.22667,-0.64 -1.22667,-1.146666 0,-0.493334 0.37333,-0.893334 1.06667,-0.893334 0.6,0 1.10666,0.226667 1.4,0.413334 z"
       style="line-height:104.99999523%"
       id="path3484" />
    <path
       d="m 130.06208,24.76953 h -1.04 v 1.16 h 1.04 v 3.8 c 0,0.96 0.17333,1.573333 0.54667,1.973333 0.32,0.36 0.84,0.56 1.45333,0.56 0.52,0 0.93333,-0.06667 1.2,-0.173333 l -0.0533,-1.186667 c -0.18667,0.05333 -0.37334,0.09333 -0.68,0.09333 -0.65334,0 -0.93334,-0.44 -0.93334,-1.346667 v -3.72 h 1.74667 v -1.16 h -1.74667 v -1.813333 l -1.53333,0.48 z"
       style="line-height:104.99999523%"
       id="path3486" />
    <path
       d="m 136.35729,22.742864 c 0,-0.52 -0.36,-0.906667 -0.89333,-0.906667 -0.53334,0 -0.90667,0.386667 -0.90667,0.906667 0,0.493333 0.36,0.893333 0.89333,0.893333 0.56,0 0.90667,-0.4 0.90667,-0.893333 z m -0.13333,2.013333 h -1.54667 v 7.36 h 1.54667 z"
       style="line-height:104.99999523%"
       id="path3488" />
    <path
       d="m 142.48563,24.76953 -1.18667,3.92 c -0.18667,0.64 -0.36,1.24 -0.49333,1.853333 h -0.04 c -0.13334,-0.613333 -0.29334,-1.226666 -0.49334,-1.866666 l -1.2,-3.906667 h -1.66666 l 2.57333,7.346667 h 1.48 l 2.64,-7.346667 z"
       style="line-height:104.99999523%"
       id="path3490" />
    <path
       d="m 150.39688,27.596197 c 0,-1.56 -0.6,-2.986667 -2.76,-2.986667 -0.98667,0 -1.85334,0.28 -2.37334,0.613333 l 0.32,1.026667 c 0.46667,-0.306667 1.13334,-0.506667 1.78667,-0.506667 1.48,0 1.48,1.093334 1.48,1.64 -2.52,0 -4.10667,0.906667 -4.10667,2.733334 0,1.133333 0.78667,2.146666 2.16,2.146666 0.92,0 1.64,-0.426666 2.05334,-1 h 0.04 l 0.10666,0.853334 h 1.4 c -0.0933,-0.48 -0.10666,-1.12 -0.10666,-1.746667 z m -1.50667,2.04 c 0,0.853333 -0.69333,1.493333 -1.53333,1.493333 -0.57334,0 -1.08,-0.36 -1.08,-1.173333 0,-1.306667 1.4,-1.533334 2.61333,-1.533334 z"
       style="line-height:104.99999523%"
       id="path3492" />
    <path
       d="m 153.88021,21.422864 h -1.54667 v 10.693333 h 1.54667 z"
       style="line-height:104.99999523%"
       id="path3494" />
    <path
       d="m 8.0531274,41.596196 c 0,-1.56 -0.6,-2.986667 -2.7599999,-2.986667 -0.9866667,0 -1.8533333,0.28 -2.3733333,0.613333 l 0.32,1.026667 c 0.4666666,-0.306667 1.1333333,-0.506667 1.7866666,-0.506667 1.48,0 1.48,1.093334 1.48,1.64 -2.52,0 -4.1066666,0.906667 -4.1066666,2.733334 0,1.133333 0.7866666,2.146666 2.1599999,2.146666 0.92,0 1.64,-0.426666 2.0533333,-1 h 0.04 l 0.1066667,0.853334 h 1.4 c -0.093333,-0.48 -0.1066667,-1.12 -0.1066667,-1.746667 z m -1.5066666,2.04 c 0,0.853333 -0.6933334,1.493333 -1.5333333,1.493333 -0.5733334,0 -1.08,-0.36 -1.08,-1.173333 0,-1.306667 1.4,-1.533334 2.6133333,-1.533334 z"
       style="line-height:104.99999523%"
       id="path3496" />
    <path
       d="M 10.296461,38.769529 H 9.2564605 v 1.16 h 1.0400005 v 3.8 c 0,0.96 0.173333,1.573333 0.546666,1.973333 0.32,0.36 0.84,0.56 1.453333,0.56 0.52,0 0.933334,-0.06667 1.2,-0.173333 l -0.05333,-1.186667 c -0.186667,0.05333 -0.373333,0.09333 -0.68,0.09333 -0.653333,0 -0.933333,-0.44 -0.933333,-1.346667 v -3.72 h 1.746666 v -1.16 h -1.746666 v -1.813333 l -1.533333,0.48 z"
       style="line-height:104.99999523%"
       id="path3498" />
    <path
       d="m 18.605002,38.649529 c -0.133333,-0.02667 -0.24,-0.04 -0.386667,-0.04 -0.8,0 -1.573333,0.573333 -1.906666,1.506667 h -0.05333 l -0.05333,-1.346667 h -1.346666 c 0.04,0.68 0.05333,1.386667 0.05333,2.24 v 5.106667 h 1.546666 v -3.893334 c 0,-1.28 0.653334,-2.133333 1.693334,-2.133333 0.173333,0 0.32,0.01333 0.453333,0.04 z"
       style="line-height:104.99999523%"
       id="path3500" />
    <path
       d="m 24.954168,41.596196 c 0,-1.56 -0.6,-2.986667 -2.76,-2.986667 -0.986666,0 -1.853333,0.28 -2.373333,0.613333 l 0.32,1.026667 c 0.466667,-0.306667 1.133334,-0.506667 1.786667,-0.506667 1.48,0 1.48,1.093334 1.48,1.64 -2.52,0 -4.106667,0.906667 -4.106667,2.733334 0,1.133333 0.786667,2.146666 2.16,2.146666 0.92,0 1.64,-0.426666 2.053333,-1 h 0.04 l 0.106667,0.853334 h 1.4 c -0.09333,-0.48 -0.106667,-1.12 -0.106667,-1.746667 z m -1.506666,2.04 c 0,0.853333 -0.693334,1.493333 -1.533334,1.493333 -0.573333,0 -1.079999,-0.36 -1.079999,-1.173333 0,-1.306667 1.399999,-1.533334 2.613333,-1.533334 z"
       style="line-height:104.99999523%"
       id="path3502" />
    <path
       d="m 31.157502,38.769529 -1.186666,3.92 c -0.186667,0.64 -0.36,1.24 -0.493334,1.853333 h -0.04 c -0.133333,-0.613333 -0.293333,-1.226666 -0.493333,-1.866666 l -1.2,-3.906667 h -1.666666 l 2.573333,7.346667 h 1.48 l 2.64,-7.346667 z"
       style="line-height:104.99999523%"
       id="path3504" />
    <path
       d="m 39.042086,44.729529 c -0.48,0.2 -1.04,0.346667 -1.853334,0.346667 -1.16,0 -2.186666,-0.626667 -2.226666,-2.28 h 4.666666 c 0.02667,-0.186667 0.04,-0.4 0.04,-0.653334 0,-1.813333 -0.826666,-3.533333 -2.893333,-3.533333 -2.08,0 -3.306666,1.746667 -3.306666,3.933333 0,2.24 1.279999,3.72 3.493333,3.72 1,0 1.813333,-0.2 2.333333,-0.44 z m -4.066667,-3.04 c 0.08,-0.853333 0.56,-1.973333 1.693333,-1.973333 1.186667,0 1.546667,1.093333 1.533334,1.973333 z"
       style="line-height:104.99999523%"
       id="path3506" />
    <path
       d="m 45.161668,39.036196 c -0.4,-0.226667 -1.026667,-0.426667 -1.746667,-0.426667 -1.546666,0 -2.546666,0.973333 -2.546666,2.2 0,0.853333 0.573333,1.586667 1.88,2.106667 0.88,0.373333 1.186666,0.68 1.186666,1.24 0,0.56 -0.4,0.96 -1.226666,0.96 -0.626667,0 -1.306667,-0.266667 -1.68,-0.493334 l -0.346667,1.146667 c 0.493333,0.293333 1.226667,0.493333 2,0.493333 1.666666,0 2.746666,-0.84 2.746666,-2.253333 0,-1.066667 -0.64,-1.733333 -1.853333,-2.226667 -0.893333,-0.386666 -1.226666,-0.64 -1.226666,-1.146666 0,-0.493334 0.373333,-0.893334 1.066666,-0.893334 0.6,0 1.106667,0.226667 1.4,0.413334 z"
       style="line-height:104.99999523%"
       id="path3508" />
    <path
       d="m 56.071044,35.422863 h -1.546667 v 4.173333 h -0.02667 c -0.32,-0.56 -1,-0.986667 -1.946667,-0.986667 -1.64,0 -3.066666,1.413333 -3.066666,3.906667 0,2.266666 1.266666,3.746666 2.933333,3.746666 1.04,0 1.84,-0.546666 2.226666,-1.293333 h 0.04 l 0.08,1.146667 h 1.36 c -0.02667,-0.506667 -0.05333,-1.293334 -0.05333,-1.96 z m -1.546667,7.679999 c 0,1.026667 -0.653333,1.906667 -1.653333,1.906667 -1.173333,0 -1.813333,-1.106667 -1.813333,-2.546667 0,-1.453333 0.653333,-2.626666 1.84,-2.626666 0.866666,0 1.626666,0.706666 1.626666,1.906666 z"
       style="line-height:104.99999523%"
       id="path3510" />
    <path
       d="m 63.156668,44.729529 c -0.48,0.2 -1.04,0.346667 -1.853334,0.346667 -1.159999,0 -2.186666,-0.626667 -2.226666,-2.28 h 4.666666 c 0.02667,-0.186667 0.04,-0.4 0.04,-0.653334 0,-1.813333 -0.826666,-3.533333 -2.893333,-3.533333 -2.08,0 -3.306666,1.746667 -3.306666,3.933333 0,2.24 1.28,3.72 3.493333,3.72 1,0 1.813333,-0.2 2.333333,-0.44 z m -4.066667,-3.04 c 0.08,-0.853333 0.56,-1.973333 1.693334,-1.973333 1.186666,0 1.546666,1.093333 1.533333,1.973333 z"
       style="line-height:104.99999523%"
       id="path3512" />
    <path
       d="m 69.27625,39.036196 c -0.4,-0.226667 -1.026667,-0.426667 -1.746667,-0.426667 -1.546666,0 -2.546666,0.973333 -2.546666,2.2 0,0.853333 0.573333,1.586667 1.88,2.106667 0.88,0.373333 1.186666,0.68 1.186666,1.24 0,0.56 -0.4,0.96 -1.226666,0.96 -0.626667,0 -1.306667,-0.266667 -1.68,-0.493334 l -0.346667,1.146667 c 0.493333,0.293333 1.226667,0.493333 2,0.493333 1.666667,0 2.746667,-0.84 2.746667,-2.253333 0,-1.066667 -0.64,-1.733333 -1.853334,-2.226667 -0.893333,-0.386666 -1.226666,-0.64 -1.226666,-1.146666 0,-0.493334 0.373333,-0.893334 1.066666,-0.893334 0.6,0 1.106667,0.226667 1.4,0.413334 z"
       style="line-height:104.99999523%"
       id="path3514" />
    <path
       d="m 71.364167,38.769529 h -1.04 v 1.16 h 1.04 v 3.8 c 0,0.96 0.173333,1.573333 0.546666,1.973333 0.32,0.36 0.84,0.56 1.453334,0.56 0.52,0 0.933333,-0.06667 1.2,-0.173333 l -0.05333,-1.186667 c -0.186666,0.05333 -0.373333,0.09333 -0.68,0.09333 -0.653333,0 -0.933333,-0.44 -0.933333,-1.346667 v -3.72 h 1.746667 v -1.16 H 72.8975 v -1.813333 l -1.533333,0.48 z"
       style="line-height:104.99999523%"
       id="path3516" />
    <path
       d="m 81.099375,44.729529 c -0.48,0.2 -1.04,0.346667 -1.853333,0.346667 -1.16,0 -2.186667,-0.626667 -2.226667,-2.28 h 4.666666 c 0.02667,-0.186667 0.04,-0.4 0.04,-0.653334 0,-1.813333 -0.826666,-3.533333 -2.893333,-3.533333 -2.08,0 -3.306666,1.746667 -3.306666,3.933333 0,2.24 1.28,3.72 3.493333,3.72 1,0 1.813333,-0.2 2.333333,-0.44 z m -4.066667,-3.04 c 0.08,-0.853333 0.56,-1.973333 1.693334,-1.973333 1.186666,0 1.546666,1.093333 1.533333,1.973333 z"
       style="line-height:104.99999523%"
       id="path3518" />
    <path
       d="m 96.29375,41.676196 c 0,-2.32 -1.2,-3.066667 -2.293334,-3.066667 -1.053333,0 -1.773333,0.533333 -2.266666,1.346667 h -0.02667 c -0.306666,-0.826667 -1.013333,-1.346667 -1.946666,-1.346667 -1.12,0 -1.786667,0.626667 -2.146667,1.24 h -0.04 l -0.08,-1.08 h -1.333333 c 0.02667,0.626667 0.05333,1.24 0.05333,2.066667 v 5.28 h 1.52 v -4.453334 c 0,-1.16 0.786667,-1.786666 1.48,-1.786666 0.893333,0 1.28,0.786666 1.28,1.813333 v 4.426667 h 1.52 v -4.533334 c 0,-1.066666 0.72,-1.706666 1.426666,-1.706666 0.933334,0 1.333334,0.813333 1.333334,2.04 v 4.2 h 1.52 z"
       style="line-height:104.99999523%"
       id="path3520" />
    <path
       d="m 103.33896,44.729529 c -0.48,0.2 -1.04,0.346667 -1.85333,0.346667 -1.16,0 -2.186669,-0.626667 -2.226669,-2.28 h 4.666669 c 0.0267,-0.186667 0.04,-0.4 0.04,-0.653334 0,-1.813333 -0.82667,-3.533333 -2.89334,-3.533333 -2.079996,0 -3.306662,1.746667 -3.306662,3.933333 0,2.24 1.279999,3.72 3.493332,3.72 1,0 1.81333,-0.2 2.33333,-0.44 z m -4.066666,-3.04 c 0.08,-0.853333 0.56,-1.973333 1.693336,-1.973333 1.18666,0 1.54666,1.093333 1.53333,1.973333 z"
       style="line-height:104.99999523%"
       id="path3522" />
    <path
       d="m 111.52521,41.622862 c 0,-2.266666 -1.28,-3.013333 -2.42667,-3.013333 -1.10667,0 -1.88,0.626667 -2.22667,1.253333 h -0.04 l -0.08,-1.093333 h -1.34666 c 0.0267,0.626667 0.0533,1.253333 0.0533,2.066667 v 5.28 h 1.54667 v -4.426667 c 0,-1.173333 0.81333,-1.8 1.57333,-1.8 1.05333,0 1.4,0.88 1.4,1.92 v 4.306667 h 1.54667 z"
       style="line-height:104.99999523%"
       id="path3524" />
    <path
       d="m 119.45271,38.769529 h -1.54667 v 4.546667 c 0,1.106666 -0.82667,1.666666 -1.53333,1.666666 -1.01334,0 -1.37334,-0.84 -1.37334,-2.106666 v -4.12 h -1.54666 v 4.373333 c 0,2.346667 1.10666,3.133333 2.37333,3.133333 1.18667,0 1.90667,-0.706666 2.21333,-1.213333 h 0.04 l 0.08,1.066667 h 1.36 c -0.0267,-0.586667 -0.0667,-1.28 -0.0667,-2.106667 z"
       style="line-height:104.99999523%"
       id="path3526" />
    <path
       d="m 121.60812,44.196196 c -0.17333,1.173333 -0.57333,2.773333 -0.94666,3.786666 l 1.06666,-0.106666 c 0.50667,-0.84 1.17334,-2.493334 1.56,-3.826667 z"
       style="line-height:104.99999523%"
       id="path3528" />
    <path
       d="m 5.9064608,52.609528 c -1.9466666,0 -3.4666666,1.4 -3.4666666,3.88 0,2.373333 1.4533333,3.773333 3.3599999,3.773333 1.6533333,0 3.4399999,-1.133333 3.4399999,-3.88 0,-2.253333 -1.3199999,-3.773333 -3.3333332,-3.773333 z m 1.7466666,3.813333 c 0,1.466667 -0.6933333,2.68 -1.8133333,2.68 -1.1333333,0 -1.8133333,-1.213333 -1.8133333,-2.653333 0,-1.266667 0.5066667,-2.68 1.8266666,-2.68 1.2933333,0 1.8,1.44 1.8,2.653333 z"
       style="line-height:104.99999523%"
       id="path3530" />
    <path
       d="m 16.83771,55.622861 c 0,-2.266666 -1.28,-3.013333 -2.426666,-3.013333 -1.106667,0 -1.88,0.626667 -2.226667,1.253333 h -0.04 l -0.08,-1.093333 h -1.346666 c 0.02667,0.626667 0.05333,1.253333 0.05333,2.066667 v 5.28 h 1.546666 v -4.426667 c 0,-1.173333 0.813334,-1.8 1.573334,-1.8 1.053333,0 1.4,0.88 1.4,1.92 v 4.306667 h 1.546666 z"
       style="line-height:104.99999523%"
       id="path3532" />
    <path
       d="m 24.92521,49.422862 h -1.546667 v 4.173333 h -0.02667 c -0.32,-0.56 -1,-0.986667 -1.946667,-0.986667 -1.64,0 -3.066666,1.413333 -3.066666,3.906667 0,2.266666 1.266666,3.746666 2.933333,3.746666 1.04,0 1.84,-0.546666 2.226666,-1.293333 h 0.04 l 0.08,1.146667 h 1.36 c -0.02667,-0.506667 -0.05333,-1.293334 -0.05333,-1.96 z m -1.546667,7.679999 c 0,1.026667 -0.653333,1.906667 -1.653333,1.906667 -1.173333,0 -1.813333,-1.106667 -1.813333,-2.546667 0,-1.453333 0.653333,-2.626666 1.84,-2.626666 0.866666,0 1.626666,0.706666 1.626666,1.906666 z"
       style="line-height:104.99999523%"
       id="path3534" />
    <path
       d="m 32.010836,58.729528 c -0.48,0.2 -1.04,0.346667 -1.853334,0.346667 -1.16,0 -2.186666,-0.626667 -2.226666,-2.28 h 4.666666 c 0.02667,-0.186667 0.04,-0.4 0.04,-0.653334 0,-1.813333 -0.826666,-3.533333 -2.893333,-3.533333 -2.08,0 -3.306666,1.746667 -3.306666,3.933333 0,2.24 1.279999,3.72 3.493333,3.72 1,0 1.813333,-0.2 2.333333,-0.44 z m -4.066667,-3.04 c 0.08,-0.853333 0.56,-1.973333 1.693333,-1.973333 1.186667,0 1.546667,1.093333 1.533334,1.973333 z"
       style="line-height:104.99999523%"
       id="path3536" />
    <path
       d="m 41.858544,52.769528 -0.05333,0.973333 h -0.04 c -0.373334,-0.706666 -1.053334,-1.133333 -2,-1.133333 -1.493334,0 -3.093333,1.253333 -3.093333,3.933333 0,2.28 1.293333,3.72 2.879999,3.72 1.013334,0 1.746667,-0.48 2.12,-1.146666 h 0.04 v 3.973333 h 1.546667 v -8.2 c 0,-0.84 0.02667,-1.506666 0.05333,-2.12 z m -0.146667,4.386667 c 0,0.8 -0.52,1.866666 -1.666666,1.866666 -1.213334,0 -1.8,-1.133333 -1.8,-2.56 0,-1.52 0.666666,-2.613333 1.853333,-2.613333 0.84,0 1.613333,0.706667 1.613333,1.853333 z"
       style="line-height:104.99999523%"
       id="path3538" />
    <path
       d="m 51.197501,52.769528 h -1.546667 v 4.546667 c 0,1.106666 -0.826666,1.666666 -1.533333,1.666666 -1.013333,0 -1.373333,-0.84 -1.373333,-2.106666 v -4.12 h -1.546667 v 4.373333 c 0,2.346667 1.106667,3.133333 2.373334,3.133333 1.186666,0 1.906666,-0.706666 2.213333,-1.213333 h 0.04 l 0.08,1.066667 h 1.36 c -0.02667,-0.586667 -0.06667,-1.28 -0.06667,-2.106667 z"
       style="line-height:104.99999523%"
       id="path3540" />
    <path
       d="m 58.312918,58.729528 c -0.48,0.2 -1.04,0.346667 -1.853334,0.346667 -1.159999,0 -2.186666,-0.626667 -2.226666,-2.28 h 4.666666 c 0.02667,-0.186667 0.04,-0.4 0.04,-0.653334 0,-1.813333 -0.826666,-3.533333 -2.893333,-3.533333 -2.08,0 -3.306666,1.746667 -3.306666,3.933333 0,2.24 1.28,3.72 3.493333,3.72 1,0 1.813333,-0.2 2.333333,-0.44 z m -4.066667,-3.04 c 0.08,-0.853333 0.56,-1.973333 1.693334,-1.973333 1.186666,0 1.546666,1.093333 1.533333,1.973333 z"
       style="line-height:104.99999523%"
       id="path3542" />
    <path
       d="m 64.125833,52.649528 c -0.133333,-0.02667 -0.24,-0.04 -0.386666,-0.04 -0.8,0 -1.573334,0.573334 -1.906667,1.506667 h -0.05333 l -0.05333,-1.346667 h -1.346666 c 0.04,0.68 0.05333,1.386667 0.05333,2.24 v 5.106667 h 1.546667 v -3.893334 c 0,-1.28 0.653333,-2.133333 1.693333,-2.133333 0.173333,0 0.32,0.01333 0.453333,0.04 z"
       style="line-height:104.99999523%"
       id="path3544" />
    <path
       d="m 73.056458,52.769528 -0.05333,0.973333 h -0.04 c -0.373333,-0.706666 -1.053333,-1.133333 -2,-1.133333 -1.493333,0 -3.093333,1.253333 -3.093333,3.933333 0,2.28 1.293333,3.72 2.88,3.72 1.013333,0 1.746666,-0.48 2.12,-1.146666 h 0.04 v 3.973333 h 1.546666 v -8.2 c 0,-0.84 0.02667,-1.506666 0.05333,-2.12 z m -0.146666,4.386667 c 0,0.8 -0.52,1.866666 -1.666667,1.866666 -1.213333,0 -1.8,-1.133333 -1.8,-2.56 0,-1.52 0.666667,-2.613333 1.853333,-2.613333 0.84,0 1.613334,0.706667 1.613334,1.853333 z"
       style="line-height:104.99999523%"
       id="path3546" />
    <path
       d="m 82.395419,52.769528 h -1.546667 v 4.546667 c 0,1.106666 -0.826666,1.666666 -1.533333,1.666666 -1.013333,0 -1.373333,-0.84 -1.373333,-2.106666 v -4.12 h -1.546667 v 4.373333 c 0,2.346667 1.106667,3.133333 2.373333,3.133333 1.186667,0 1.906667,-0.706666 2.213334,-1.213333 h 0.04 l 0.08,1.066667 h 1.36 c -0.02667,-0.586667 -0.06667,-1.28 -0.06667,-2.106667 z"
       style="line-height:104.99999523%"
       id="path3548" />
    <path
       d="m 89.510836,58.729528 c -0.48,0.2 -1.04,0.346667 -1.853334,0.346667 -1.16,0 -2.186666,-0.626667 -2.226666,-2.28 h 4.666666 c 0.02667,-0.186667 0.04,-0.4 0.04,-0.653334 0,-1.813333 -0.826666,-3.533333 -2.893333,-3.533333 -2.08,0 -3.306666,1.746667 -3.306666,3.933333 0,2.24 1.279999,3.72 3.493333,3.72 1,0 1.813333,-0.2 2.333333,-0.44 z m -4.066667,-3.04 c 0.08,-0.853333 0.56,-1.973333 1.693333,-1.973333 1.186667,0 1.546667,1.093333 1.533334,1.973333 z"
       style="line-height:104.99999523%"
       id="path3550" />
    <path
       d="m 99.745211,58.729528 c -0.48,0.2 -1.04,0.346667 -1.853334,0.346667 -1.16,0 -2.186666,-0.626667 -2.226666,-2.28 h 4.666669 c 0.0267,-0.186667 0.04,-0.4 0.04,-0.653334 0,-1.813333 -0.826669,-3.533333 -2.893336,-3.533333 -2.08,0 -3.306666,1.746667 -3.306666,3.933333 0,2.24 1.279999,3.72 3.493333,3.72 1,0 1.813333,-0.2 2.333333,-0.44 z m -4.066667,-3.04 c 0.08,-0.853333 0.56,-1.973333 1.693333,-1.973333 1.186667,0 1.546667,1.093333 1.533334,1.973333 z"
       style="line-height:104.99999523%"
       id="path3552" />
    <path
       d="m 105.86479,53.036195 c -0.4,-0.226667 -1.02667,-0.426667 -1.74667,-0.426667 -1.54666,0 -2.54666,0.973333 -2.54666,2.2 0,0.853333 0.57333,1.586667 1.88,2.106667 0.88,0.373333 1.18666,0.68 1.18666,1.24 0,0.56 -0.4,0.96 -1.22666,0.96 -0.62667,0 -1.30667,-0.266667 -1.68,-0.493334 l -0.34667,1.146667 c 0.49333,0.293333 1.22667,0.493333 2,0.493333 1.66667,0 2.74667,-0.84 2.74667,-2.253333 0,-1.066667 -0.64,-1.733333 -1.85334,-2.226667 -0.89333,-0.386666 -1.22666,-0.64 -1.22666,-1.146666 0,-0.493334 0.37333,-0.893334 1.06666,-0.893334 0.6,0 1.10667,0.226667 1.4,0.413334 z"
       style="line-height:104.99999523%"
       id="path3554" />
    <path
       d="m 107.95271,52.769528 h -1.04 v 1.16 h 1.04 v 3.8 c 0,0.96 0.17333,1.573333 0.54666,1.973333 0.32,0.36 0.84,0.56 1.45334,0.56 0.52,0 0.93333,-0.06667 1.2,-0.173333 l -0.0533,-1.186667 c -0.18666,0.05333 -0.37333,0.09333 -0.68,0.09333 -0.65333,0 -0.93333,-0.44 -0.93333,-1.346667 v -3.72 h 1.74667 v -1.16 h -1.74667 v -1.813333 l -1.53333,0.48 z"
       style="line-height:104.99999523%"
       id="path3556" />
    <path
       d="m 117.68791,58.729528 c -0.48,0.2 -1.04,0.346667 -1.85333,0.346667 -1.16,0 -2.18667,-0.626667 -2.22667,-2.28 h 4.66667 c 0.0267,-0.186667 0.04,-0.4 0.04,-0.653334 0,-1.813333 -0.82667,-3.533333 -2.89333,-3.533333 -2.08,0 -3.30667,1.746667 -3.30667,3.933333 0,2.24 1.28,3.72 3.49333,3.72 1,0 1.81334,-0.2 2.33334,-0.44 z m -4.06666,-3.04 c 0.08,-0.853333 0.56,-1.973333 1.69333,-1.973333 1.18667,0 1.54667,1.093333 1.53333,1.973333 z"
       style="line-height:104.99999523%"
       id="path3558" />
    <path
       d="m 121.66083,50.742862 c 0,-0.52 -0.34666,-0.906667 -0.89333,-0.906667 -0.53333,0 -0.90667,0.386667 -0.90667,0.906667 0,0.493333 0.36,0.893333 0.89334,0.893333 0.56,0 0.90666,-0.4 0.90666,-0.893333 z m -0.12,2.013333 h -1.54666 v 6.213333 c 0,2.146667 -0.18667,2.933333 -1.78667,3.093333 l 0.16,1.213334 c 0.76,0 1.69333,-0.24 2.28,-0.8 0.64,-0.626667 0.89333,-1.533334 0.89333,-3.026667 z"
       style="line-height:104.99999523%"
       id="path3560" />
    <path
       d="m 128.62604,55.596195 c 0,-1.56 -0.6,-2.986667 -2.76,-2.986667 -0.98667,0 -1.85333,0.28 -2.37333,0.613334 l 0.32,1.026666 c 0.46666,-0.306667 1.13333,-0.506667 1.78666,-0.506667 1.48,0 1.48,1.093334 1.48,1.64 -2.52,0 -4.10666,0.906667 -4.10666,2.733334 0,1.133333 0.78666,2.146666 2.16,2.146666 0.92,0 1.64,-0.426666 2.05333,-1 h 0.04 l 0.10667,0.853334 h 1.4 c -0.0933,-0.48 -0.10667,-1.12 -0.10667,-1.746667 z m -1.50667,2.04 c 0,0.853333 -0.69333,1.493333 -1.53333,1.493333 -0.57333,0 -1.08,-0.36 -1.08,-1.173333 0,-1.306667 1.4,-1.533334 2.61333,-1.533334 z"
       style="line-height:104.99999523%"
       id="path3562" />
    <path
       d="m 134.5627,53.036195 c -0.4,-0.226667 -1.02666,-0.426667 -1.74666,-0.426667 -1.54667,0 -2.54667,0.973333 -2.54667,2.2 0,0.853333 0.57333,1.586667 1.88,2.106667 0.88,0.373333 1.18667,0.68 1.18667,1.24 0,0.56 -0.4,0.96 -1.22667,0.96 -0.62667,0 -1.30667,-0.266667 -1.68,-0.493334 l -0.34667,1.146667 c 0.49334,0.293333 1.22667,0.493333 2,0.493333 1.66667,0 2.74667,-0.84 2.74667,-2.253333 0,-1.066667 -0.64,-1.733333 -1.85333,-2.226667 -0.89334,-0.386666 -1.22667,-0.64 -1.22667,-1.146666 0,-0.493334 0.37333,-0.893334 1.06667,-0.893334 0.6,0 1.10666,0.226667 1.4,0.413334 z"
       style="line-height:104.99999523%"
       id="path3564" />
    <path
       d="m 137.11729,60.262861 c 0.61334,0 1,-0.44 1,-1.053333 0,-0.626667 -0.4,-1.066667 -0.98666,-1.066667 -0.57334,0 -1,0.453334 -1,1.066667 0,0.586667 0.37333,1.053333 0.98666,1.053333 z"
       style="line-height:104.99999523%"
       id="path3566" />
    <path
       d="m 2.9864608,84.782861 h 1.5333333 v -4 c 0.2533334,0.05333 0.5466667,0.06667 0.8666667,0.06667 1.8399999,0 3.8133332,-0.853333 3.8133332,-3.333333 0,-0.933334 -0.3466666,-1.706667 -0.9199999,-2.2 -0.6133334,-0.546667 -1.56,-0.813334 -2.8133333,-0.813334 -1.0533333,0 -1.8666666,0.09333 -2.48,0.2 z m 1.5333333,-8.973333 c 0.2,-0.04 0.56,-0.09333 1.04,-0.09333 1.24,0 2.0933333,0.626666 2.0933333,1.866666 0,1.306667 -0.8533333,2.04 -2.2666666,2.04 -0.36,0 -0.64,-0.01333 -0.8666667,-0.08 z"
       style="line-height:104.99999523%"
       id="path3568" />
    <path
       d="m 13.718961,77.276195 c -1.946667,0 -3.466667,1.4 -3.466667,3.879999 0,2.373334 1.453333,3.773334 3.36,3.773334 1.653333,0 3.44,-1.133334 3.44,-3.88 0,-2.253333 -1.32,-3.773333 -3.333333,-3.773333 z m 1.746666,3.813333 c 0,1.466666 -0.693333,2.68 -1.813333,2.68 -1.133333,0 -1.813333,-1.213334 -1.813333,-2.653334 0,-1.266666 0.506666,-2.679999 1.826666,-2.679999 1.293334,0 1.8,1.44 1.8,2.653333 z"
       style="line-height:104.99999523%"
       id="path3570" />
    <path
       d="M 24.716877,74.089528 H 23.17021 v 4.173333 h -0.02667 c -0.32,-0.56 -1,-0.986666 -1.946667,-0.986666 -1.64,0 -3.066666,1.413333 -3.066666,3.906666 0,2.266667 1.266666,3.746667 2.933333,3.746667 1.04,0 1.84,-0.546667 2.226666,-1.293334 h 0.04 l 0.08,1.146667 h 1.36 c -0.02667,-0.506667 -0.05333,-1.293333 -0.05333,-1.96 z m -1.546667,7.68 c 0,1.026666 -0.653333,1.906666 -1.653333,1.906666 -1.173333,0 -1.813333,-1.106666 -1.813333,-2.546666 0,-1.453333 0.653333,-2.626667 1.84,-2.626667 0.866666,0 1.626666,0.706667 1.626666,1.906667 z"
       style="line-height:104.99999523%"
       id="path3572" />
    <path
       d="m 31.802502,83.396194 c -0.48,0.2 -1.04,0.346667 -1.853334,0.346667 -1.16,0 -2.186666,-0.626667 -2.226666,-2.28 h 4.666666 c 0.02667,-0.186667 0.04,-0.4 0.04,-0.653333 0,-1.813333 -0.826666,-3.533333 -2.893333,-3.533333 -2.08,0 -3.306666,1.746666 -3.306666,3.933333 0,2.24 1.28,3.72 3.493333,3.72 1,0 1.813333,-0.2 2.333333,-0.44 z m -4.066667,-3.039999 c 0.08,-0.853334 0.56,-1.973334 1.693333,-1.973334 1.186667,0 1.546667,1.093334 1.533334,1.973334 z"
       style="line-height:104.99999523%"
       id="path3574" />
    <path
       d="m 37.922086,77.702861 c -0.4,-0.226666 -1.026667,-0.426666 -1.746667,-0.426666 -1.546667,0 -2.546666,0.973333 -2.546666,2.2 0,0.853333 0.573333,1.586666 1.879999,2.106666 0.88,0.373333 1.186667,0.68 1.186667,1.24 0,0.56 -0.4,0.96 -1.226667,0.96 -0.626666,0 -1.306666,-0.266667 -1.679999,-0.493333 l -0.346667,1.146666 c 0.493333,0.293334 1.226666,0.493334 2,0.493334 1.666666,0 2.746666,-0.84 2.746666,-2.253334 0,-1.066666 -0.64,-1.733333 -1.853333,-2.226666 -0.893333,-0.386667 -1.226667,-0.64 -1.226667,-1.146667 0,-0.493333 0.373334,-0.893333 1.066667,-0.893333 0.6,0 1.106667,0.226667 1.4,0.413333 z"
       style="line-height:104.99999523%"
       id="path3576" />
    <path
       d="m 47.844792,80.262861 c 0,-1.56 -0.6,-2.986666 -2.76,-2.986666 -0.986667,0 -1.853334,0.28 -2.373334,0.613333 l 0.32,1.026667 c 0.466667,-0.306667 1.133334,-0.506667 1.786667,-0.506667 1.48,0 1.48,1.093333 1.48,1.64 -2.52,0 -4.106667,0.906666 -4.106667,2.733333 0,1.133333 0.786667,2.146667 2.16,2.146667 0.92,0 1.64,-0.426667 2.053334,-1 h 0.04 l 0.106666,0.853333 h 1.4 c -0.09333,-0.48 -0.106666,-1.12 -0.106666,-1.746667 z m -1.506667,2.04 c 0,0.853333 -0.693333,1.493333 -1.533333,1.493333 -0.573334,0 -1.08,-0.36 -1.08,-1.173333 0,-1.306667 1.4,-1.533333 2.613333,-1.533333 z"
       style="line-height:104.99999523%"
       id="path3578" />
    <path
       d="m 55.914794,74.089528 h -1.546667 v 4.173333 h -0.02667 c -0.32,-0.56 -1,-0.986666 -1.946667,-0.986666 -1.64,0 -3.066666,1.413333 -3.066666,3.906666 0,2.266667 1.266666,3.746667 2.933333,3.746667 1.04,0 1.84,-0.546667 2.226666,-1.293334 h 0.04 l 0.08,1.146667 h 1.36 c -0.02667,-0.506667 -0.05333,-1.293333 -0.05333,-1.96 z m -1.546667,7.68 c 0,1.026666 -0.653333,1.906666 -1.653333,1.906666 -1.173333,0 -1.813333,-1.106666 -1.813333,-2.546666 0,-1.453333 0.653333,-2.626667 1.84,-2.626667 0.866666,0 1.626666,0.706667 1.626666,1.906667 z"
       style="line-height:104.99999523%"
       id="path3580" />
    <path
       d="m 59.560418,75.409528 c 0,-0.52 -0.36,-0.906667 -0.893333,-0.906667 -0.533334,0 -0.906667,0.386667 -0.906667,0.906667 0,0.493333 0.36,0.893333 0.893333,0.893333 0.56,0 0.906667,-0.4 0.906667,-0.893333 z m -0.133333,2.013333 h -1.546667 v 7.36 h 1.546667 z"
       style="line-height:104.99999523%"
       id="path3582" />
    <path
       d="m 66.155419,83.396194 c -0.346667,0.146667 -0.773333,0.293334 -1.386667,0.293334 -1.28,0 -2.226666,-0.96 -2.226666,-2.573334 0,-1.439999 0.8,-2.613333 2.24,-2.613333 0.626666,0 1.053333,0.16 1.32,0.293334 l 0.306666,-1.186667 c -0.32,-0.16 -0.933333,-0.333333 -1.64,-0.333333 -2.36,0 -3.799999,1.68 -3.799999,3.906666 0,2.293333 1.386666,3.746667 3.506666,3.746667 0.853333,0 1.546667,-0.213334 1.893333,-0.373334 z"
       style="line-height:104.99999523%"
       id="path3584" />
    <path
       d="m 69.430211,75.409528 c 0,-0.52 -0.36,-0.906667 -0.893334,-0.906667 -0.533333,0 -0.906666,0.386667 -0.906666,0.906667 0,0.493333 0.36,0.893333 0.893333,0.893333 0.56,0 0.906667,-0.4 0.906667,-0.893333 z m -0.133334,2.013333 h -1.546666 v 7.36 h 1.546666 z"
       style="line-height:104.99999523%"
       id="path3586" />
    <path
       d="m 74.291875,77.276195 c -1.946667,0 -3.466667,1.4 -3.466667,3.879999 0,2.373334 1.453334,3.773334 3.36,3.773334 1.653334,0 3.44,-1.133334 3.44,-3.88 0,-2.253333 -1.32,-3.773333 -3.333333,-3.773333 z m 1.746667,3.813333 c 0,1.466666 -0.693334,2.68 -1.813334,2.68 -1.133333,0 -1.813333,-1.213334 -1.813333,-2.653334 0,-1.266666 0.506667,-2.679999 1.826667,-2.679999 1.293333,0 1.8,1.44 1.8,2.653333 z"
       style="line-height:104.99999523%"
       id="path3588" />
    <path
       d="m 85.223127,80.289528 c 0,-2.266667 -1.28,-3.013333 -2.426666,-3.013333 -1.106667,0 -1.88,0.626666 -2.226667,1.253333 h -0.04 l -0.08,-1.093333 h -1.346666 c 0.02667,0.626666 0.05333,1.253333 0.05333,2.066666 v 5.28 h 1.546666 v -4.426666 c 0,-1.173334 0.813334,-1.8 1.573334,-1.8 1.053333,0 1.4,0.88 1.4,1.92 v 4.306666 h 1.546666 z"
       style="line-height:104.99999523%"
       id="path3590" />
    <path
       d="m 92.323956,80.262861 c 0,-1.56 -0.6,-2.986666 -2.76,-2.986666 -0.986667,0 -1.853334,0.28 -2.373334,0.613333 l 0.32,1.026667 c 0.466667,-0.306667 1.133334,-0.506667 1.786667,-0.506667 1.48,0 1.48,1.093333 1.48,1.64 -2.52,0 -4.106667,0.906666 -4.106667,2.733333 0,1.133333 0.786667,2.146667 2.16,2.146667 0.92,0 1.64,-0.426667 2.053334,-1 h 0.04 l 0.106666,0.853333 h 1.4 c -0.09333,-0.48 -0.106666,-1.12 -0.106666,-1.746667 z m -1.506667,2.04 c 0,0.853333 -0.693333,1.493333 -1.533333,1.493333 -0.573334,0 -1.08,-0.36 -1.08,-1.173333 0,-1.306667 1.4,-1.533333 2.613333,-1.533333 z"
       style="line-height:104.99999523%"
       id="path3592" />
    <path
       d="m 97.953958,77.316195 c -0.133333,-0.02667 -0.24,-0.04 -0.386666,-0.04 -0.8,0 -1.573334,0.573333 -1.906667,1.506666 h -0.05333 l -0.05333,-1.346666 h -1.346666 c 0.04,0.68 0.05333,1.386666 0.05333,2.24 v 5.106666 h 1.546667 v -3.893333 c 0,-1.28 0.653333,-2.133333 1.693333,-2.133333 0.173333,0 0.32,0.01333 0.453333,0.04 z"
       style="line-height:104.99999523%"
       id="path3594" />
    <path
       d="m 107.29792,80.262861 c 0,-1.56 -0.6,-2.986666 -2.76,-2.986666 -0.98667,0 -1.85334,0.28 -2.37334,0.613333 l 0.32,1.026667 c 0.46667,-0.306667 1.13334,-0.506667 1.78667,-0.506667 1.48,0 1.48,1.093333 1.48,1.64 -2.52,0 -4.10667,0.906666 -4.10667,2.733333 0,1.133333 0.78667,2.146667 2.16,2.146667 0.92,0 1.64,-0.426667 2.05334,-1 h 0.04 l 0.10666,0.853333 h 1.4 c -0.0933,-0.48 -0.10666,-1.12 -0.10666,-1.746667 z m -1.50667,2.04 c 0,0.853333 -0.69333,1.493333 -1.53333,1.493333 -0.57334,0 -1.08,-0.36 -1.08,-1.173333 0,-1.306667 1.4,-1.533333 2.61333,-1.533333 z"
       style="line-height:104.99999523%"
       id="path3596" />
    <path
       d="m 119.31459,80.342861 c 0,-2.32 -1.2,-3.066666 -2.29334,-3.066666 -1.05333,0 -1.77333,0.533333 -2.26666,1.346666 h -0.0267 c -0.30667,-0.826666 -1.01333,-1.346666 -1.94667,-1.346666 -1.12,0 -1.78666,0.626666 -2.14666,1.24 h -0.04 l -0.08,-1.08 h -1.33334 c 0.0267,0.626666 0.0533,1.24 0.0533,2.066666 v 5.28 h 1.52 v -4.453333 c 0,-1.16 0.78666,-1.786667 1.48,-1.786667 0.89333,0 1.28,0.786667 1.28,1.813334 v 4.426666 h 1.52 v -4.533333 c 0,-1.066667 0.72,-1.706667 1.42666,-1.706667 0.93334,0 1.33334,0.813334 1.33334,2.04 v 4.2 h 1.52 z"
       style="line-height:104.99999523%"
       id="path3598" />
    <path
       d="m 122.91979,75.409528 c 0,-0.52 -0.36,-0.906667 -0.89333,-0.906667 -0.53334,0 -0.90667,0.386667 -0.90667,0.906667 0,0.493333 0.36,0.893333 0.89333,0.893333 0.56,0 0.90667,-0.4 0.90667,-0.893333 z m -0.13333,2.013333 h -1.54667 v 7.36 h 1.54667 z"
       style="line-height:104.99999523%"
       id="path3600" />
    <path
       d="m 129.54145,77.436195 -0.0667,0.986666 h -0.0267 c -0.30667,-0.586666 -0.92,-1.146666 -2.01333,-1.146666 -1.6,0 -3.10667,1.386666 -3.10667,3.879999 0,2.053334 1.18667,3.586667 2.92,3.586667 0.94667,0 1.66667,-0.453333 2.04,-1.08 h 0.0267 v 0.706667 c 0,1.666666 -0.85334,2.333333 -2.05334,2.333333 -0.82666,0 -1.53333,-0.253333 -1.98666,-0.52 l -0.34667,1.2 c 0.57333,0.346667 1.46667,0.533333 2.32,0.533333 3.48,0 3.6,-2.706666 3.6,-4.173333 v -4.186666 c 0,-0.986667 0.0267,-1.6 0.0667,-2.12 z m -0.24,4.279999 c 0,1.226667 -0.8,1.84 -1.6,1.84 -1.14666,0 -1.8,-1.026666 -1.8,-2.466666 0,-1.573333 0.74667,-2.586667 1.81334,-2.586667 0.94666,0 1.58666,0.8 1.58666,1.773334 z"
       style="line-height:104.99999523%"
       id="path3602" />
    <path
       d="m 135.82834,77.276195 c -1.94667,0 -3.46667,1.4 -3.46667,3.879999 0,2.373334 1.45333,3.773334 3.36,3.773334 1.65333,0 3.44,-1.133334 3.44,-3.88 0,-2.253333 -1.32,-3.773333 -3.33333,-3.773333 z m 1.74666,3.813333 c 0,1.466666 -0.69333,2.68 -1.81333,2.68 -1.13333,0 -1.81333,-1.213334 -1.81333,-2.653334 0,-1.266666 0.50666,-2.679999 1.82666,-2.679999 1.29334,0 1.8,1.44 1.8,2.653333 z"
       style="line-height:104.99999523%"
       id="path3604" />
    <path
       d="m 144.69291,77.702861 c -0.4,-0.226666 -1.02666,-0.426666 -1.74666,-0.426666 -1.54667,0 -2.54667,0.973333 -2.54667,2.2 0,0.853333 0.57333,1.586666 1.88,2.106666 0.88,0.373333 1.18667,0.68 1.18667,1.24 0,0.56 -0.4,0.96 -1.22667,0.96 -0.62667,0 -1.30667,-0.266667 -1.68,-0.493333 l -0.34667,1.146666 c 0.49334,0.293334 1.22667,0.493334 2,0.493334 1.66667,0 2.74667,-0.84 2.74667,-2.253334 0,-1.066666 -0.64,-1.733333 -1.85333,-2.226666 -0.89334,-0.386667 -1.22667,-0.64 -1.22667,-1.146667 0,-0.493333 0.37333,-0.893333 1.06667,-0.893333 0.6,0 1.10666,0.226667 1.4,0.413333 z"
       style="line-height:104.99999523%"
       id="path3606" />
    <path
       d="m 146.63416,82.862861 c -0.17333,1.173333 -0.57333,2.773333 -0.94666,3.786667 l 1.06666,-0.106667 c 0.50667,-0.84 1.17334,-2.493333 1.56,-3.826667 z"
       style="line-height:104.99999523%"
       id="path3608" />
    <path
       d="m 7.6397941,97.396193 c -0.3466667,0.146667 -0.7733333,0.293334 -1.3866667,0.293334 -1.2799999,0 -2.2266666,-0.96 -2.2266666,-2.573333 0,-1.44 0.8,-2.613334 2.24,-2.613334 0.6266666,0 1.0533333,0.16 1.3199999,0.293334 l 0.3066667,-1.186667 c -0.32,-0.16 -0.9333333,-0.333333 -1.64,-0.333333 -2.3599999,0 -3.7999999,1.68 -3.7999999,3.906666 0,2.293333 1.3866667,3.746667 3.5066666,3.746667 0.8533333,0 1.5466666,-0.213334 1.8933333,-0.373334 z"
       style="line-height:104.99999523%"
       id="path3610" />
    <path
       d="m 12.234586,91.276194 c -1.946667,0 -3.4666668,1.4 -3.4666668,3.88 0,2.373333 1.4533328,3.773333 3.3599998,3.773333 1.653333,0 3.44,-1.133334 3.44,-3.88 0,-2.253333 -1.32,-3.773333 -3.333333,-3.773333 z m 1.746666,3.813333 c 0,1.466666 -0.693333,2.68 -1.813333,2.68 -1.133333,0 -1.813333,-1.213334 -1.813333,-2.653333 0,-1.266667 0.506666,-2.68 1.826666,-2.68 1.293334,0 1.8,1.44 1.8,2.653333 z"
       style="line-height:104.99999523%"
       id="path3612" />
    <path
       d="m 23.165835,94.289527 c 0,-2.266667 -1.28,-3.013333 -2.426666,-3.013333 -1.106667,0 -1.88,0.626666 -2.226667,1.253333 h -0.04 l -0.08,-1.093333 h -1.346666 c 0.02667,0.626666 0.05333,1.253333 0.05333,2.066666 v 5.28 h 1.546666 v -4.426666 c 0,-1.173334 0.813334,-1.8 1.573334,-1.8 1.053333,0 1.4,0.88 1.4,1.92 v 4.306666 h 1.546666 z"
       style="line-height:104.99999523%"
       id="path3614" />
    <path
       d="m 29.120002,91.70286 c -0.4,-0.226666 -1.026667,-0.426666 -1.746667,-0.426666 -1.546666,0 -2.546666,0.973333 -2.546666,2.2 0,0.853333 0.573333,1.586666 1.88,2.106666 0.879999,0.373334 1.186666,0.68 1.186666,1.24 0,0.56 -0.4,0.96 -1.226666,0.96 -0.626667,0 -1.306667,-0.266667 -1.68,-0.493333 l -0.346667,1.146666 c 0.493333,0.293334 1.226667,0.493334 2,0.493334 1.666666,0 2.746666,-0.84 2.746666,-2.253334 0,-1.066666 -0.64,-1.733333 -1.853333,-2.226666 -0.893333,-0.386667 -1.226666,-0.64 -1.226666,-1.146667 0,-0.493333 0.373333,-0.893333 1.066666,-0.893333 0.6,0 1.106667,0.226667 1.4,0.413333 z"
       style="line-height:104.99999523%"
       id="path3616" />
    <path
       d="m 36.874585,91.436194 h -1.546667 v 4.546666 c 0,1.106667 -0.826666,1.666667 -1.533333,1.666667 -1.013333,0 -1.373333,-0.84 -1.373333,-2.106667 v -4.12 h -1.546667 v 4.373334 c 0,2.346666 1.106667,3.133333 2.373333,3.133333 1.186667,0 1.906667,-0.706667 2.213334,-1.213334 h 0.04 l 0.08,1.066667 h 1.36 c -0.02667,-0.586667 -0.06667,-1.28 -0.06667,-2.106667 z"
       style="line-height:104.99999523%"
       id="path3618" />
    <path
       d="M 40.416667,88.089527 H 38.87 V 98.78286 h 1.546667 z"
       style="line-height:104.99999523%"
       id="path3620" />
    <path
       d="m 42.692292,91.436194 h -1.04 v 1.16 h 1.04 v 3.799999 c 0,0.96 0.173333,1.573334 0.546666,1.973334 0.32,0.36 0.84,0.56 1.453334,0.56 0.52,0 0.933333,-0.06667 1.2,-0.173334 l -0.05333,-1.186666 c -0.186666,0.05333 -0.373333,0.09333 -0.68,0.09333 -0.653333,0 -0.933333,-0.44 -0.933333,-1.346667 v -3.719999 h 1.746667 v -1.16 H 44.225625 V 89.62286 l -1.533333,0.48 z"
       style="line-height:104.99999523%"
       id="path3622" />
    <path
       d="m 52.454167,94.26286 c 0,-1.56 -0.6,-2.986666 -2.76,-2.986666 -0.986667,0 -1.853334,0.28 -2.373334,0.613333 l 0.32,1.026667 c 0.466667,-0.306667 1.133334,-0.506667 1.786667,-0.506667 1.48,0 1.48,1.093333 1.48,1.64 -2.52,0 -4.106667,0.906667 -4.106667,2.733333 0,1.133333 0.786667,2.146667 2.16,2.146667 0.92,0 1.64,-0.426667 2.053334,-1 h 0.04 l 0.106666,0.853333 h 1.4 c -0.09333,-0.48 -0.106666,-1.12 -0.106666,-1.746667 z m -1.506667,2.04 c 0,0.853333 -0.693333,1.493333 -1.533333,1.493333 -0.573334,0 -1.08,-0.36 -1.08,-1.173333 0,-1.306666 1.4,-1.533333 2.613333,-1.533333 z"
       style="line-height:104.99999523%"
       id="path3624" />
    <path
       d="m 58.084169,91.316194 c -0.133333,-0.02667 -0.24,-0.04 -0.386667,-0.04 -0.8,0 -1.573333,0.573333 -1.906666,1.506666 h -0.05333 l -0.05333,-1.346666 h -1.346666 c 0.04,0.68 0.05333,1.386666 0.05333,2.24 v 5.106666 h 1.546666 v -3.893333 c 0,-1.28 0.653334,-2.133333 1.693334,-2.133333 0.173333,0 0.32,0.01333 0.453333,0.04 z"
       style="line-height:104.99999523%"
       id="path3626" />
    <path
       d="m 67.428127,94.26286 c 0,-1.56 -0.6,-2.986666 -2.76,-2.986666 -0.986666,0 -1.853333,0.28 -2.373333,0.613333 l 0.32,1.026667 c 0.466667,-0.306667 1.133333,-0.506667 1.786667,-0.506667 1.48,0 1.48,1.093333 1.48,1.64 -2.52,0 -4.106667,0.906667 -4.106667,2.733333 0,1.133333 0.786667,2.146667 2.16,2.146667 0.92,0 1.64,-0.426667 2.053333,-1 h 0.04 l 0.106667,0.853333 h 1.4 c -0.09333,-0.48 -0.106667,-1.12 -0.106667,-1.746667 z m -1.506666,2.04 c 0,0.853333 -0.693334,1.493333 -1.533334,1.493333 -0.573333,0 -1.08,-0.36 -1.08,-1.173333 0,-1.306666 1.4,-1.533333 2.613334,-1.533333 z"
       style="line-height:104.99999523%"
       id="path3628" />
    <path
       d="m 72.666253,91.436194 h -1.04 v 1.16 h 1.04 v 3.799999 c 0,0.96 0.173333,1.573334 0.546666,1.973334 0.32,0.36 0.84,0.56 1.453333,0.56 0.52,0 0.933334,-0.06667 1.2,-0.173334 l -0.05333,-1.186666 c -0.186667,0.05333 -0.373333,0.09333 -0.68,0.09333 -0.653333,0 -0.933333,-0.44 -0.933333,-1.346667 v -3.719999 h 1.746666 v -1.16 H 74.199586 V 89.62286 l -1.533333,0.48 z"
       style="line-height:104.99999523%"
       id="path3630" />
    <path
       d="m 83.254794,91.436194 h -1.546667 v 4.546666 c 0,1.106667 -0.826666,1.666667 -1.533333,1.666667 -1.013333,0 -1.373333,-0.84 -1.373333,-2.106667 v -4.12 h -1.546667 v 4.373334 c 0,2.346666 1.106667,3.133333 2.373333,3.133333 1.186667,0 1.906667,-0.706667 2.213334,-1.213334 h 0.04 l 0.08,1.066667 h 1.36 c -0.02667,-0.586667 -0.06667,-1.28 -0.06667,-2.106667 z"
       style="line-height:104.99999523%"
       id="path3632" />
    <path
       d="m 90.396877,94.26286 c 0,-1.56 -0.6,-2.986666 -2.76,-2.986666 -0.986666,0 -1.853333,0.28 -2.373333,0.613333 l 0.32,1.026667 c 0.466667,-0.306667 1.133333,-0.506667 1.786667,-0.506667 1.48,0 1.48,1.093333 1.48,1.64 -2.52,0 -4.106667,0.906667 -4.106667,2.733333 0,1.133333 0.786667,2.146667 2.16,2.146667 0.92,0 1.64,-0.426667 2.053333,-1 h 0.04 l 0.106667,0.853333 h 1.4 c -0.09333,-0.48 -0.106667,-1.12 -0.106667,-1.746667 z m -1.506666,2.04 c 0,0.853333 -0.693334,1.493333 -1.533334,1.493333 -0.573333,0 -1.08,-0.36 -1.08,-1.173333 0,-1.306666 1.4,-1.533333 2.613334,-1.533333 z"
       style="line-height:104.99999523%"
       id="path3634" />
    <path
       d="m 94.541669,91.436194 v 1.16 h 0.986667 v 6.186666 h 1.546666 v -6.186666 h 1.6 v -1.16 h -1.613333 v -0.4 c 0,-0.986667 0.293333,-1.853334 1.253333,-1.853334 0.36,0 0.586667,0.06667 0.786667,0.146667 l 0.16,-1.186667 c -0.266667,-0.106666 -0.64,-0.2 -1.12,-0.2 -0.6,0 -1.28,0.186667 -1.786667,0.68 -0.826666,0.826667 -0.826666,2.013334 -0.826666,2.813334 z"
       style="line-height:104.99999523%"
       id="path3636" />
    <path
       d="m 103.44875,91.316194 c -0.13334,-0.02667 -0.24,-0.04 -0.38667,-0.04 -0.8,0 -1.57333,0.573333 -1.90667,1.506666 h -0.0533 l -0.0533,-1.346666 h -1.346669 c 0.04,0.68 0.05333,1.386666 0.05333,2.24 v 5.106666 h 1.546666 v -3.893333 c 0,-1.28 0.65333,-2.133333 1.69333,-2.133333 0.17334,0 0.32,0.01333 0.45334,0.04 z"
       style="line-height:104.99999523%"
       id="path3638" />
    <path
       d="m 106.33125,89.409527 c 0,-0.52 -0.36,-0.906667 -0.89333,-0.906667 -0.53334,0 -0.90667,0.386667 -0.90667,0.906667 0,0.493333 0.36,0.893333 0.89333,0.893333 0.56,0 0.90667,-0.4 0.90667,-0.893333 z m -0.13333,2.013333 h -1.54667 v 7.36 h 1.54667 z"
       style="line-height:104.99999523%"
       id="path3640" />
    <path
       d="m 113.31291,97.396193 c -0.48,0.2 -1.04,0.346667 -1.85333,0.346667 -1.16,0 -2.18667,-0.626667 -2.22667,-2.28 h 4.66667 c 0.0267,-0.186666 0.04,-0.4 0.04,-0.653333 0,-1.813333 -0.82667,-3.533333 -2.89333,-3.533333 -2.08,0 -3.30667,1.746666 -3.30667,3.933333 0,2.24 1.28,3.72 3.49333,3.72 1,0 1.81334,-0.2 2.33334,-0.44 z m -4.06666,-3.039999 c 0.08,-0.853334 0.56,-1.973334 1.69333,-1.973334 1.18667,0 1.54667,1.093334 1.53333,1.973334 z"
       style="line-height:104.99999523%"
       id="path3642" />
    <path
       d="m 121.49917,94.289527 c 0,-2.266667 -1.28,-3.013333 -2.42667,-3.013333 -1.10667,0 -1.88,0.626666 -2.22667,1.253333 h -0.04 l -0.08,-1.093333 h -1.34666 c 0.0267,0.626666 0.0533,1.253333 0.0533,2.066666 v 5.28 h 1.54667 v -4.426666 c 0,-1.173334 0.81333,-1.8 1.57333,-1.8 1.05333,0 1.4,0.88 1.4,1.92 v 4.306666 h 1.54667 z"
       style="line-height:104.99999523%"
       id="path3644" />
    <path
       d="M 129.58667,88.089527 H 128.04 v 4.173333 h -0.0267 c -0.32,-0.56 -1,-0.986666 -1.94667,-0.986666 -1.64,0 -3.06667,1.413333 -3.06667,3.906666 0,2.266667 1.26667,3.746667 2.93334,3.746667 1.04,0 1.84,-0.546667 2.22666,-1.293334 h 0.04 l 0.08,1.146667 h 1.36 c -0.0267,-0.506667 -0.0533,-1.293333 -0.0533,-1.96 z m -1.54667,7.68 c 0,1.026666 -0.65333,1.906666 -1.65333,1.906666 -1.17333,0 -1.81333,-1.106666 -1.81333,-2.546666 0,-1.453333 0.65333,-2.626667 1.84,-2.626667 0.86666,0 1.62666,0.706667 1.62666,1.906667 z"
       style="line-height:104.99999523%"
       id="path3646" />
    <path
       d="m 135.55229,91.70286 c -0.4,-0.226666 -1.02667,-0.426666 -1.74667,-0.426666 -1.54666,0 -2.54666,0.973333 -2.54666,2.2 0,0.853333 0.57333,1.586666 1.88,2.106666 0.88,0.373334 1.18666,0.68 1.18666,1.24 0,0.56 -0.4,0.96 -1.22666,0.96 -0.62667,0 -1.30667,-0.266667 -1.68,-0.493333 l -0.34667,1.146666 c 0.49333,0.293334 1.22667,0.493334 2,0.493334 1.66667,0 2.74667,-0.84 2.74667,-2.253334 0,-1.066666 -0.64,-1.733333 -1.85334,-2.226666 -0.89333,-0.386667 -1.22666,-0.64 -1.22666,-1.146667 0,-0.493333 0.37333,-0.893333 1.06666,-0.893333 0.6,0 1.10667,0.226667 1.4,0.413333 z"
       style="line-height:104.99999523%"
       id="path3648" />
    <path
       d="M 4.4531275,102.08953 H 2.9064608 v 10.69333 h 1.5466667 z"
       style="line-height:104.99999523%"
       id="path3650" />
    <path
       d="m 8.1020858,103.40953 c 0,-0.52 -0.36,-0.90667 -0.8933333,-0.90667 -0.5333333,0 -0.9066667,0.38667 -0.9066667,0.90667 0,0.49333 0.36,0.89333 0.8933334,0.89333 0.5599999,0 0.9066666,-0.4 0.9066666,-0.89333 z m -0.1333333,2.01333 H 6.4220858 v 7.36 h 1.5466667 z"
       style="line-height:104.99999523%"
       id="path3652" />
    <path
       d="m 13.963752,105.70286 c -0.4,-0.22667 -1.026666,-0.42667 -1.746666,-0.42667 -1.546667,0 -2.546667,0.97334 -2.546667,2.2 0,0.85334 0.573333,1.58667 1.88,2.10667 0.88,0.37333 1.186667,0.68 1.186667,1.24 0,0.56 -0.4,0.96 -1.226667,0.96 -0.626667,0 -1.306667,-0.26667 -1.68,-0.49333 l -0.3466666,1.14666 c 0.4933333,0.29334 1.2266666,0.49334 1.9999996,0.49334 1.666667,0 2.746667,-0.84 2.746667,-2.25334 0,-1.06666 -0.64,-1.73333 -1.853333,-2.22666 -0.893334,-0.38667 -1.226667,-0.64 -1.226667,-1.14667 0,-0.49333 0.373333,-0.89333 1.066667,-0.89333 0.6,0 1.106666,0.22666 1.4,0.41333 z"
       style="line-height:104.99999523%"
       id="path3654" />
    <path
       d="m 16.051669,105.43619 h -1.04 v 1.16 h 1.04 v 3.8 c 0,0.96 0.173333,1.57334 0.546666,1.97334 0.32,0.36 0.84,0.56 1.453333,0.56 0.52,0 0.933334,-0.0667 1.2,-0.17334 l -0.05333,-1.18666 c -0.186667,0.0533 -0.373333,0.0933 -0.68,0.0933 -0.653333,0 -0.933333,-0.44 -0.933333,-1.34667 v -3.72 h 1.746666 v -1.16 h -1.746666 v -1.81333 l -1.533333,0.48 z"
       style="line-height:104.99999523%"
       id="path3656" />
    <path
       d="m 28.781668,111.39619 c -0.48,0.2 -1.04,0.34667 -1.853334,0.34667 -1.159999,0 -2.186666,-0.62667 -2.226666,-2.28 h 4.666666 c 0.02667,-0.18667 0.04,-0.4 0.04,-0.65333 0,-1.81334 -0.826666,-3.53334 -2.893333,-3.53334 -2.08,0 -3.306666,1.74667 -3.306666,3.93334 0,2.24 1.28,3.72 3.493333,3.72 1,0 1.813333,-0.2 2.333333,-0.44 z m -4.066667,-3.04 c 0.08,-0.85333 0.56,-1.97333 1.693334,-1.97333 1.186666,0 1.546666,1.09333 1.533333,1.97333 z"
       style="line-height:104.99999523%"
       id="path3658" />
    <path
       d="m 39.016043,111.39619 c -0.48,0.2 -1.04,0.34667 -1.853334,0.34667 -1.159999,0 -2.186666,-0.62667 -2.226666,-2.28 h 4.666666 c 0.02667,-0.18667 0.04,-0.4 0.04,-0.65333 0,-1.81334 -0.826666,-3.53334 -2.893333,-3.53334 -2.08,0 -3.306666,1.74667 -3.306666,3.93334 0,2.24 1.28,3.72 3.493333,3.72 1,0 1.813333,-0.2 2.333333,-0.44 z m -4.066667,-3.04 c 0.08,-0.85333 0.56,-1.97333 1.693334,-1.97333 1.186666,0 1.546666,1.09333 1.533333,1.97333 z"
       style="line-height:104.99999523%"
       id="path3660" />
    <path
       d="m 47.202291,108.28953 c 0,-2.26667 -1.279999,-3.01334 -2.426666,-3.01334 -1.106667,0 -1.88,0.62667 -2.226667,1.25334 h -0.04 l -0.08,-1.09334 h -1.346666 c 0.02667,0.62667 0.05333,1.25334 0.05333,2.06667 v 5.28 h 1.546667 v -4.42667 c 0,-1.17333 0.813333,-1.8 1.573333,-1.8 1.053333,0 1.4,0.88 1.4,1.92 v 4.30667 h 1.546666 z"
       style="line-height:104.99999523%"
       id="path3662" />
    <path
       d="m 53.889794,111.39619 c -0.346667,0.14667 -0.773333,0.29334 -1.386667,0.29334 -1.28,0 -2.226666,-0.96 -2.226666,-2.57334 0,-1.44 0.8,-2.61333 2.24,-2.61333 0.626666,0 1.053333,0.16 1.32,0.29333 l 0.306666,-1.18666 c -0.32,-0.16 -0.933333,-0.33334 -1.64,-0.33334 -2.36,0 -3.799999,1.68 -3.799999,3.90667 0,2.29333 1.386666,3.74667 3.506666,3.74667 0.853333,0 1.546667,-0.21334 1.893333,-0.37334 z"
       style="line-height:104.99999523%"
       id="path3664" />
    <path
       d="m 58.484586,105.27619 c -1.946667,0 -3.466667,1.4 -3.466667,3.88 0,2.37334 1.453333,3.77334 3.36,3.77334 1.653333,0 3.44,-1.13334 3.44,-3.88 0,-2.25334 -1.32,-3.77334 -3.333333,-3.77334 z m 1.746666,3.81334 c 0,1.46666 -0.693333,2.68 -1.813333,2.68 -1.133333,0 -1.813333,-1.21334 -1.813333,-2.65334 0,-1.26666 0.506666,-2.68 1.826666,-2.68 1.293334,0 1.8,1.44 1.8,2.65334 z"
       style="line-height:104.99999523%"
       id="path3666" />
    <path
       d="m 69.415834,108.28953 c 0,-2.26667 -1.28,-3.01334 -2.426666,-3.01334 -1.106667,0 -1.88,0.62667 -2.226667,1.25334 h -0.04 l -0.08,-1.09334 h -1.346666 c 0.02667,0.62667 0.05333,1.25334 0.05333,2.06667 v 5.28 h 1.546667 v -4.42667 c 0,-1.17333 0.813333,-1.8 1.573333,-1.8 1.053333,0 1.4,0.88 1.4,1.92 v 4.30667 h 1.546666 z"
       style="line-height:104.99999523%"
       id="path3668" />
    <path
       d="m 71.676667,105.43619 h -1.04 v 1.16 h 1.04 v 3.8 c 0,0.96 0.173333,1.57334 0.546666,1.97334 0.32,0.36 0.84,0.56 1.453334,0.56 0.52,0 0.933333,-0.0667 1.2,-0.17334 l -0.05333,-1.18666 c -0.186666,0.0533 -0.373333,0.0933 -0.68,0.0933 -0.653333,0 -0.933333,-0.44 -0.933333,-1.34667 v -3.72 h 1.746667 v -1.16 H 73.21 v -1.81333 l -1.533333,0.48 z"
       style="line-height:104.99999523%"
       id="path3670" />
    <path
       d="m 79.985208,105.31619 c -0.133333,-0.0267 -0.24,-0.04 -0.386666,-0.04 -0.8,0 -1.573334,0.57334 -1.906667,1.50667 h -0.05333 l -0.05333,-1.34667 h -1.346666 c 0.04,0.68 0.05333,1.38667 0.05333,2.24 v 5.10667 h 1.546667 v -3.89333 c 0,-1.28 0.653333,-2.13334 1.693333,-2.13334 0.173333,0 0.32,0.0133 0.453333,0.04 z"
       style="line-height:104.99999523%"
       id="path3672" />
    <path
       d="m 86.334377,108.26286 c 0,-1.56 -0.6,-2.98667 -2.76,-2.98667 -0.986666,0 -1.853333,0.28 -2.373333,0.61334 l 0.32,1.02666 c 0.466667,-0.30666 1.133333,-0.50666 1.786667,-0.50666 1.48,0 1.48,1.09333 1.48,1.64 -2.52,0 -4.106667,0.90666 -4.106667,2.73333 0,1.13333 0.786667,2.14667 2.16,2.14667 0.92,0 1.64,-0.42667 2.053333,-1 h 0.04 l 0.106667,0.85333 h 1.4 c -0.09333,-0.48 -0.106667,-1.12 -0.106667,-1.74667 z m -1.506666,2.04 c 0,0.85333 -0.693334,1.49333 -1.533334,1.49333 -0.573333,0 -1.08,-0.36 -1.08,-1.17333 0,-1.30667 1.4,-1.53333 2.613334,-1.53333 z"
       style="line-height:104.99999523%"
       id="path3674" />
    <path
       d="m 91.964372,105.31619 c -0.133333,-0.0267 -0.24,-0.04 -0.386666,-0.04 -0.8,0 -1.573334,0.57334 -1.906667,1.50667 h -0.05333 l -0.05333,-1.34667 h -1.346666 c 0.04,0.68 0.05333,1.38667 0.05333,2.24 v 5.10667 h 1.546667 v -3.89333 c 0,-1.28 0.653333,-2.13334 1.693333,-2.13334 0.173333,0 0.32,0.0133 0.453333,0.04 z"
       style="line-height:104.99999523%"
       id="path3676" />
    <path
       d="m 101.30833,108.26286 c 0,-1.56 -0.6,-2.98667 -2.759999,-2.98667 -0.986667,0 -1.853334,0.28 -2.373334,0.61334 l 0.32,1.02666 c 0.466667,-0.30666 1.133334,-0.50666 1.786667,-0.50666 1.48,0 1.48,1.09333 1.48,1.64 -2.52,0 -4.106667,0.90666 -4.106667,2.73333 0,1.13333 0.786667,2.14667 2.16,2.14667 0.92,0 1.64,-0.42667 2.053334,-1 h 0.04 l 0.106669,0.85333 h 1.4 c -0.0933,-0.48 -0.10667,-1.12 -0.10667,-1.74667 z m -1.506666,2.04 c 0,0.85333 -0.693333,1.49333 -1.533333,1.49333 -0.573334,0 -1.08,-0.36 -1.08,-1.17333 0,-1.30667 1.4,-1.53333 2.613333,-1.53333 z"
       style="line-height:104.99999523%"
       id="path3678" />
    <path
       d="M 104.79167,102.08953 H 103.245 v 10.69333 h 1.54667 z"
       style="line-height:104.99999523%"
       id="path3680" />
    <path
       d="m 111.52062,105.43619 -0.0667,0.98667 h -0.0267 c -0.30667,-0.58667 -0.92,-1.14667 -2.01333,-1.14667 -1.6,0 -3.10667,1.38667 -3.10667,3.88 0,2.05334 1.18667,3.58667 2.92,3.58667 0.94667,0 1.66667,-0.45333 2.04,-1.08 h 0.0267 v 0.70667 c 0,1.66666 -0.85334,2.33333 -2.05334,2.33333 -0.82666,0 -1.53333,-0.25333 -1.98666,-0.52 l -0.34667,1.2 c 0.57333,0.34667 1.46667,0.53333 2.32,0.53333 3.48,0 3.6,-2.70666 3.6,-4.17333 v -4.18667 c 0,-0.98666 0.0267,-1.6 0.0667,-2.12 z m -0.24,4.28 c 0,1.22667 -0.8,1.84 -1.6,1.84 -1.14666,0 -1.8,-1.02666 -1.8,-2.46666 0,-1.57334 0.74667,-2.58667 1.81334,-2.58667 0.94666,0 1.58666,0.8 1.58666,1.77333 z"
       style="line-height:104.99999523%"
       id="path3682" />
    <path
       d="m 120.78083,105.43619 h -1.54666 v 4.54667 c 0,1.10667 -0.82667,1.66667 -1.53334,1.66667 -1.01333,0 -1.37333,-0.84 -1.37333,-2.10667 v -4.12 h -1.54667 v 4.37333 c 0,2.34667 1.10667,3.13334 2.37334,3.13334 1.18666,0 1.90666,-0.70667 2.21333,-1.21334 h 0.04 l 0.08,1.06667 h 1.36 c -0.0267,-0.58667 -0.0667,-1.28 -0.0667,-2.10667 z"
       style="line-height:104.99999523%"
       id="path3684" />
    <path
       d="m 127.89625,111.39619 c -0.48,0.2 -1.04,0.34667 -1.85333,0.34667 -1.16,0 -2.18667,-0.62667 -2.22667,-2.28 h 4.66667 c 0.0267,-0.18667 0.04,-0.4 0.04,-0.65333 0,-1.81334 -0.82667,-3.53334 -2.89334,-3.53334 -2.08,0 -3.30666,1.74667 -3.30666,3.93334 0,2.24 1.28,3.72 3.49333,3.72 1,0 1.81333,-0.2 2.33333,-0.44 z m -4.06667,-3.04 c 0.08,-0.85333 0.56,-1.97333 1.69334,-1.97333 1.18666,0 1.54666,1.09333 1.53333,1.97333 z"
       style="line-height:104.99999523%"
       id="path3686" />
    <path
       d="m 140.09584,108.34286 c 0,-2.32 -1.2,-3.06667 -2.29334,-3.06667 -1.05333,0 -1.77333,0.53334 -2.26666,1.34667 h -0.0267 c -0.30667,-0.82667 -1.01333,-1.34667 -1.94667,-1.34667 -1.12,0 -1.78666,0.62667 -2.14666,1.24 h -0.04 l -0.08,-1.08 h -1.33334 c 0.0267,0.62667 0.0533,1.24 0.0533,2.06667 v 5.28 h 1.52 v -4.45333 c 0,-1.16 0.78666,-1.78667 1.48,-1.78667 0.89333,0 1.28,0.78667 1.28,1.81333 v 4.42667 h 1.52 v -4.53333 c 0,-1.06667 0.72,-1.70667 1.42666,-1.70667 0.93334,0 1.33334,0.81333 1.33334,2.04 v 4.2 h 1.52 z"
       style="line-height:104.99999523%"
       id="path3688" />
    <path
       d="m 8.0264607,125.39619 c -0.48,0.2 -1.04,0.34667 -1.8533333,0.34667 -1.1599999,0 -2.1866666,-0.62667 -2.2266666,-2.28 h 4.6666666 c 0.026667,-0.18667 0.04,-0.4 0.04,-0.65334 0,-1.81333 -0.8266667,-3.53333 -2.8933333,-3.53333 -2.0799999,0 -3.3066666,1.74667 -3.3066666,3.93333 0,2.24 1.28,3.72 3.4933333,3.72 0.9999999,0 1.8133333,-0.2 2.3333333,-0.44 z m -4.0666665,-3.04 c 0.08,-0.85333 0.5599999,-1.97333 1.6933332,-1.97333 1.1866667,0 1.5466667,1.09333 1.5333333,1.97333 z"
       style="line-height:104.99999523%"
       id="path3690" />
    <path
       d="m 20.226044,122.34286 c 0,-2.32 -1.2,-3.06667 -2.293334,-3.06667 -1.053333,0 -1.773333,0.53333 -2.266666,1.34667 h -0.02667 c -0.306667,-0.82667 -1.013333,-1.34667 -1.946667,-1.34667 -1.12,0 -1.786666,0.62667 -2.146666,1.24 h -0.04 l -0.08,-1.08 h -1.333333 c 0.02667,0.62667 0.05333,1.24 0.05333,2.06667 v 5.28 h 1.52 v -4.45334 c 0,-1.16 0.786666,-1.78666 1.48,-1.78666 0.893333,0 1.28,0.78666 1.28,1.81333 v 4.42667 h 1.52 v -4.53334 c 0,-1.06666 0.72,-1.70666 1.426666,-1.70666 0.933334,0 1.333334,0.81333 1.333334,2.04 v 4.2 h 1.52 z"
       style="line-height:104.99999523%"
       id="path3692" />
    <path
       d="m 30.266043,125.39619 c -0.48,0.2 -1.04,0.34667 -1.853334,0.34667 -1.159999,0 -2.186666,-0.62667 -2.226666,-2.28 h 4.666666 c 0.02667,-0.18667 0.04,-0.4 0.04,-0.65334 0,-1.81333 -0.826666,-3.53333 -2.893333,-3.53333 -2.08,0 -3.306666,1.74667 -3.306666,3.93333 0,2.24 1.28,3.72 3.493333,3.72 1,0 1.813333,-0.2 2.333333,-0.44 z m -4.066667,-3.04 c 0.08,-0.85333 0.56,-1.97333 1.693334,-1.97333 1.186666,0 1.546666,1.09333 1.533333,1.97333 z"
       style="line-height:104.99999523%"
       id="path3694" />
    <path
       d="m 42.465627,122.34286 c 0,-2.32 -1.2,-3.06667 -2.293334,-3.06667 -1.053333,0 -1.773333,0.53333 -2.266666,1.34667 h -0.02667 c -0.306667,-0.82667 -1.013333,-1.34667 -1.946667,-1.34667 -1.12,0 -1.786666,0.62667 -2.146666,1.24 h -0.04 l -0.08,-1.08 h -1.333333 c 0.02667,0.62667 0.05333,1.24 0.05333,2.06667 v 5.28 h 1.52 v -4.45334 c 0,-1.16 0.786666,-1.78666 1.48,-1.78666 0.893333,0 1.28,0.78666 1.28,1.81333 v 4.42667 h 1.52 v -4.53334 c 0,-1.06666 0.72,-1.70666 1.426666,-1.70666 0.933334,0 1.333334,0.81333 1.333334,2.04 v 4.2 h 1.52 z"
       style="line-height:104.99999523%"
       id="path3696" />
    <path
       d="m 52.505625,125.39619 c -0.48,0.2 -1.04,0.34667 -1.853333,0.34667 -1.16,0 -2.186667,-0.62667 -2.226667,-2.28 h 4.666666 c 0.02667,-0.18667 0.04,-0.4 0.04,-0.65334 0,-1.81333 -0.826666,-3.53333 -2.893333,-3.53333 -2.08,0 -3.306666,1.74667 -3.306666,3.93333 0,2.24 1.28,3.72 3.493333,3.72 1,0 1.813333,-0.2 2.333333,-0.44 z m -4.066667,-3.04 c 0.08,-0.85333 0.56,-1.97333 1.693334,-1.97333 1.186666,0 1.546666,1.09333 1.533333,1.97333 z"
       style="line-height:104.99999523%"
       id="path3698" />
    <path
       d="m 58.625211,119.70286 c -0.4,-0.22667 -1.026667,-0.42667 -1.746667,-0.42667 -1.546667,0 -2.546666,0.97333 -2.546666,2.2 0,0.85333 0.573333,1.58667 1.879999,2.10667 0.88,0.37333 1.186667,0.68 1.186667,1.24 0,0.56 -0.4,0.96 -1.226667,0.96 -0.626666,0 -1.306666,-0.26667 -1.679999,-0.49334 l -0.346667,1.14667 c 0.493333,0.29333 1.226666,0.49333 2,0.49333 1.666666,0 2.746666,-0.84 2.746666,-2.25333 0,-1.06667 -0.64,-1.73333 -1.853333,-2.22667 -0.893333,-0.38666 -1.226667,-0.64 -1.226667,-1.14666 0,-0.49334 0.373334,-0.89334 1.066667,-0.89334 0.6,0 1.106667,0.22667 1.4,0.41334 z"
       style="line-height:104.99999523%"
       id="path3700" />
    <path
       d="m 61.793127,120.55619 -0.08,-1.12 h -1.359999 c 0.02667,0.65333 0.05333,1.41333 0.05333,2.37333 v 7.94667 h 1.546666 v -3.84 h 0.02667 c 0.36,0.6 1.08,1.01333 1.96,1.01333 1.546667,0 3.106667,-1.21333 3.106667,-3.90666 0,-2.28 -1.24,-3.74667 -2.893334,-3.74667 -1.026666,0 -1.826666,0.45333 -2.333333,1.28 z m 0.16,1.90667 c 0,-1.08 0.786667,-1.94667 1.706667,-1.94667 1.186667,0 1.813333,1.16 1.813333,2.56 0,1.52 -0.653333,2.62667 -1.853333,2.62667 -0.76,0 -1.666667,-0.56 -1.666667,-1.88 z"
       style="line-height:104.99999523%"
       id="path3702" />
    <path
       d="m 73.6775,125.39619 c -0.48,0.2 -1.04,0.34667 -1.853333,0.34667 -1.16,0 -2.186667,-0.62667 -2.226667,-2.28 h 4.666666 c 0.02667,-0.18667 0.04,-0.4 0.04,-0.65334 0,-1.81333 -0.826666,-3.53333 -2.893333,-3.53333 -2.08,0 -3.306666,1.74667 -3.306666,3.93333 0,2.24 1.28,3.72 3.493333,3.72 1,0 1.813333,-0.2 2.333333,-0.44 z m -4.066667,-3.04 c 0.08,-0.85333 0.56,-1.97333 1.693334,-1.97333 1.186666,0 1.546666,1.09333 1.533333,1.97333 z"
       style="line-height:104.99999523%"
       id="path3704" />
    <path
       d="m 80.530419,125.39619 c -0.346667,0.14667 -0.773333,0.29333 -1.386667,0.29333 -1.28,0 -2.226666,-0.96 -2.226666,-2.57333 0,-1.44 0.8,-2.61333 2.24,-2.61333 0.626666,0 1.053333,0.16 1.32,0.29333 l 0.306666,-1.18666 c -0.32,-0.16 -0.933333,-0.33334 -1.64,-0.33334 -2.36,0 -3.799999,1.68 -3.799999,3.90667 0,2.29333 1.386666,3.74666 3.506666,3.74666 0.853333,0 1.546667,-0.21333 1.893333,-0.37333 z"
       style="line-height:104.99999523%"
       id="path3706" />
    <path
       d="m 83.671877,119.42286 h -1.546666 v 7.36 h 1.546666 z"
       style="line-height:104.99999523%"
       id="path3708"
       inkscape:connector-curvature="0"
       sodipodi:nodetypes="ccccc" />
    <path
       d="m 84.880208,119.43619 v 1.16 h 0.986667 v 6.18667 h 1.546667 v -6.18667 h 1.6 v -1.16 h -1.613334 v -0.4 c 0,-0.98666 0.293334,-1.85333 1.253334,-1.85333 0.36,0 0.586666,0.0667 0.786666,0.14667 l 0.16,-1.18667 c -0.266666,-0.10667 -0.64,-0.2 -1.12,-0.2 -0.6,0 -1.28,0.18667 -1.786666,0.68 -0.826667,0.82667 -0.826667,2.01333 -0.826667,2.81333 z"
       style="line-height:104.99999523%"
       id="path3710" />
    <path
       d="m 91.773961,117.40953 c 0,-0.52 -0.36,-0.90667 -0.893334,-0.90667 -0.533333,0 -0.906666,0.38667 -0.906666,0.90667 0,0.49333 0.36,0.89333 0.893333,0.89333 0.56,0 0.906667,-0.4 0.906667,-0.89333 z m -0.133334,2.01333 h -1.546666 v 7.36 h 1.546666 z"
       style="line-height:104.99999523%"
       id="path3712" />
    <path
       d="m 98.368958,125.39619 c -0.346666,0.14667 -0.773333,0.29333 -1.386666,0.29333 -1.28,0 -2.226667,-0.96 -2.226667,-2.57333 0,-1.44 0.8,-2.61333 2.24,-2.61333 0.626667,0 1.053333,0.16 1.32,0.29333 l 0.306667,-1.18666 c -0.32,-0.16 -0.933334,-0.33334 -1.64,-0.33334 -2.36,0 -3.8,1.68 -3.8,3.90667 0,2.29333 1.386666,3.74666 3.506666,3.74666 0.853334,0 1.546667,-0.21333 1.893334,-0.37333 z"
       style="line-height:104.99999523%"
       id="path3714" />
    <path
       d="m 102.96375,119.27619 c -1.94667,0 -3.466667,1.4 -3.466667,3.88 0,2.37333 1.453337,3.77333 3.359997,3.77333 1.65334,0 3.44,-1.13333 3.44,-3.88 0,-2.25333 -1.32,-3.77333 -3.33333,-3.77333 z m 1.74667,3.81333 c 0,1.46667 -0.69334,2.68 -1.81334,2.68 -1.13333,0 -1.81333,-1.21333 -1.81333,-2.65333 0,-1.26667 0.50667,-2.68 1.82667,-2.68 1.29333,0 1.8,1.44 1.8,2.65333 z"
       style="line-height:104.99999523%"
       id="path3716" />
    <path
       d="m 116.88979,122.28952 c 0,-2.26666 -1.28,-3.01333 -2.42667,-3.01333 -1.10666,0 -1.88,0.62667 -2.22666,1.25333 h -0.04 l -0.08,-1.09333 h -1.34667 c 0.0267,0.62667 0.0533,1.25333 0.0533,2.06667 v 5.28 h 1.54667 v -4.42667 c 0,-1.17333 0.81333,-1.8 1.57333,-1.8 1.05334,0 1.4,0.88 1.4,1.92 v 4.30667 h 1.54667 z"
       style="line-height:104.99999523%"
       id="path3718" />
    <path
       d="m 123.96395,125.39619 c -0.48,0.2 -1.04,0.34667 -1.85333,0.34667 -1.16,0 -2.18667,-0.62667 -2.22667,-2.28 h 4.66667 c 0.0267,-0.18667 0.04,-0.4 0.04,-0.65334 0,-1.81333 -0.82667,-3.53333 -2.89333,-3.53333 -2.08,0 -3.30667,1.74667 -3.30667,3.93333 0,2.24 1.28,3.72 3.49333,3.72 1,0 1.81334,-0.2 2.33334,-0.44 z m -4.06666,-3.04 c 0.08,-0.85333 0.56,-1.97333 1.69333,-1.97333 1.18667,0 1.54667,1.09333 1.53333,1.97333 z"
       style="line-height:104.99999523%"
       id="path3720" />
    <path
       d="m 130.08354,119.70286 c -0.4,-0.22667 -1.02667,-0.42667 -1.74667,-0.42667 -1.54666,0 -2.54666,0.97333 -2.54666,2.2 0,0.85333 0.57333,1.58667 1.88,2.10667 0.88,0.37333 1.18666,0.68 1.18666,1.24 0,0.56 -0.4,0.96 -1.22666,0.96 -0.62667,0 -1.30667,-0.26667 -1.68,-0.49334 l -0.34667,1.14667 c 0.49333,0.29333 1.22667,0.49333 2,0.49333 1.66667,0 2.74667,-0.84 2.74667,-2.25333 0,-1.06667 -0.64,-1.73333 -1.85334,-2.22667 -0.89333,-0.38666 -1.22666,-0.64 -1.22666,-1.14666 0,-0.49334 0.37333,-0.89334 1.06666,-0.89334 0.6,0 1.10667,0.22667 1.4,0.41334 z"
       style="line-height:104.99999523%"
       id="path3722" />
    <path
       d="m 132.17146,119.43619 h -1.04 v 1.16 h 1.04 v 3.8 c 0,0.96 0.17333,1.57333 0.54666,1.97333 0.32,0.36 0.84,0.56 1.45334,0.56 0.52,0 0.93333,-0.0667 1.2,-0.17333 l -0.0533,-1.18667 c -0.18666,0.0533 -0.37333,0.0933 -0.68,0.0933 -0.65333,0 -0.93333,-0.44 -0.93333,-1.34667 v -3.72 h 1.74667 v -1.16 h -1.74667 v -1.81333 l -1.53333,0.48 z"
       style="line-height:104.99999523%"
       id="path3724" />
    <path
       d="m 141.93333,122.26286 c 0,-1.56 -0.6,-2.98667 -2.76,-2.98667 -0.98667,0 -1.85333,0.28 -2.37333,0.61333 l 0.32,1.02667 c 0.46666,-0.30667 1.13333,-0.50667 1.78666,-0.50667 1.48,0 1.48,1.09334 1.48,1.64 -2.52,0 -4.10666,0.90667 -4.10666,2.73334 0,1.13333 0.78666,2.14666 2.16,2.14666 0.92,0 1.64,-0.42666 2.05333,-1 h 0.04 l 0.10667,0.85334 h 1.4 c -0.0933,-0.48 -0.10667,-1.12 -0.10667,-1.74667 z m -1.50667,2.04 c 0,0.85333 -0.69333,1.49333 -1.53333,1.49333 -0.57333,0 -1.08,-0.36 -1.08,-1.17333 0,-1.30667 1.4,-1.53334 2.61333,-1.53334 z"
       style="line-height:104.99999523%"
       id="path3726" />
    <path
       d="m 2.1197942,133.43619 v 1.16 h 0.9866666 v 6.18667 h 1.5466667 v -6.18667 h 1.5999999 v -1.16 H 4.6397941 v -0.4 c 0,-0.98667 0.2933334,-1.85333 1.2533333,-1.85333 0.36,0 0.5866667,0.0667 0.7866667,0.14666 l 0.16,-1.18666 c -0.2666667,-0.10667 -0.64,-0.2 -1.12,-0.2 -0.6,0 -1.28,0.18666 -1.7866666,0.68 -0.8266667,0.82666 -0.8266667,2.01333 -0.8266667,2.81333 z"
       style="line-height:104.99999523%"
       id="path3728" />
    <path
       d="M 13.306877,133.43619 H 11.76021 v 4.54667 c 0,1.10666 -0.826666,1.66666 -1.533333,1.66666 -1.0133332,0 -1.3733332,-0.84 -1.3733332,-2.10666 v -4.12 H 7.3068772 v 4.37333 c 0,2.34667 1.1066666,3.13333 2.3733333,3.13333 1.1866665,0 1.9066665,-0.70666 2.2133335,-1.21333 h 0.04 l 0.08,1.06667 h 1.36 c -0.02667,-0.58667 -0.06667,-1.28 -0.06667,-2.10667 z"
       style="line-height:104.99999523%"
       id="path3730" />
    <path
       d="m 21.36896,136.28952 c 0,-2.26666 -1.28,-3.01333 -2.426666,-3.01333 -1.106667,0 -1.88,0.62667 -2.226667,1.25333 h -0.04 l -0.08,-1.09333 h -1.346666 c 0.02667,0.62667 0.05333,1.25333 0.05333,2.06667 v 5.28 h 1.546666 v -4.42667 c 0,-1.17333 0.813334,-1.8 1.573334,-1.8 1.053333,0 1.4,0.88 1.4,1.92 v 4.30667 h 1.546666 z"
       style="line-height:104.99999523%"
       id="path3732" />
    <path
       d="m 28.05646,139.39619 c -0.346667,0.14667 -0.773333,0.29333 -1.386667,0.29333 -1.28,0 -2.226666,-0.96 -2.226666,-2.57333 0,-1.44 0.8,-2.61333 2.24,-2.61333 0.626666,0 1.053333,0.16 1.32,0.29333 l 0.306666,-1.18667 c -0.32,-0.16 -0.933333,-0.33333 -1.64,-0.33333 -2.359999,0 -3.799999,1.68 -3.799999,3.90667 0,2.29333 1.386666,3.74666 3.506666,3.74666 0.853333,0 1.546667,-0.21333 1.893333,-0.37333 z"
       style="line-height:104.99999523%"
       id="path3734" />
    <path
       d="m 31.331252,131.40952 c 0,-0.52 -0.36,-0.90666 -0.893333,-0.90666 -0.533334,0 -0.906667,0.38666 -0.906667,0.90666 0,0.49334 0.36,0.89334 0.893333,0.89334 0.56,0 0.906667,-0.4 0.906667,-0.89334 z m -0.133333,2.01334 h -1.546667 v 7.36 h 1.546667 z"
       style="line-height:104.99999523%"
       id="path3736" />
    <path
       d="m 36.192918,133.27619 c -1.946667,0 -3.466667,1.4 -3.466667,3.88 0,2.37333 1.453334,3.77333 3.36,3.77333 1.653333,0 3.44,-1.13333 3.44,-3.88 0,-2.25333 -1.32,-3.77333 -3.333333,-3.77333 z m 1.746666,3.81333 c 0,1.46667 -0.693333,2.68 -1.813333,2.68 -1.133333,0 -1.813333,-1.21333 -1.813333,-2.65333 0,-1.26667 0.506667,-2.68 1.826667,-2.68 1.293333,0 1.799999,1.44 1.799999,2.65333 z"
       style="line-height:104.99999523%"
       id="path3738" />
    <path
       d="m 47.124166,136.28952 c 0,-2.26666 -1.279999,-3.01333 -2.426666,-3.01333 -1.106667,0 -1.88,0.62667 -2.226667,1.25333 h -0.04 l -0.08,-1.09333 h -1.346666 c 0.02667,0.62667 0.05333,1.25333 0.05333,2.06667 v 5.28 h 1.546667 v -4.42667 c 0,-1.17333 0.813333,-1.8 1.573333,-1.8 1.053333,0 1.4,0.88 1.4,1.92 v 4.30667 h 1.546666 z"
       style="line-height:104.99999523%"
       id="path3740" />
    <path
       d="m 54.225002,136.26286 c 0,-1.56 -0.6,-2.98667 -2.76,-2.98667 -0.986666,0 -1.853333,0.28 -2.373333,0.61333 l 0.32,1.02667 c 0.466667,-0.30667 1.133333,-0.50667 1.786667,-0.50667 1.48,0 1.48,1.09334 1.48,1.64 -2.52,0 -4.106667,0.90667 -4.106667,2.73334 0,1.13333 0.786667,2.14666 2.16,2.14666 0.92,0 1.64,-0.42666 2.053333,-1 h 0.04 l 0.106667,0.85334 h 1.4 c -0.09333,-0.48 -0.106667,-1.12 -0.106667,-1.74667 z m -1.506666,2.04 c 0,0.85333 -0.693334,1.49333 -1.533334,1.49333 -0.573333,0 -1.08,-0.36 -1.08,-1.17333 0,-1.30667 1.4,-1.53334 2.613334,-1.53334 z"
       style="line-height:104.99999523%"
       id="path3742" />
    <path
       d="m 57.708335,130.08952 h -1.546667 v 10.69334 h 1.546667 z"
       style="line-height:104.99999523%"
       id="path3744" />
    <path
       d="m 61.357293,131.40952 c 0,-0.52 -0.36,-0.90666 -0.893333,-0.90666 -0.533334,0 -0.906667,0.38666 -0.906667,0.90666 0,0.49334 0.36,0.89334 0.893333,0.89334 0.56,0 0.906667,-0.4 0.906667,-0.89334 z m -0.133333,2.01334 h -1.546667 v 7.36 h 1.546667 z"
       style="line-height:104.99999523%"
       id="path3746" />
    <path
       d="m 69.352294,130.08952 h -1.546667 v 4.17334 h -0.02667 c -0.32,-0.56 -1,-0.98667 -1.946667,-0.98667 -1.64,0 -3.066666,1.41333 -3.066666,3.90667 0,2.26666 1.266666,3.74666 2.933333,3.74666 1.04,0 1.84,-0.54666 2.226666,-1.29333 h 0.04 l 0.08,1.14667 h 1.36 c -0.02667,-0.50667 -0.05333,-1.29334 -0.05333,-1.96 z m -1.546667,7.68 c 0,1.02667 -0.653333,1.90667 -1.653333,1.90667 -1.173333,0 -1.813333,-1.10667 -1.813333,-2.54667 0,-1.45333 0.653333,-2.62666 1.84,-2.62666 0.866666,0 1.626666,0.70666 1.626666,1.90666 z"
       style="line-height:104.99999523%"
       id="path3748" />
    <path
       d="m 76.464581,136.26286 c 0,-1.56 -0.6,-2.98667 -2.76,-2.98667 -0.986667,0 -1.853334,0.28 -2.373334,0.61333 l 0.32,1.02667 c 0.466667,-0.30667 1.133334,-0.50667 1.786667,-0.50667 1.48,0 1.48,1.09334 1.48,1.64 -2.52,0 -4.106667,0.90667 -4.106667,2.73334 0,1.13333 0.786667,2.14666 2.16,2.14666 0.92,0 1.64,-0.42666 2.053334,-1 h 0.04 l 0.106666,0.85334 h 1.4 c -0.09333,-0.48 -0.106666,-1.12 -0.106666,-1.74667 z m -1.506667,2.04 c 0,0.85333 -0.693333,1.49333 -1.533333,1.49333 -0.573334,0 -1.08,-0.36 -1.08,-1.17333 0,-1.30667 1.4,-1.53334 2.613333,-1.53334 z"
       style="line-height:104.99999523%"
       id="path3750" />
    <path
       d="m 84.534583,130.08952 h -1.546666 v 4.17334 h -0.02667 c -0.32,-0.56 -1,-0.98667 -1.946667,-0.98667 -1.64,0 -3.066666,1.41333 -3.066666,3.90667 0,2.26666 1.266666,3.74666 2.933333,3.74666 1.04,0 1.84,-0.54666 2.226667,-1.29333 h 0.04 l 0.08,1.14667 h 1.359999 c -0.02667,-0.50667 -0.05333,-1.29334 -0.05333,-1.96 z m -1.546666,7.68 c 0,1.02667 -0.653334,1.90667 -1.653334,1.90667 -1.173333,0 -1.813333,-1.10667 -1.813333,-2.54667 0,-1.45333 0.653333,-2.62666 1.84,-2.62666 0.866667,0 1.626667,0.70666 1.626667,1.90666 z"
       style="line-height:104.99999523%"
       id="path3752" />
    <path
       d="m 91.620211,139.39619 c -0.48,0.2 -1.04,0.34667 -1.853334,0.34667 -1.16,0 -2.186666,-0.62667 -2.226666,-2.28 h 4.666666 c 0.02667,-0.18667 0.04,-0.4 0.04,-0.65334 0,-1.81333 -0.826666,-3.53333 -2.893333,-3.53333 -2.08,0 -3.306666,1.74667 -3.306666,3.93333 0,2.24 1.279999,3.72 3.493333,3.72 1,0 1.813333,-0.2 2.333333,-0.44 z m -4.066667,-3.04 c 0.08,-0.85333 0.56,-1.97333 1.693333,-1.97333 1.186667,0 1.546667,1.09333 1.533334,1.97333 z"
       style="line-height:104.99999523%"
       id="path3754" />
  </g>
  <flowRoot
     xml:space="preserve"
     id="flowRoot5919"
     style="fill:black;stroke:none;stroke-opacity:1;stroke-width:1px;stroke-linejoin:miter;stroke-linecap:butt;fill-opacity:1;font-family:'Adobe Fan Heiti Std';font-style:normal;font-weight:normal;font-size:13.33333333px;line-height:80.00000119%;letter-spacing:0px;word-spacing:0px;-inkscape-font-specification:'Adobe Fan Heiti Std';font-stretch:normal;font-variant:normal"><flowRegion
       id="flowRegion5921"><rect
         id="rect5923"
         width="36.769554"
         height="66.46804"
         x="31.819805"
         y="41.4487" /></flowRegion><flowPara
       id="flowPara5925" /></flowRoot>  <text
     xml:space="preserve"
     style="font-style:normal;font-variant:normal;font-weight:normal;font-stretch:normal;font-size:13.33333302px;line-height:80.00000119%;font-family:'Adobe Fan Heiti Std';-inkscape-font-specification:'Adobe Fan Heiti Std';letter-spacing:0px;word-spacing:0px;fill:#000000;fill-opacity:1;stroke:none;stroke-width:1px;stroke-linecap:butt;stroke-linejoin:miter;stroke-opacity:1"
     x="71.417786"
     y="146.80762"
     id="text5933"><tspan
       sodipodi:role="line"
       id="tspan5931"
       x="71.417786"
       y="157.20761" /></text>
  <path
     inkscape:connector-curvature="0"
     id="path6262"
     d="m 126.4139,102.3315 c -0.89333,-4.2e-4 -0.36,-4.2e-4 -0.89333,-4.2e-4 l -0.90667,1.79729 c 0.48437,-0.007 0.36,0.003 0.89333,0.003 0.9445,-1.84313 -0.27791,0.33441 0.90667,-1.79957 z"
     style="font-style:normal;font-variant:normal;font-weight:normal;font-stretch:normal;font-size:13.33333302px;line-height:104.99999523%;font-family:'Adobe Fan Heiti Std';-inkscape-font-specification:'Adobe Fan Heiti Std';letter-spacing:0px;word-spacing:0px;fill:#000000;fill-opacity:1;stroke:none;stroke-width:1px;stroke-linecap:butt;stroke-linejoin:miter;stroke-opacity:1"
     sodipodi:nodetypes="ccccc" />
  <path
     inkscape:connector-curvature="0"
     id="path6262-1"
     d="m 38.145793,36.248434 c -0.893334,-4.15e-4 -0.36,-4.15e-4 -0.893334,-4.15e-4 l -0.906666,1.797292 c 0.484375,-0.0067 0.36,0.0027 0.893333,0.0027 0.9445,-1.843131 -0.27791,0.33441 0.906667,-1.799577 z"
     style="font-style:normal;font-variant:normal;font-weight:normal;font-stretch:normal;font-size:13.33333302px;line-height:104.99999523%;font-family:'Adobe Fan Heiti Std';-inkscape-font-specification:'Adobe Fan Heiti Std';letter-spacing:0px;word-spacing:0px;fill:#000000;fill-opacity:1;stroke:none;stroke-width:1px;stroke-linecap:butt;stroke-linejoin:miter;stroke-opacity:1"
     sodipodi:nodetypes="ccccc" />
  <path
     sodipodi:nodetypes="ccccc"
     style="font-style:normal;font-variant:normal;font-weight:normal;font-stretch:normal;font-size:13.33333302px;line-height:104.99999523%;font-family:'Adobe Fan Heiti Std';-inkscape-font-specification:'Adobe Fan Heiti Std';letter-spacing:0px;word-spacing:0px;fill:#000000;fill-opacity:1;stroke:none;stroke-width:1px;stroke-linecap:butt;stroke-linejoin:miter;stroke-opacity:1"
     d="m 84.16427,116.29686 c -0.89333,-4.2e-4 -0.36,-4.2e-4 -0.89333,-4.2e-4 l -0.90667,1.79729 c 0.48437,-0.007 0.36,0.003 0.89333,0.003 0.9445,-1.84313 -0.27791,0.33441 0.90667,-1.79957 z"
     id="path3757"
     inkscape:connector-curvature="0" />
</svg>
