<?xml version="1.0" encoding="UTF-8" standalone="no"?>
<!-- Created with Inkscape (http://www.inkscape.org/) -->

<svg
   xmlns:dc="http://purl.org/dc/elements/1.1/"
   xmlns:cc="http://creativecommons.org/ns#"
   xmlns:rdf="http://www.w3.org/1999/02/22-rdf-syntax-ns#"
   xmlns:svg="http://www.w3.org/2000/svg"
   xmlns="http://www.w3.org/2000/svg"
   xmlns:sodipodi="http://sodipodi.sourceforge.net/DTD/sodipodi-0.dtd"
   xmlns:inkscape="http://www.inkscape.org/namespaces/inkscape"
   width="155.10001"
   height="156"
   viewBox="0 0 155.10001 156"
   id="svg5545"
   version="1.1"
   inkscape:version="0.91 r13725"
   sodipodi:docname="cartaz.svg">
  <defs
     id="defs5547">
    <clipPath
       clipPathUnits="userSpaceOnUse"
       id="clipPath6827">
      <path
         style="fill:#000000;fill-opacity:1;fill-rule:evenodd;stroke:#000000;stroke-width:1px;stroke-linecap:butt;stroke-linejoin:miter;stroke-opacity:1"
         d="m 13.637059,1087.2124 -9.5964488,-36.8705 c 0,0 39.3959488,-41.4163 42.4264068,-44.4467 3.030458,-3.0305 16.667517,-72.73102 16.667517,-72.73102 L 142.93659,920.0322 c 0,0 11.11167,26.76904 10.10152,31.31472 -1.01015,4.54569 -5.05076,39.39595 -5.55584,44.44672 -0.50507,5.05076 8.5863,41.92136 8.5863,41.92136 l 1.01015,6.0609 12.62691,3.5355 10.10152,23.2335 -14.64721,20.7082 -0.50508,35.8604 -9.59644,40.9111 -43.43656,15.6574 -71.720834,-17.1726 -22.728433,-15.6573 4.04061,-47.4772 -7.576144,-14.6472"
         id="path6829"
         inkscape:connector-curvature="0" />
    </clipPath>
  </defs>
  <sodipodi:namedview
     id="base"
     pagecolor="#ffffff"
     bordercolor="#666666"
     borderopacity="1.0"
     inkscape:pageopacity="0.0"
     inkscape:pageshadow="2"
     inkscape:zoom="3.959798"
     inkscape:cx="-3.7355548"
     inkscape:cy="85.837972"
     inkscape:document-units="px"
     inkscape:current-layer="layer1"
     showgrid="false"
     units="px"
     inkscape:window-width="1920"
     inkscape:window-height="1011"
     inkscape:window-x="0"
     inkscape:window-y="0"
     inkscape:window-maximized="1" />
  <metadata
     id="metadata5550">
    <rdf:RDF>
      <cc:Work
         rdf:about="">
        <dc:format>image/svg+xml</dc:format>
        <dc:type
           rdf:resource="http://purl.org/dc/dcmitype/StillImage" />
        <dc:title></dc:title>
      </cc:Work>
    </rdf:RDF>
  </metadata>
  <g
     inkscape:label="Layer 1"
     inkscape:groupmode="layer"
     id="layer1"
     transform="translate(0,-896.36218)">
    <text
       xml:space="preserve"
       style="font-style:normal;font-weight:normal;font-size:40px;line-height:125%;font-family:sans-serif;letter-spacing:0px;word-spacing:0px;fill:#000000;fill-opacity:1;stroke:none;stroke-width:1px;stroke-linecap:butt;stroke-linejoin:miter;stroke-opacity:1"
       x="30.052038"
       y="931.14386"
       id="text6093"
       sodipodi:linespacing="125%"><tspan
         sodipodi:role="line"
         id="tspan6095"
         x="30.052038"
         y="931.14386"
         style="font-style:normal;font-variant:normal;font-weight:normal;font-stretch:normal;font-size:30px;font-family:'Adobe Times';-inkscape-font-specification:'Adobe Times'">Cartaz</tspan></text>
    <rect
       style="fill:#ffffff;fill-opacity:0;stroke:#000000;stroke-width:2.18599486;stroke-linecap:round;stroke-linejoin:bevel;stroke-miterlimit:4;stroke-dasharray:none;stroke-opacity:1"
       id="rect6122"
       width="82.646515"
       height="106.13256"
       x="37.216106"
       y="938.05542"
       ry="13.253734" />
    <path
       style="fill:#000000"
       d="m 88.926701,981.96907 c -0.250871,-0.0468 -0.526251,-0.15792 -0.550662,-0.22154 -0.0391,-0.10188 -0.03137,-0.3179 0.01449,-0.40504 0.0223,-0.0424 0.06338,-0.19058 0.09129,-0.32937 0.105016,-0.52211 0.355915,-0.69476 1.015919,-0.69905 l 0.3714,-0.003 -0.03112,-0.85398 c -0.02483,-0.68124 -0.01677,-0.94821 0.03981,-1.31979 0.09681,-0.63572 0.156515,-1.73668 0.157579,-2.90576 10e-4,-1.11232 0.05366,-1.55577 0.292289,-2.46213 0.08673,-0.32939 0.267096,-1.0172 0.400826,-1.52845 0.202347,-0.77358 0.294069,-1.03783 0.546645,-1.57488 0.55253,-1.17484 0.730861,-2.00029 0.561441,-2.5987 -0.03429,-0.12122 -0.09366,-0.32999 -0.13188,-0.46395 -0.03819,-0.13395 -0.07309,-0.37279 -0.07742,-0.53075 -0.0061,-0.22363 -0.04105,-0.35707 -0.157772,-0.60281 -0.214339,-0.45133 -0.305493,-0.93573 -0.24709,-1.31304 0.08417,-0.54378 0.517665,-1.23679 0.951382,-1.52093 l 0.208303,-0.13646 0.0017,-0.44363 c 8.66e-4,-0.24399 -0.0098,-0.48673 -0.0239,-0.53942 -0.01559,-0.0582 -0.202527,-0.21303 -0.476298,-0.39455 -0.632052,-0.41906 -1.111959,-0.80155 -1.451605,-1.15692 -0.577561,-0.6043 -0.795675,-0.98981 -0.795675,-1.40631 0,-0.20226 0.26595,-1.94841 0.401916,-2.63886 0.09719,-0.49355 0.291884,-1.07287 0.360558,-1.07287 0.02331,0 0.01102,-0.0313 -0.02732,-0.0697 -0.09484,-0.0948 -0.09199,-0.11777 0.08898,-0.71515 0.206117,-0.6804 0.371626,-0.98457 0.694924,-1.27714 0.342641,-0.31008 0.991026,-0.64412 1.25024,-0.64412 0.293931,0 0.645718,-0.0787 0.895051,-0.20025 0.127342,-0.0621 0.304773,-0.11029 0.405902,-0.11029 0.161185,0 0.202622,-0.0251 0.402758,-0.24409 0.229823,-0.25147 0.405443,-0.57087 0.492119,-0.89505 0.0459,-0.17151 0.04122,-0.19433 -0.06218,-0.30592 -0.06149,-0.0663 -0.111755,-0.1583 -0.111755,-0.2044 0,-0.0461 -0.03057,-0.13042 -0.06789,-0.18741 -0.08736,-0.13333 -0.08782,-0.22003 -0.0052,-1.04671 0.08747,-0.87818 0.148636,-1.07636 0.440255,-1.42646 0.382893,-0.45967 0.545576,-0.59991 0.897978,-0.77408 l 0.336087,-0.1661 0.341862,0.0937 c 0.188022,0.0515 0.531513,0.10471 0.76331,0.11815 0.520098,0.0301 0.844503,0.1146 1.025536,0.26692 0.186749,0.15714 0.384426,0.25695 0.571036,0.28831 0.211394,0.0355 0.218824,0.14024 0.02598,0.36557 -0.0872,0.10188 -0.158561,0.22079 -0.158561,0.26423 0,0.0435 -0.02736,0.10455 -0.06079,0.13579 -0.05144,0.0481 -0.05092,0.0841 0.0035,0.23465 0.100661,0.27828 0.123454,0.80574 0.04598,1.06531 -0.06226,0.20876 -0.06001,0.24587 0.0381,0.62109 0.142584,0.54528 0.143718,0.53863 -0.09772,0.57483 -0.203107,0.0305 -0.203826,0.0312 -0.176088,0.17904 0.01593,0.0851 0.0087,0.16049 -0.01793,0.1767 -0.02511,0.0155 -0.04572,0.0847 -0.04572,0.15362 0,0.0848 -0.03594,0.1489 -0.110906,0.19804 -0.09954,0.0652 -0.110906,0.10233 -0.110906,0.36212 0,0.25877 -0.0129,0.30145 -0.121999,0.40257 -0.10358,0.096 -0.148784,0.10889 -0.299447,0.0851 -0.476817,-0.0752 -0.753888,-0.10545 -0.785669,-0.0858 -0.01923,0.0119 -0.03507,0.0787 -0.03507,0.1485 0,0.0977 0.03654,0.14946 0.159193,0.22525 0.102393,0.0633 0.140722,0.1098 0.107407,0.1304 -0.02866,0.0177 0.03135,0.0431 0.134115,0.0569 0.106844,0.0143 0.235667,0.0704 0.302945,0.13182 0.124814,0.11397 0.643648,0.34137 1.101587,0.48282 0.153201,0.0473 0.327938,0.13023 0.388314,0.18425 0.141371,0.12651 0.364751,0.6982 0.471734,1.2073 0.04616,0.21959 0.189,0.71423 0.317451,1.0992 0.2303,0.69018 0.23249,0.70177 0.157392,0.83281 -0.05473,0.0955 -0.06503,0.16209 -0.03663,0.23672 0.02174,0.0571 0.102268,0.40103 0.179008,0.76425 0.0767,0.36322 0.16141,0.73571 0.18817,0.82775 0.0519,0.17859 0.0674,0.18632 0.45545,0.22845 l 0.22181,0.0241 0.5989,-0.53383 c 0.32939,-0.29361 0.61226,-0.57774 0.62861,-0.63139 0.11199,-0.36761 0.16991,-0.60914 0.16991,-0.70844 0,-0.23062 0.32824,-0.19045 0.38045,0.0466 0.0146,0.0664 0.0306,0.1382 0.0357,0.15957 0.005,0.0214 0.77183,-0.64485 1.70409,-1.48049 1.31738,-1.18084 1.69502,-1.54253 1.69502,-1.62345 0,-0.0572 -0.0415,-0.18376 -0.0923,-0.28112 -0.0548,-0.10511 -0.0863,-0.23603 -0.0777,-0.32232 0.0117,-0.11655 -0.003,-0.1486 -0.0741,-0.16185 -0.22091,-0.0412 -0.24244,-0.13504 -0.10451,-0.45566 0.11322,-0.26319 0.28705,-0.3824 0.41799,-0.28665 0.074,0.0541 0.0759,0.0757 0.0211,0.24191 -0.0533,0.1617 -0.0519,0.19176 0.0133,0.26381 0.0405,0.0447 0.0736,0.10128 0.0736,0.12571 0,0.0244 0.12454,-0.0171 0.27675,-0.0922 0.2499,-0.12336 0.26473,-0.13801 0.15287,-0.15089 -0.20594,-0.0237 -0.23952,-0.17467 -0.10445,-0.46968 0.11627,-0.25399 0.26293,-0.36365 0.41054,-0.30701 0.0704,0.027 0.0702,0.0579 -0.002,0.36951 -0.0192,0.083 -3.5e-4,0.12868 0.0749,0.18154 0.0942,0.0662 0.11743,0.0627 0.36558,-0.0546 l 0.26498,-0.12521 -0.14679,-0.0294 c -0.0807,-0.0161 -0.15746,-0.0571 -0.1705,-0.0911 -0.0355,-0.0925 0.0735,-0.43887 0.17104,-0.54358 0.047,-0.0505 0.0698,-0.0921 0.0506,-0.0925 -0.0813,-0.002 0.10654,-0.0867 0.19272,-0.0874 0.1287,-8.6e-4 0.16102,0.1493 0.0722,0.33558 -0.0693,0.14533 -0.0682,0.15236 0.0395,0.25218 0.10955,0.10153 0.11277,0.1018 0.28495,0.0244 0.13082,-0.0588 0.14971,-0.0785 0.0759,-0.0794 -0.15474,-0.002 -0.20038,-0.13831 -0.12127,-0.36256 0.0703,-0.1993 0.26373,-0.43714 0.35549,-0.43714 0.12278,0 0.16821,0.12818 0.10902,0.30753 -0.0469,0.14237 -0.0461,0.1865 0.005,0.25933 0.0609,0.0869 0.0636,0.0867 0.28008,-0.0177 0.27822,-0.13428 0.43553,-0.1331 0.6712,0.005 0.28474,0.16687 0.37375,0.34333 0.37375,0.74097 0,0.28658 -0.0133,0.34301 -0.0998,0.42176 -0.16954,0.15442 -0.28256,0.19071 -0.59597,0.19133 -0.1663,3.6e-4 -0.34406,0.0118 -0.39502,0.0255 -0.0606,0.0163 -0.1898,0.19632 -0.37362,0.52065 -0.15453,0.27268 -0.34716,0.60059 -0.42806,0.72869 l -0.14709,0.23291 -0.34436,2.6e-4 c -0.60833,4.5e-4 -0.53383,-0.0507 -2.22084,1.52329 -0.84098,0.78462 -1.61584,1.49932 -1.72192,1.58823 -0.16273,0.13638 -0.18279,0.17002 -0.12838,0.21518 0.10228,0.0849 0.12276,0.31409 0.0471,0.5271 -0.0379,0.10676 -0.0689,0.24342 -0.0689,0.30369 0,0.21054 -0.20946,0.49609 -0.366,0.49893 -0.0466,8.5e-4 -0.0777,0.0356 -0.0777,0.087 0,0.11195 -0.11579,0.22498 -0.23049,0.22498 -0.05,0 -0.24581,0.0699 -0.43494,0.15527 -0.34571,0.1561 -0.61504,0.19145 -0.88476,0.11617 -0.0923,-0.0258 -0.16154,0.02 -0.46581,0.30788 -0.19657,0.18597 -0.46992,0.4389 -0.60746,0.56205 l -0.25005,0.22392 0.15764,0.27972 c 0.16593,0.29443 0.32823,0.46966 0.83903,0.90585 0.17144,0.14639 0.35181,0.32607 0.40081,0.39927 0.049,0.0732 0.16543,0.25072 0.25873,0.39449 0.17106,0.26363 0.67873,0.79047 1.82139,1.89019 0.51589,0.49648 0.69145,0.7013 1.02676,1.19779 0.22246,0.32939 0.54069,0.76858 0.70718,0.97597 0.57448,0.71563 1.00123,1.30248 1.08523,1.49237 0.0463,0.10478 0.10556,0.36583 0.1316,0.58013 0.0261,0.2143 0.1535,0.80886 0.28324,1.32125 0.12974,0.51239 0.24942,1.02145 0.26595,1.13125 0.0165,0.1098 0.117,0.65878 0.22326,1.21997 0.24195,1.27774 0.30869,1.67741 0.39634,2.37341 0.0861,0.6838 0.17867,1.03033 0.47013,1.76 0.32771,0.82046 0.57338,1.59016 0.57338,1.79647 0,0.0983 -0.0306,0.24329 -0.0681,0.32217 -0.0648,0.13656 -0.0617,0.15739 0.0636,0.4369 0.0724,0.16143 0.24276,0.42816 0.3785,0.59273 0.17704,0.21463 0.23116,0.30916 0.19145,0.33438 -0.041,0.026 -0.0375,0.0353 0.0134,0.0358 0.0378,4.4e-4 0.09,-0.0205 0.11591,-0.0465 0.0642,-0.0642 0.66108,-0.0674 0.88003,-0.004 0.44359,0.12692 0.65476,0.37678 0.634,0.75015 -0.009,0.15528 0.005,0.23953 0.0425,0.25369 0.06,0.023 0.0746,0.23738 0.0215,0.3168 -0.10395,0.15568 -0.48859,0.23223 -1.34967,0.26878 -0.59733,0.0251 -0.71415,0.009 -1.56358,-0.23699 -0.36791,-0.10596 -0.40611,-0.10932 -0.53236,-0.0467 -0.32724,0.16235 -0.38355,0.16858 -0.93454,0.10377 -0.7058,-0.0831 -0.75795,-0.10896 -0.79155,-0.39263 -0.0145,-0.12302 -0.014,-0.24385 8.6e-4,-0.26852 0.0152,-0.0247 0.0242,-0.1765 0.02,-0.33741 -0.007,-0.27616 0.0502,-0.56407 0.17418,-0.8719 0.0662,-0.16431 0.0217,-0.46321 -0.0688,-0.46321 -0.15758,0 -0.28576,-0.21891 -0.5455,-0.93162 -0.4859,-1.3332 -0.51472,-1.44911 -0.65382,-2.62944 -0.051,-0.43292 -0.11671,-0.74319 -0.22544,-1.06471 -0.21649,-0.64022 -0.35518,-1.21511 -0.43592,-1.80702 -0.0383,-0.2807 -0.13115,-0.71989 -0.20634,-0.97599 -0.14514,-0.49425 -0.17657,-0.99404 -0.0937,-1.49062 l 0.0378,-0.2265 -0.24744,-0.0468 c -0.26017,-0.0491 -0.97526,-0.42673 -1.51179,-0.79828 -0.1586,-0.10982 -0.60777,-0.52234 -0.99816,-0.91671 -0.39039,-0.39437 -0.91942,-0.89495 -1.17561,-1.11239 -0.256203,-0.21746 -0.596056,-0.51855 -0.755241,-0.66912 -0.159193,-0.15057 -0.409574,-0.3511 -0.556401,-0.44563 -0.306262,-0.19716 -0.718286,-0.39705 -0.750995,-0.36433 -0.01221,0.0122 -0.062,0.18029 -0.110602,0.37351 -0.04858,0.19322 -0.181605,0.54096 -0.295533,0.77275 -0.336044,0.68368 -0.925464,1.18719 -1.489131,1.27207 l -0.190013,0.0286 -0.69675,1.40144 c -0.383213,0.77079 -0.776429,1.55116 -0.873799,1.73415 -0.09738,0.183 -0.307449,0.60669 -0.466824,0.94153 -0.159375,0.33485 -0.356403,0.6842 -0.437848,0.77635 -0.126208,0.1428 -0.159107,0.22979 -0.222713,0.58899 -0.04105,0.2318 -0.123108,0.68096 -0.182358,0.99816 -0.05923,0.3172 -0.139812,0.89613 -0.179024,1.28652 -0.08521,0.8485 -0.165082,1.35391 -0.338182,2.14017 -0.0711,0.32312 -0.129638,0.72238 -0.129993,0.88725 -3.55e-4,0.16489 -0.03005,0.42462 -0.06607,0.5772 -0.062,0.26281 -0.333064,0.86585 -0.410855,0.91393 -0.01992,0.0123 -0.03204,0.19197 -0.02711,0.39929 0.0061,0.23394 -0.01082,0.40414 -0.04339,0.44866 -0.02884,0.0395 -0.210243,0.11214 -0.403114,0.16155 -0.192871,0.0494 -0.432075,0.13259 -0.531565,0.18486 -0.164265,0.0866 -0.258372,0.0959 -1.023785,0.10409 -0.46359,0.009 -0.892799,-4.3e-4 -0.953798,-0.0121 z"
       id="path6137"
       inkscape:connector-curvature="0" />
    <path
       style="fill:none;fill-rule:evenodd;stroke:#000000;stroke-width:1.26151538px;stroke-linecap:butt;stroke-linejoin:miter;stroke-opacity:1"
       d="m 43.310291,947.09831 36.618029,0"
       id="path6145"
       inkscape:connector-curvature="0" />
    <path
       inkscape:connector-curvature="0"
       id="path6153"
       d="m 43.310291,950.7902 36.618029,0"
       style="fill:none;fill-rule:evenodd;stroke:#000000;stroke-width:1.26151538px;stroke-linecap:butt;stroke-linejoin:miter;stroke-opacity:1" />
    <path
       inkscape:connector-curvature="0"
       id="path6155"
       d="m 43.310291,954.27699 36.618029,0"
       style="fill:none;fill-rule:evenodd;stroke:#000000;stroke-width:1.26151538px;stroke-linecap:butt;stroke-linejoin:miter;stroke-opacity:1" />
    <path
       style="fill:none;fill-rule:evenodd;stroke:#000000;stroke-width:1.26151538px;stroke-linecap:butt;stroke-linejoin:miter;stroke-opacity:1"
       d="m 43.310291,957.96887 36.618029,0"
       id="path6157"
       inkscape:connector-curvature="0" />
    <path
       inkscape:connector-curvature="0"
       id="path6159"
       d="m 43.310291,961.35309 36.618029,0"
       style="fill:none;fill-rule:evenodd;stroke:#000000;stroke-width:1.26151538px;stroke-linecap:butt;stroke-linejoin:miter;stroke-opacity:1" />
    <path
       style="fill:none;fill-rule:evenodd;stroke:#000000;stroke-width:1.26151538px;stroke-linecap:butt;stroke-linejoin:miter;stroke-opacity:1"
       d="m 43.310291,965.04498 36.618029,0"
       id="path6161"
       inkscape:connector-curvature="0" />
    <path
       style="fill:none;fill-rule:evenodd;stroke:#000000;stroke-width:1.26151538px;stroke-linecap:butt;stroke-linejoin:miter;stroke-opacity:1"
       d="m 43.310291,968.53177 36.618029,0"
       id="path6163"
       inkscape:connector-curvature="0" />
    <path
       inkscape:connector-curvature="0"
       id="path6165"
       d="m 43.310291,972.22364 36.618029,0"
       style="fill:none;fill-rule:evenodd;stroke:#000000;stroke-width:1.26151538px;stroke-linecap:butt;stroke-linejoin:miter;stroke-opacity:1" />
    <path
       inkscape:connector-curvature="0"
       id="path6167"
       d="m 43.310291,975.50535 36.618029,0"
       style="fill:none;fill-rule:evenodd;stroke:#000000;stroke-width:1.26151538px;stroke-linecap:butt;stroke-linejoin:miter;stroke-opacity:1" />
    <path
       style="fill:none;fill-rule:evenodd;stroke:#000000;stroke-width:1.26151538px;stroke-linecap:butt;stroke-linejoin:miter;stroke-opacity:1"
       d="m 43.310291,979.19722 36.618029,0"
       id="path6169"
       inkscape:connector-curvature="0" />
    <path
       style="fill:none;fill-rule:evenodd;stroke:#000000;stroke-width:1.26151538px;stroke-linecap:butt;stroke-linejoin:miter;stroke-opacity:1"
       d="m 43.310291,982.68401 36.618029,0"
       id="path6171"
       inkscape:connector-curvature="0" />
    <path
       style="fill:#000000"
       d="m 63.940976,1031.9588 c -0.350135,-0.098 -0.447252,-0.2633 -0.480894,-0.8174 -0.05866,-0.9662 -0.200979,-1.0259 -0.88875,-0.3733 -1.184859,1.1243 -1.54585,1.2092 -4.514154,1.0622 -2.54601,-0.1261 -2.708171,-0.1576 -3.403496,-0.6613 -0.401561,-0.2909 -0.950228,-0.8615 -1.219259,-1.2681 -0.26903,-0.4065 -0.551073,-0.7008 -0.626758,-0.654 -0.07568,0.047 -0.236382,0.587 -0.357102,1.2007 l -0.219492,1.1156 -0.718982,0 -0.718983,0 0.732041,-1.7991 c 0.649943,-1.5974 0.737538,-1.9972 0.781061,-3.565 0.0521,-1.8766 0.458611,-3.1565 1.280481,-4.0313 0.216112,-0.23 0.345224,-0.466 0.286913,-0.5243 -0.05831,-0.058 -0.406411,0.2874 -0.77356,0.7683 -0.691017,0.905 -1.220714,2.331 -1.220714,3.2863 l 0,0.5495 -1.475549,-0.1138 -1.47555,-0.1138 -0.366174,1.2438 c -0.201397,0.684 -0.463989,1.6396 -0.583537,2.1234 -0.196588,0.7956 -0.268355,0.8797 -0.750948,0.8797 -0.293473,0 -0.533588,-0.078 -0.533588,-0.1722 0,-0.095 0.333343,-1.0274 0.740763,-2.0729 0.407421,-1.0454 0.740764,-1.9797 0.740764,-2.076 0,-0.096 -0.143062,-0.2799 -0.317913,-0.4077 -0.43061,-0.3149 -0.383516,-1.7438 0.06836,-2.0742 0.418491,-0.3061 0.93122,-4.1161 0.582881,-4.3314 -0.163718,-0.1012 -0.154881,-0.3215 0.03611,-0.9002 0.198156,-0.6004 0.363889,-0.7884 0.765879,-0.8688 l 0.512999,-0.1026 -0.09874,-3.8214 c -0.0543,-2.1018 -0.126258,-3.9135 -0.159896,-4.0261 -0.04277,-0.1432 -0.580975,-0.1031 -1.790268,0.1333 -0.951012,0.1859 -1.97912,0.3379 -2.284685,0.3378 l -0.555572,0 0.719155,-0.4419 c 0.395537,-0.2431 1.295313,-0.6272 1.999503,-0.8536 1.009311,-0.3246 1.338316,-0.5238 1.554189,-0.9413 0.331972,-0.6419 0.703115,-0.6715 1.245426,-0.099 0.395194,0.4171 0.457954,0.4248 2.024399,0.2483 1.583901,-0.1784 1.614287,-0.1912 1.504011,-0.6306 -0.07444,-0.2966 0.01154,-0.6162 0.253953,-0.9441 0.330929,-0.4476 0.34862,-0.6214 0.182263,-1.7907 -0.348337,-2.4483 -0.170339,-3.6861 0.825381,-5.73953 0.197564,-0.4074 0.423467,-1.2625 0.502008,-1.9001 0.09705,-0.7878 0.251043,-1.2384 0.480638,-1.4063 0.369813,-0.2704 1.931943,-0.36 2.228014,-0.1277 0.194298,0.1524 2.500933,-0.1719 2.498907,-0.3513 -0.0011,-0.1064 -0.667139,-0.5146 -1.905035,-1.1677 -0.386355,-0.2038 -0.665886,-0.4072 -0.621179,-0.4519 0.0447,-0.045 0.821276,0.2904 1.725711,0.7446 l 1.644429,0.8259 1.66202,-0.2522 c 2.035757,-0.3089 1.939807,-0.3049 1.939807,-0.08 0,0.1018 -0.0625,0.1695 -0.138893,0.1504 -0.159484,-0.04 -1.632338,0.1976 -2.160508,0.3484 -0.332675,0.095 -0.327082,0.1223 0.08933,0.4364 0.275636,0.2079 0.520193,0.272 0.644392,0.1689 0.28752,-0.2386 1.50318,-9e-4 1.810651,0.3541 0.329375,0.3802 0.561875,1.3196 0.326606,1.3196 -0.360528,0 -0.412602,0.8244 -0.190824,3.02103 0.219086,2.1699 0.212564,2.2905 -0.169035,3.1264 -0.218301,0.4782 -0.396913,1.0275 -0.396913,1.2206 0,0.1931 -0.119381,0.7478 -0.265291,1.2326 -0.192917,0.641 -0.213077,0.9961 -0.0739,1.3016 0.159239,0.3495 0.09491,0.5532 -0.382875,1.2128 -0.315848,0.436 -0.57427,0.8517 -0.57427,0.9237 0,0.072 0.854194,0.2112 1.898208,0.3094 1.716366,0.1613 1.940516,0.1461 2.339862,-0.1587 0.638788,-0.4877 0.93212,-0.4187 1.227703,0.2887 0.174926,0.4187 0.524403,0.7625 1.055398,1.0384 1.133087,0.5887 2.647834,1.7302 2.403858,1.8115 -0.113589,0.038 -1.058889,-0.2268 -2.100667,-0.5882 -1.041779,-0.3614 -1.91789,-0.6334 -1.946915,-0.6043 -0.02903,0.029 -0.264934,1.3814 -0.524244,3.0052 -0.259308,1.6239 -0.511821,3.1349 -0.561138,3.3579 -0.07835,0.3543 -0.0019,0.4128 0.60551,0.463 0.659848,0.055 0.703948,0.099 0.867779,0.8797 0.125956,0.5999 0.113444,0.8418 -0.0463,0.8951 -0.150632,0.05 -0.218899,0.7052 -0.218899,2.1004 0,1.6314 0.05427,2.0483 0.277786,2.1341 0.359902,0.1381 0.37669,1.6083 0.02241,1.9626 -0.21704,0.217 -0.175554,0.5595 0.276368,2.2818 0.62444,2.3797 0.627442,2.4142 0.223914,2.569 -0.499317,0.1916 -0.73808,-0.2599 -0.972356,-1.8389 -0.120902,-0.8148 -0.263927,-1.7415 -0.317836,-2.0592 l -0.09801,-0.5777 -1.650642,0.094 -1.650643,0.094 0,-0.9817 c 0,-0.5399 -0.139954,-1.4256 -0.311011,-1.9683 -0.304978,-0.9675 -1.206753,-2.2867 -1.563108,-2.2867 -0.09924,0 0.0702,0.3125 0.376519,0.6944 1.150336,1.4344 1.493726,3.7659 0.853208,5.793 -0.314958,0.9968 -0.313138,1.0618 0.06777,2.4193 0.215286,0.7673 0.391428,1.4522 0.391428,1.5221 0,0.149 -0.291166,0.1383 -0.901719,-0.033 z m 0.872783,-12.1572 c 0.219816,-0.2198 -0.115361,-0.2061 -0.711828,0.029 l -0.648168,0.2555 0.634664,-0.097 c 0.349067,-0.053 0.675466,-0.1377 0.725332,-0.1876 z m 1.300898,-1.0606 0.761206,-0.6922 0.372348,-3.0441 c 0.523913,-4.2832 0.53948,-4.1225 -0.414713,-4.2815 -0.432884,-0.072 -1.319537,-0.2947 -1.970343,-0.4946 -0.875649,-0.2691 -1.218049,-0.3073 -1.317019,-0.1472 -0.07356,0.119 -0.14828,0.7927 -0.166053,1.497 l -0.03232,1.2805 0.57445,0 c 0.493375,0 1.168409,0.229 1.471844,0.4993 0.04861,0.043 0.18478,1.2196 0.302595,2.6139 l 0.21421,2.5351 -0.487786,0.5337 c -0.669082,0.732 -0.23722,0.5447 0.691579,-0.2999 z m -13.957542,-0.3264 c -0.0659,-0.2076 -0.03328,-0.3703 0.07424,-0.3703 0.118408,0 0.211757,-0.8318 0.243967,-2.1739 l 0.05218,-2.1738 0.553845,-0.2651 c 0.304617,-0.1458 0.946085,-0.3028 1.425485,-0.3489 0.762113,-0.073 0.88457,-0.1449 0.97454,-0.5704 0.26651,-1.2604 0.158008,-2.1851 -0.370277,-3.1557 -0.501534,-0.9215 -0.559702,-0.9663 -1.093673,-0.8422 -0.310182,0.072 -1.188985,0.2257 -1.952898,0.3412 l -1.388932,0.2101 0,4.1535 0,4.1535 0.578574,0.1499 c 0.444671,0.1152 0.604322,0.2786 0.689836,0.7062 0.06119,0.306 0.160629,0.5563 0.220968,0.5563 0.06034,0 0.05681,-0.1666 -0.0079,-0.3704 z m 6.944661,-3.8281 c 0,-0.2721 0.137919,-0.6471 0.306489,-0.8333 0.192291,-0.2125 0.224626,-0.3387 0.08678,-0.3387 -0.120837,0 -0.269408,0.1295 -0.330156,0.2878 -0.0944,0.246 -0.17165,0.2304 -0.531557,-0.1078 -0.255742,-0.2402 -0.737331,-0.424 -1.226372,-0.4679 l -0.805264,-0.072 0.789906,0.1709 c 1.090775,0.236 1.154599,0.2983 1.154599,1.1262 0,0.5253 0.07786,0.7298 0.277786,0.7298 0.177595,0 0.277787,-0.1784 0.277787,-0.4947 z m -0.341142,-0.061 c 0,-0.2546 0.04203,-0.3588 0.09341,-0.2315 0.05137,0.1274 0.05137,0.3357 0,0.463 -0.05137,0.1273 -0.09341,0.023 -0.09341,-0.2315 z m 2.563433,-7.4925 c 0,-0.2357 -0.525846,-0.074 -0.628354,0.1926 -0.218059,0.5683 -0.108167,0.6984 0.257972,0.3053 0.203711,-0.2186 0.370382,-0.4427 0.370382,-0.4979 z m -2.906433,0.074 c 0.06109,-0.2336 -0.0024,-0.421 -0.163592,-0.4828 -0.144877,-0.056 -0.263412,-0.2172 -0.263412,-0.3591 0,-0.1419 -0.08825,-0.258 -0.196121,-0.258 -0.107866,0 -0.150451,-0.074 -0.09463,-0.1642 0.05582,-0.09 -0.01656,-0.2621 -0.160813,-0.3819 -0.174155,-0.1445 -0.238776,-0.4783 -0.1923,-0.9932 0.08444,-0.9356 0.947126,-1.8332 2.091215,-2.176 0.638224,-0.1912 0.835041,-0.174 1.446167,0.1266 0.848292,0.4173 1.440845,1.3679 1.451029,2.3281 0.01019,0.9604 0.266181,0.9523 0.782867,-0.025 0.239198,-0.4523 0.551663,-0.9523 0.694371,-1.1111 0.144431,-0.1607 0.256121,-0.6582 0.251919,-1.122 -0.0062,-0.687 0.05124,-1.3961 0.253514,-3.12833 0.09201,-0.7879 -0.100383,-1.5558 -0.512463,-2.0456 -0.264958,-0.3148 -0.436245,-0.691 -0.380639,-0.8359 0.06582,-0.1716 -0.185843,-0.4317 -0.721135,-0.7454 l -0.822237,-0.4818 -1.52869,0.2878 c -1.399868,0.2635 -1.991668,0.5773 -1.991668,1.056 0,0.081 -0.283538,0.2658 -0.630084,0.4106 -0.542038,0.2265 -0.674377,0.4144 -0.947065,1.3451 -0.174339,0.595 -0.350578,1.3319 -0.391638,1.6374 -0.04106,0.30563 -0.161183,1.05563 -0.266936,1.66683 -0.155744,0.9 -0.137547,1.265 0.09577,1.9214 0.158427,0.4456 0.288047,0.9668 0.288047,1.1581 0,0.5625 1.336788,2.7539 1.679947,2.7539 0.07082,0 0.173683,-0.1718 0.228585,-0.3817 z m -0.646918,-14.00443 c 0.133684,-0.053 0.293413,-0.047 0.35495,0.015 0.06154,0.062 -0.04784,0.1053 -0.243063,0.097 -0.215739,-0.01 -0.25962,-0.053 -0.111887,-0.1119 z"
       id="path6831"
       inkscape:connector-curvature="0"
       sodipodi:nodetypes="cssscssscccssscsscccsssssscsccccscsccccssccsssssscscscsscssssssssssssscssccssccsssccscsscccsssssssccccccscscccscscscsscsscccsscsccccssccscsccccsssssssssscsccsscsssssscssssscsssssscsscccccc" />
    <rect
       style="fill:#000000;fill-opacity:0;stroke:#000000;stroke-width:1.39999998;stroke-linecap:round;stroke-linejoin:bevel;stroke-miterlimit:4;stroke-dasharray:none;stroke-opacity:1"
       id="rect6833"
       width="32.857143"
       height="40.357143"
       x="83.035706"
       y="944.505"
       ry="4.50389" />
    <rect
       ry="4.7194891"
       y="991.84265"
       x="43.051914"
       height="42.289021"
       width="32.824734"
       id="rect6847"
       style="fill:#000000;fill-opacity:0;stroke:#000000;stroke-width:1.43241;stroke-linecap:round;stroke-linejoin:bevel;stroke-miterlimit:4;stroke-dasharray:none;stroke-opacity:1" />
    <path
       inkscape:connector-curvature="0"
       id="path6849"
       d="m 79.861415,994.07603 36.089755,0"
       style="fill:none;fill-rule:evenodd;stroke:#000000;stroke-width:1.30653739px;stroke-linecap:butt;stroke-linejoin:miter;stroke-opacity:1" />
    <path
       style="fill:none;fill-rule:evenodd;stroke:#000000;stroke-width:1.30653739px;stroke-linecap:butt;stroke-linejoin:miter;stroke-opacity:1"
       d="m 79.861415,998.09411 36.089755,0"
       id="path6851"
       inkscape:connector-curvature="0" />
    <path
       style="fill:none;fill-rule:evenodd;stroke:#000000;stroke-width:1.30653739px;stroke-linecap:butt;stroke-linejoin:miter;stroke-opacity:1"
       d="m 79.861415,1001.889 36.089755,0"
       id="path6853"
       inkscape:connector-curvature="0" />
    <path
       inkscape:connector-curvature="0"
       id="path6855"
       d="m 79.861415,1005.907 36.089755,0"
       style="fill:none;fill-rule:evenodd;stroke:#000000;stroke-width:1.30653739px;stroke-linecap:butt;stroke-linejoin:miter;stroke-opacity:1" />
    <path
       style="fill:none;fill-rule:evenodd;stroke:#000000;stroke-width:1.30653739px;stroke-linecap:butt;stroke-linejoin:miter;stroke-opacity:1"
       d="m 79.861415,1009.5902 36.089755,0"
       id="path6857"
       inkscape:connector-curvature="0" />
    <path
       inkscape:connector-curvature="0"
       id="path6859"
       d="m 79.861415,1013.6083 36.089755,0"
       style="fill:none;fill-rule:evenodd;stroke:#000000;stroke-width:1.30653739px;stroke-linecap:butt;stroke-linejoin:miter;stroke-opacity:1" />
    <path
       inkscape:connector-curvature="0"
       id="path6861"
       d="m 79.861415,1017.4032 36.089755,0"
       style="fill:none;fill-rule:evenodd;stroke:#000000;stroke-width:1.30653739px;stroke-linecap:butt;stroke-linejoin:miter;stroke-opacity:1" />
    <path
       style="fill:none;fill-rule:evenodd;stroke:#000000;stroke-width:1.30653739px;stroke-linecap:butt;stroke-linejoin:miter;stroke-opacity:1"
       d="m 79.861415,1021.4212 36.089755,0"
       id="path6863"
       inkscape:connector-curvature="0" />
    <path
       style="fill:none;fill-rule:evenodd;stroke:#000000;stroke-width:1.30653739px;stroke-linecap:butt;stroke-linejoin:miter;stroke-opacity:1"
       d="m 79.861415,1024.9929 36.089755,0"
       id="path6865"
       inkscape:connector-curvature="0" />
    <path
       inkscape:connector-curvature="0"
       id="path6867"
       d="m 79.861415,1029.0109 36.089755,0"
       style="fill:none;fill-rule:evenodd;stroke:#000000;stroke-width:1.30653739px;stroke-linecap:butt;stroke-linejoin:miter;stroke-opacity:1" />
    <path
       inkscape:connector-curvature="0"
       id="path6869"
       d="m 79.861415,1032.8058 36.089755,0"
       style="fill:none;fill-rule:evenodd;stroke:#000000;stroke-width:1.30653739px;stroke-linecap:butt;stroke-linejoin:miter;stroke-opacity:1" />
  </g>
</svg>
