<?xml version="1.0" encoding="UTF-8" standalone="no"?>
<svg
   xmlns:dc="http://purl.org/dc/elements/1.1/"
   xmlns:cc="http://creativecommons.org/ns#"
   xmlns:rdf="http://www.w3.org/1999/02/22-rdf-syntax-ns#"
   xmlns:svg="http://www.w3.org/2000/svg"
   xmlns="http://www.w3.org/2000/svg"
   id="svg6919"
   version="1.1"
   viewBox="0 0 210 297"
   height="297mm"
   width="210mm">
  <defs
     id="defs6913" />
  <metadata
     id="metadata6916">
    <rdf:RDF>
      <cc:Work
         rdf:about="">
        <dc:format>image/svg+xml</dc:format>
        <dc:type
           rdf:resource="http://purl.org/dc/dcmitype/StillImage" />
        <dc:title></dc:title>
      </cc:Work>
    </rdf:RDF>
  </metadata>
  <g
     id="layer1">
    <path
       id="path4629"
       style="fill:#388e3c;fill-opacity:1;stroke:#000000;stroke-width:2.49616766;stroke-miterlimit:4;stroke-dasharray:none;stroke-opacity:1"
       d="m -233.31587,35.527367 a 29.161212,27.766667 0 0 1 -29.16119,27.766667 29.161212,27.766667 0 0 1 -29.16121,-27.766667 29.161212,27.766667 0 0 1 29.16121,-27.766669 29.161212,27.766667 0 0 1 29.16119,27.766669 z m -13.68204,255.336143 c 12.80931,0 12.82954,-7.86917 12.82954,-19.66236 l 0,-176.964496 c 0,0 -2.45155,-14.978549 -17.15255,-15.340071 l -11.29561,0 -11.2956,0 c -14.70102,0.361522 -17.15259,15.340071 -17.15259,15.340071 l 0,176.964496 c 0,11.79319 0.0202,19.66236 12.82958,19.66236 l 15.61861,0 z" />
    <g
       id="text6099"
       style="font-style:normal;font-weight:normal;font-size:408.98669434px;line-height:125%;font-family:sans-serif;letter-spacing:0px;word-spacing:0px;fill:#388e3c;fill-opacity:1;stroke:#000000;stroke-width:2.49600002;stroke-linecap:butt;stroke-linejoin:miter;stroke-opacity:1;stroke-miterlimit:4;stroke-dasharray:none"
       transform="scale(0.91701029,1.0905003)">
      <path
         id="path4150"
         d="m 147.79061,35.561033 q 0,10.099677 -7.00118,17.228861 -8.23665,7.723282 -21.82714,7.723282 -13.17867,0 -21.003496,-7.426233 -7.412996,-7.426233 -7.412996,-17.52591 0,-10.099677 7.412996,-17.525909 7.824826,-7.426233 21.415316,-7.426233 13.5905,0 21.0035,7.426233 7.413,7.426232 7.413,17.525909 z"
         style="font-style:normal;font-variant:normal;font-weight:normal;font-stretch:normal;font-family:'Shifty Chica';-inkscape-font-specification:'Shifty Chica';fill:#388e3c;fill-opacity:1;stroke:#000000;stroke-width:2.13456964;stroke-miterlimit:4;stroke-dasharray:none;stroke-opacity:1" />
      <path
         id="path4145"
         d="m 164.77022,257.83198 -90.795049,0 0,-11.04264 q 11.860614,-0.40899 14.314534,-2.86291 2.45392,-2.8629 2.45392,-15.13251 l 0.408987,-98.1568 q 0,-12.2696 -2.862907,-16.76846 -4.089867,-6.1348 -15.541494,-5.72581 l 0,-11.451627 q 45.806509,0 74.844569,-17.177442 l 0,149.280139 q 0,12.26961 2.45392,15.13251 2.8629,2.45392 14.72352,2.86291 l 0,11.04264 z"
         style="font-style:normal;font-variant:normal;font-weight:normal;font-stretch:normal;font-family:'Shifty Chica';-inkscape-font-specification:'Shifty Chica';fill:#388e3c;fill-opacity:1;stroke:#000000;stroke-opacity:1;stroke-width:2.49600002;stroke-miterlimit:4;stroke-dasharray:none" />
    </g>
    <path
       id="rect4624"
       d="m 119.838,103.33099 6.21065,-3.706138 0,164.954328 -6.21065,0 z"
       style="opacity:0.57700004;fill:#c8e6c9;fill-opacity:1;stroke:none;stroke-width:1.60524225;stroke-miterlimit:4;stroke-dasharray:none;stroke-opacity:1" />
    <path
       id="rect4624-5"
       d="m 115.81423,20.828431 3.60467,-2.269417 c 9.82068,8.41881 6.40489,32.416651 2.13141,39.335986 l -4.40944,-1.946266 c 4.99143,-7.547549 6.16244,-27.559113 -1.32664,-35.120303 z"
       style="opacity:0.57700004;fill:#c8e6c9;fill-opacity:1;stroke:none;stroke-width:0.63430899;stroke-miterlimit:4;stroke-dasharray:none;stroke-opacity:1" />
  </g>
</svg>
