<?xml version="1.0" encoding="UTF-8" standalone="no"?>
<svg
   xmlns:dc="http://purl.org/dc/elements/1.1/"
   xmlns:cc="http://creativecommons.org/ns#"
   xmlns:rdf="http://www.w3.org/1999/02/22-rdf-syntax-ns#"
   xmlns:svg="http://www.w3.org/2000/svg"
   xmlns="http://www.w3.org/2000/svg"
   xmlns:xlink="http://www.w3.org/1999/xlink"
   width="44.764484mm"
   height="44.966061mm"
   viewBox="0 0 158.61432 159.32856"
   id="svg2"
   version="1.1">
  <defs
     id="defs4">
    <linearGradient
       id="linearGradient5133">
      <stop
         id="stop5135"
         offset="0"
         style="stop-color:#000000;stop-opacity:1;" />
      <stop
         id="stop5137"
         offset="1"
         style="stop-color:#000000;stop-opacity:0;" />
    </linearGradient>
    <linearGradient
       gradientTransform="matrix(1.0011417,0,0,0.78024611,-149.35146,-93.585947)"
       gradientUnits="userSpaceOnUse"
       y2="254.23367"
       x2="172.67534"
       y1="294.30524"
       x1="172.48627"
       id="linearGradient5139"
       xlink:href="#linearGradient5133" />
    <linearGradient
       gradientUnits="userSpaceOnUse"
       y2="254.23367"
       x2="172.67534"
       y1="294.30524"
       x1="172.48627"
       id="linearGradient5139-7"
       xlink:href="#linearGradient5133"
       gradientTransform="matrix(1.0011417,0,0,0.78024611,-126.30497,-93.599887)" />
    <linearGradient
       y2="254.23367"
       x2="172.67534"
       y1="294.30524"
       x1="172.48627"
       gradientTransform="matrix(1.0011417,0,0,0.78024611,-103.35982,-93.599887)"
       gradientUnits="userSpaceOnUse"
       id="linearGradient5243"
       xlink:href="#linearGradient5133" />
  </defs>
  <metadata
     id="metadata7">
    <rdf:RDF>
      <cc:Work
         rdf:about="">
        <dc:format>image/svg+xml</dc:format>
        <dc:type
           rdf:resource="http://purl.org/dc/dcmitype/StillImage" />
        <dc:title></dc:title>
      </cc:Work>
    </rdf:RDF>
  </metadata>
  <g
     transform="translate(-136.75801,-144.40671)"
     id="g913">
    <g
       id="g857"
       transform="translate(-0.30369683,0.30369683)">
      <path
         id="path842"
         d="m 267.62193,207.20644 0,55.11255 c 0,5.29226 -5.34659,9.55284 -11.98788,9.55284 -6.6413,0 -11.98791,-4.26058 -11.98791,-9.55284 l 0,-54.74513 z"
         style="opacity:0.91000001;fill:#1900ff;fill-opacity:0.35294118;stroke:#15069f;stroke-width:1.92084801;stroke-miterlimit:4;stroke-dasharray:none;stroke-opacity:1" />
      <path
         id="rect837"
         d="m 244.10721,230.72112 0,-44.45744 c 0,-5.29226 5.34661,-9.55284 11.98789,-9.55284 6.6413,0 11.9879,4.26058 11.9879,9.55284 l 0,44.45744 z"
         style="opacity:1;fill:#cb0000;fill-opacity:0.3535912;stroke:#ce0000;stroke-width:1.92084801;stroke-miterlimit:4;stroke-dasharray:none;stroke-opacity:1" />
      <rect
         ry="20.615623"
         y="198.87646"
         x="230.86731"
         height="50.680077"
         width="49.821091"
         id="rect835"
         style="opacity:1;fill:#ffffff;fill-opacity:1;stroke:#000000;stroke-width:1.41732287;stroke-miterlimit:4;stroke-dasharray:none;stroke-opacity:1" />
    </g>
    <text
       xml:space="preserve"
       style="font-style:normal;font-variant:normal;font-weight:normal;font-stretch:normal;font-size:20.68346977px;line-height:125%;font-family:'Adobe Fan Heiti Std';-inkscape-font-specification:'Adobe Fan Heiti Std';letter-spacing:0px;word-spacing:0px;fill:#000000;fill-opacity:1;stroke:none;stroke-width:1.10804296px;stroke-linecap:butt;stroke-linejoin:miter;stroke-opacity:1"
       x="278.18088"
       y="196.77139"
       id="text861"
       transform="scale(0.84608632,1.1819125)"><tspan
         id="tspan859"
         x="278.18088"
         y="196.77139"
         style="font-style:normal;font-variant:normal;font-weight:normal;font-stretch:normal;font-size:20.68346977px;font-family:'Adobe Fan Heiti Std';-inkscape-font-specification:'Adobe Fan Heiti Std';stroke-width:1.10804296px">21ºC</tspan></text>
    <text
       xml:space="preserve"
       style="font-style:normal;font-variant:normal;font-weight:normal;font-stretch:normal;font-size:16.0205574px;line-height:125%;font-family:'Adobe Fan Heiti Std';-inkscape-font-specification:'Adobe Fan Heiti Std';letter-spacing:0px;word-spacing:0px;fill:#000000;fill-opacity:1;stroke:none;stroke-width:0.85824406px;stroke-linecap:butt;stroke-linejoin:miter;stroke-opacity:1"
       x="263.21292"
       y="184.2296"
       id="text861-3"
       transform="scale(0.94182196,1.0617718)"><tspan
         id="tspan859-8"
         x="263.21292"
         y="184.2296"
         style="font-style:normal;font-variant:normal;font-weight:normal;font-stretch:normal;font-size:16.0205574px;font-family:'Adobe Fan Heiti Std';-inkscape-font-specification:'Adobe Fan Heiti Std';stroke-width:0.85824406px">23</tspan></text>
    <text
       xml:space="preserve"
       style="font-style:normal;font-variant:normal;font-weight:normal;font-stretch:normal;font-size:16.0205574px;line-height:125%;font-family:'Adobe Fan Heiti Std';-inkscape-font-specification:'Adobe Fan Heiti Std';letter-spacing:0px;word-spacing:0px;fill:#000000;fill-opacity:1;stroke:none;stroke-width:0.85824406px;stroke-linecap:butt;stroke-linejoin:miter;stroke-opacity:1"
       x="262.70126"
       y="250.03249"
       id="text861-3-5"
       transform="scale(0.94182196,1.0617718)"><tspan
         id="tspan859-8-0"
         x="262.70126"
         y="250.03249"
         style="font-style:normal;font-variant:normal;font-weight:normal;font-stretch:normal;font-size:16.0205574px;font-family:'Adobe Fan Heiti Std';-inkscape-font-specification:'Adobe Fan Heiti Std';stroke-width:0.85824406px">17</tspan></text>
    <text
       xml:space="preserve"
       style="font-style:normal;font-variant:normal;font-weight:normal;font-stretch:normal;font-size:11.31344986px;line-height:125%;font-family:'Adobe Fan Heiti Std';-inkscape-font-specification:'Adobe Fan Heiti Std';letter-spacing:0px;word-spacing:0px;fill:#000000;fill-opacity:1;stroke:none;stroke-width:1.10804296px;stroke-linecap:butt;stroke-linejoin:miter;stroke-opacity:1"
       x="187.71443"
       y="215.73955"
       id="text861-8"
       transform="scale(0.80111048,1.2482673)"><tspan
         id="tspan859-5"
         x="187.71443"
         y="215.73955"
         style="font-style:normal;font-variant:normal;font-weight:normal;font-stretch:normal;font-size:11.31344986px;font-family:'Adobe Fan Heiti Std';-inkscape-font-specification:'Adobe Fan Heiti Std';stroke-width:1.10804296px">21ºC</tspan></text>
    <text
       transform="scale(0.80111047,1.2482673)"
       id="text5325"
       y="215.73955"
       x="216.73019"
       style="font-style:normal;font-variant:normal;font-weight:normal;font-stretch:normal;font-size:11.31344986px;line-height:125%;font-family:'Adobe Fan Heiti Std';-inkscape-font-specification:'Adobe Fan Heiti Std';letter-spacing:0px;word-spacing:0px;fill:#000000;fill-opacity:1;stroke:none;stroke-width:1.10804296px;stroke-linecap:butt;stroke-linejoin:miter;stroke-opacity:1"
       xml:space="preserve"><tspan
         style="font-style:normal;font-variant:normal;font-weight:normal;font-stretch:normal;font-size:11.31344986px;font-family:'Adobe Fan Heiti Std';-inkscape-font-specification:'Adobe Fan Heiti Std';stroke-width:1.10804296px"
         y="215.73955"
         x="216.73019"
         id="tspan5327">20ºC</tspan></text>
    <text
       xml:space="preserve"
       style="font-style:normal;font-variant:normal;font-weight:normal;font-stretch:normal;font-size:11.31344986px;line-height:125%;font-family:'Adobe Fan Heiti Std';-inkscape-font-specification:'Adobe Fan Heiti Std';letter-spacing:0px;word-spacing:0px;fill:#000000;fill-opacity:1;stroke:none;stroke-width:1.10804296px;stroke-linecap:butt;stroke-linejoin:miter;stroke-opacity:1"
       x="245.22157"
       y="215.73955"
       id="text5329"
       transform="scale(0.80111047,1.2482673)"><tspan
         id="tspan5331"
         x="245.22157"
         y="215.73955"
         style="font-style:normal;font-variant:normal;font-weight:normal;font-stretch:normal;font-size:11.31344986px;font-family:'Adobe Fan Heiti Std';-inkscape-font-specification:'Adobe Fan Heiti Std';stroke-width:1.10804296px">18ºC</tspan></text>
  </g>
  <text
     id="text901"
     y="24.570108"
     x="31.732279"
     style="font-style:normal;font-weight:normal;font-size:16.36194992px;line-height:125%;font-family:sans-serif;letter-spacing:0px;word-spacing:0px;fill:#000000;fill-opacity:1;stroke:none;stroke-width:0.40904877px;stroke-linecap:butt;stroke-linejoin:miter;stroke-opacity:1"
     xml:space="preserve"><tspan
       style="stroke-width:0.40904877px"
       y="24.570108"
       x="31.732279"
       id="tspan899">Seg, 19 Mar</tspan></text>
  <g
     transform="translate(-149.1283,-151.25403)"
     id="g4457">
    <path
       style="fill:none;fill-rule:evenodd;stroke:#ef6a00;stroke-width:0.90777802;stroke-linecap:butt;stroke-linejoin:miter;stroke-miterlimit:4;stroke-dasharray:none;stroke-opacity:1"
       d="m 199.04475,184.73555 c 0,0 -1.58428,1.48567 -1.27009,3.41135 0.46011,2.81983 2.87188,1.61582 3.28423,3.54184 0.4465,2.08571 -1.15503,3.5654 -1.15503,3.5654"
       id="path3353" />
    <g
       transform="matrix(0.66020213,0,0,0.66020213,66.718491,61.590428)"
       id="g4439">
      <circle
         r="22.999975"
         cy="227.17645"
         cx="200.84485"
         id="path3351"
         style="fill:#ffbc00;fill-opacity:1;fill-rule:evenodd;stroke:#e36300;stroke-width:1px;stroke-linecap:butt;stroke-linejoin:miter;stroke-opacity:1" />
      <path
         style="fill:none;fill-rule:evenodd;stroke:#ef6a00;stroke-width:1.37500012;stroke-linecap:butt;stroke-linejoin:miter;stroke-miterlimit:4;stroke-dasharray:none;stroke-opacity:1"
         d="m 202.13199,267.51031 c 0,0 2.38149,-2.26958 1.8821,-5.18246 -0.7313,-4.26541 -4.36958,-2.41233 -5.01764,-5.32452 -0.70175,-3.15365 1.70594,-5.4144 1.70594,-5.4144"
         id="path3590" />
      <path
         style="fill:none;fill-rule:evenodd;stroke:#ef6a00;stroke-width:1.37500012;stroke-linecap:butt;stroke-linejoin:miter;stroke-miterlimit:4;stroke-dasharray:none;stroke-opacity:1"
         d="m 160.62289,227.64137 c 0,0 2.24635,2.40341 5.16395,1.93231 4.2723,-0.68986 2.45463,-4.34596 5.37297,-4.96571 3.16031,-0.67111 5.39758,1.75841 5.39758,1.75841"
         id="path3592" />
      <path
         id="path3594"
         d="m 241.60949,226.07591 c 0,0 -2.26565,-2.38523 -5.17935,-1.89064 -4.26661,0.72426 -2.41953,4.36559 -5.33279,5.00885 -3.1548,0.69654 -5.41158,-1.71487 -5.41158,-1.71487"
         style="fill:none;fill-rule:evenodd;stroke:#ef6a00;stroke-width:1.37500012;stroke-linecap:butt;stroke-linejoin:miter;stroke-miterlimit:4;stroke-dasharray:none;stroke-opacity:1" />
      <path
         style="fill:none;fill-rule:evenodd;stroke:#ef6a00;stroke-width:1.37500012;stroke-linecap:butt;stroke-linejoin:miter;stroke-miterlimit:4;stroke-dasharray:none;stroke-opacity:1"
         d="m 172.55837,198.30563 c 0,0 -0.17024,3.28535 2.19438,5.05814 3.4626,2.59594 4.83205,-1.25056 7.30419,0.41958 2.67709,1.80863 2.48175,5.10556 2.48175,5.10556"
         id="path3596" />
      <path
         id="path3598"
         d="m 229.91077,255.50687 c 0,0 0.14376,-3.28661 -2.23507,-5.0403 -3.4834,-2.56796 -4.82181,1.28945 -7.30733,-0.3607 -2.69158,-1.78701 -2.52281,-5.08542 -2.52281,-5.08542"
         style="fill:none;fill-rule:evenodd;stroke:#ef6a00;stroke-width:1.37500012;stroke-linecap:butt;stroke-linejoin:miter;stroke-miterlimit:4;stroke-dasharray:none;stroke-opacity:1" />
      <path
         id="path3600"
         d="m 172.35612,255.53535 c 0,0 3.28506,0.17567 5.06176,-2.18604 2.60165,-3.45831 -1.24259,-4.8341 0.43162,-7.30348 1.81304,-2.6741 5.10965,-2.47332 5.10965,-2.47332"
         style="fill:none;fill-rule:evenodd;stroke:#ef6a00;stroke-width:1.37500012;stroke-linecap:butt;stroke-linejoin:miter;stroke-miterlimit:4;stroke-dasharray:none;stroke-opacity:1" />
      <path
         style="fill:none;fill-rule:evenodd;stroke:#ef6a00;stroke-width:1.37500012;stroke-linecap:butt;stroke-linejoin:miter;stroke-miterlimit:4;stroke-dasharray:none;stroke-opacity:1"
         d="m 229.65188,198.27737 c 0,0 -3.28637,-0.14918 -5.04398,2.22676 -2.5737,3.47916 1.2815,4.82392 -0.37275,7.30673 -1.79145,2.68861 -5.08957,2.51441 -5.08957,2.51441"
         id="path3602" />
      <path
         style="fill:none;fill-rule:evenodd;stroke:#ef6a00;stroke-width:1.37500012;stroke-linecap:butt;stroke-linejoin:miter;stroke-miterlimit:4;stroke-dasharray:none;stroke-opacity:1"
         d="m 183.85264,190.38562 c 0,0 -1.26298,3.03766 0.3695,5.50125 2.39052,3.60748 4.97149,0.44369 6.73972,2.84665 1.9148,2.60221 0.62427,5.64236 0.62427,5.64236"
         id="path3604" />
      <path
         id="path3606"
         d="m 218.68067,263.51762 c 0,0 1.23847,-3.04773 -0.41381,-5.49809 -2.4195,-3.58811 -4.9749,-0.40362 -6.76243,-2.79225 -1.93571,-2.5867 -0.66972,-5.63715 -0.66972,-5.63715"
         style="fill:none;fill-rule:evenodd;stroke:#ef6a00;stroke-width:1.37500012;stroke-linecap:butt;stroke-linejoin:miter;stroke-miterlimit:4;stroke-dasharray:none;stroke-opacity:1" />
      <path
         id="path3608"
         d="m 164.45476,244.22803 c 0,0 3.03556,1.268 5.50185,-0.36043 3.61141,-2.38455 0.45189,-4.97075 2.85776,-6.735 2.60536,-1.91051 5.64338,-0.61497 5.64338,-0.61497"
         style="fill:none;fill-rule:evenodd;stroke:#ef6a00;stroke-width:1.37500012;stroke-linecap:butt;stroke-linejoin:miter;stroke-miterlimit:4;stroke-dasharray:none;stroke-opacity:1" />
      <path
         style="fill:none;fill-rule:evenodd;stroke:#ef6a00;stroke-width:1.37500012;stroke-linecap:butt;stroke-linejoin:miter;stroke-miterlimit:4;stroke-dasharray:none;stroke-opacity:1"
         d="m 237.6441,209.52066 c 0,0 -3.04569,-1.24349 -5.49876,0.40475 -3.5921,2.41358 -0.41183,4.97422 -2.80341,6.75782 -2.58989,1.93143 -5.63825,0.66042 -5.63825,0.66042"
         id="path3610" />
      <path
         id="path3612"
         d="m 163.28085,212.57896 c 0,0 1.19486,3.0651 4.0791,3.70959 4.2235,0.94372 3.89132,-3.12575 6.8314,-2.61903 3.18383,0.54875 4.36057,3.63472 4.36057,3.63472"
         style="fill:none;fill-rule:evenodd;stroke:#ef6a00;stroke-width:1.37500012;stroke-linecap:butt;stroke-linejoin:miter;stroke-miterlimit:4;stroke-dasharray:none;stroke-opacity:1" />
      <path
         style="fill:none;fill-rule:evenodd;stroke:#ef6a00;stroke-width:1.37500012;stroke-linecap:butt;stroke-linejoin:miter;stroke-miterlimit:4;stroke-dasharray:none;stroke-opacity:1"
         d="m 239.07298,241.15924 c 0,0 -1.21952,-3.05536 -4.10887,-3.67659 -4.23095,-0.90967 -3.86599,3.15699 -6.81006,2.67399 -3.18816,-0.52309 -4.38973,-3.59948 -4.38973,-3.59948"
         id="path3614" />
      <path
         style="fill:none;fill-rule:evenodd;stroke:#ef6a00;stroke-width:1.37500012;stroke-linecap:butt;stroke-linejoin:miter;stroke-miterlimit:4;stroke-dasharray:none;stroke-opacity:1"
         d="m 186.61413,264.8364 c 0,0 3.06707,-1.18979 3.71631,-4.07299 0.9507,-4.22192 -3.11932,-3.89645 -2.60776,-6.83569 0.55401,-3.18292 3.64192,-4.35457 3.64192,-4.35457"
         id="path3616" />
      <path
         id="path3618"
         d="m 215.31939,189.09151 c 0,0 -3.05738,1.21448 -3.68337,4.1028 -0.91665,4.22945 3.15061,3.87119 2.66276,6.81447 -0.52836,3.18728 -3.60672,4.38378 -3.60672,4.38378"
         style="fill:none;fill-rule:evenodd;stroke:#ef6a00;stroke-width:1.37500012;stroke-linecap:butt;stroke-linejoin:miter;stroke-miterlimit:4;stroke-dasharray:none;stroke-opacity:1" />
    </g>
  </g>
  <path
     id="rect5130"
     d="m 34.858401,96.558133 0,14.470247 -23.02623,0 0,-14.470247"
     style="fill:url(#linearGradient5139);fill-opacity:1;stroke:#000000;stroke-width:0.59657818;stroke-linecap:round;stroke-miterlimit:4;stroke-dasharray:none;stroke-opacity:1" />
  <path
     id="rect5130-5"
     d="m 57.904901,96.544203 0,14.470257 -23.02623,0 0,-14.470257"
     style="fill:url(#linearGradient5139-7);fill-opacity:1;stroke:#000000;stroke-width:0.59657818;stroke-linecap:round;stroke-miterlimit:4;stroke-dasharray:none;stroke-opacity:1" />
  <path
     style="fill:url(#linearGradient5243);fill-opacity:1;stroke:#000000;stroke-width:0.59657818;stroke-linecap:round;stroke-miterlimit:4;stroke-dasharray:none;stroke-opacity:1"
     d="m 80.850051,96.544203 0,14.470257 -23.02623,0 0,-14.470257"
     id="path5241" />
  <path
     id="path5245"
     d="m 34.911981,110.98929 0,20.10007"
     style="fill:none;fill-rule:evenodd;stroke:#000000;stroke-width:0.5889647;stroke-linecap:butt;stroke-linejoin:miter;stroke-miterlimit:4;stroke-dasharray:none;stroke-opacity:1" />
  <path
     style="fill:none;fill-rule:evenodd;stroke:#000000;stroke-width:0.5889647;stroke-linecap:butt;stroke-linejoin:miter;stroke-miterlimit:4;stroke-dasharray:none;stroke-opacity:1"
     d="m 57.911951,110.98929 0,20.10007"
     id="path5247" />
  <text
     id="text5126"
     y="104.97684"
     x="12.742655"
     style="font-style:normal;font-weight:normal;font-size:25.24035072px;line-height:125%;font-family:sans-serif;letter-spacing:0px;word-spacing:0px;fill:#000000;fill-opacity:1;stroke:none;stroke-width:1px;stroke-linecap:butt;stroke-linejoin:miter;stroke-opacity:1"
     xml:space="preserve"><tspan
       style="font-size:7.0988493px"
       y="104.97684"
       x="12.742655"
       id="tspan5128">17 pm</tspan></text>
  <text
     xml:space="preserve"
     style="font-style:normal;font-weight:normal;font-size:25.24035072px;line-height:125%;font-family:sans-serif;letter-spacing:0px;word-spacing:0px;fill:#000000;fill-opacity:1;stroke:none;stroke-width:1px;stroke-linecap:butt;stroke-linejoin:miter;stroke-opacity:1"
     x="35.466713"
     y="104.97684"
     id="text5275"><tspan
       id="tspan5277"
       x="35.466713"
       y="104.97684"
       style="font-size:7.0988493px">20 pm</tspan></text>
  <text
     id="text5279"
     y="104.97684"
     x="58.289787"
     style="font-style:normal;font-weight:normal;font-size:25.24035072px;line-height:125%;font-family:sans-serif;letter-spacing:0px;word-spacing:0px;fill:#000000;fill-opacity:1;stroke:none;stroke-width:1px;stroke-linecap:butt;stroke-linejoin:miter;stroke-opacity:1"
     xml:space="preserve"><tspan
       style="font-size:7.0988493px"
       y="104.97684"
       x="58.289787"
       id="tspan5281">23 pm</tspan></text>
</svg>
