<?xml version="1.0" encoding="UTF-8" standalone="no"?>
<!-- Created with Inkscape (http://www.inkscape.org/) -->

<svg
   xmlns:dc="http://purl.org/dc/elements/1.1/"
   xmlns:cc="http://creativecommons.org/ns#"
   xmlns:rdf="http://www.w3.org/1999/02/22-rdf-syntax-ns#"
   xmlns:svg="http://www.w3.org/2000/svg"
   xmlns="http://www.w3.org/2000/svg"
   xmlns:sodipodi="http://sodipodi.sourceforge.net/DTD/sodipodi-0.dtd"
   xmlns:inkscape="http://www.inkscape.org/namespaces/inkscape"
   width="210mm"
   height="297mm"
   viewBox="0 0 744.09448819 1052.3622047"
   id="svg2"
   version="1.1"
   inkscape:version="0.91 r13725"
   sodipodi:docname="square.svg">
  <defs
     id="defs4" />
  <sodipodi:namedview
     id="base"
     pagecolor="#ffffff"
     bordercolor="#666666"
     borderopacity="1.0"
     inkscape:pageopacity="0"
     inkscape:pageshadow="2"
     inkscape:zoom="1.4"
     inkscape:cx="259.93864"
     inkscape:cy="669.11149"
     inkscape:document-units="px"
     inkscape:current-layer="layer1"
     showgrid="false"
     inkscape:window-width="1920"
     inkscape:window-height="1011"
     inkscape:window-x="0"
     inkscape:window-y="0"
     inkscape:window-maximized="1" />
  <metadata
     id="metadata7">
    <rdf:RDF>
      <cc:Work
         rdf:about="">
        <dc:format>image/svg+xml</dc:format>
        <dc:type
           rdf:resource="http://purl.org/dc/dcmitype/StillImage" />
        <dc:title></dc:title>
      </cc:Work>
    </rdf:RDF>
  </metadata>
  <g
     inkscape:label="Layer 1"
     inkscape:groupmode="layer"
     id="layer1"
     style="display:inline">
    <path
       style="fill:#ffffff;fill-opacity:1;stroke:none;stroke-width:4.9000001;stroke-miterlimit:4;stroke-dasharray:none;stroke-opacity:1"
       d="m 140.39844,167.36133 c -12.09172,0 -21.82617,9.73445 -21.82617,21.82617 l 0,424.20508 c 0,12.09171 9.73445,21.82617 21.82617,21.82617 l 489.91797,0 c 12.09171,0 21.82617,-9.73446 21.82617,-21.82617 l 0,-424.20508 c 0,-12.09172 -9.73446,-21.82617 -21.82617,-21.82617 l -489.91797,0 z m 182.44922,143.52344 110.01757,0 c 12.09172,0 21.82618,9.73445 21.82618,21.82617 l 0,110.73047 c 0,12.09171 -9.73446,21.82617 -21.82618,21.82617 l -110.01757,0 c -12.09172,0 -21.82618,-9.73446 -21.82618,-21.82617 l 0,-110.73047 c 0,-12.09172 9.73446,-21.82617 21.82618,-21.82617 z"
       id="rect4157"
       inkscape:connector-curvature="0" />
  </g>
  <g
     inkscape:groupmode="layer"
     id="layer2"
     inkscape:label="Layer 2"
     style="display:inline">
    <rect
       style="display:inline;fill:#000000;fill-opacity:0;fill-rule:evenodd;stroke:#000000;stroke-width:4.94453764;stroke-linecap:butt;stroke-linejoin:miter;stroke-miterlimit:4;stroke-dasharray:none;stroke-opacity:1"
       id="rect3347"
       width="153.66978"
       height="154.38403"
       x="299.59372"
       y="312.67023"
       ry="21.826206" />
  </g>
</svg>
