<?xml version="1.0" encoding="UTF-8" standalone="no"?>
<svg
   xmlns:dc="http://purl.org/dc/elements/1.1/"
   xmlns:cc="http://creativecommons.org/ns#"
   xmlns:rdf="http://www.w3.org/1999/02/22-rdf-syntax-ns#"
   xmlns:svg="http://www.w3.org/2000/svg"
   xmlns="http://www.w3.org/2000/svg"
   version="1.1"
   id="svg2"
   viewBox="0 0 533.57033 467.85743"
   height="132.03976mm"
   width="150.5854mm">
  <defs
     id="defs4" />
  <metadata
     id="metadata7">
    <rdf:RDF>
      <cc:Work
         rdf:about="">
        <dc:format>image/svg+xml</dc:format>
        <dc:type
           rdf:resource="http://purl.org/dc/dcmitype/StillImage" />
        <dc:title></dc:title>
      </cc:Work>
    </rdf:RDF>
  </metadata>
  <g
     transform="translate(-118.57227,-167.36133)"
     style="display:inline"
     id="layer1">
    <path
       id="rect4157"
       d="m 140.39844,167.36133 c -12.09172,0 -21.82617,9.73445 -21.82617,21.82617 l 0,424.20508 c 0,12.09171 9.73445,21.82617 21.82617,21.82617 l 489.91797,0 c 12.09171,0 21.82617,-9.73446 21.82617,-21.82617 l 0,-424.20508 c 0,-12.09172 -9.73446,-21.82617 -21.82617,-21.82617 l -489.91797,0 z m 182.44922,143.52344 110.01757,0 c 12.09172,0 21.82618,9.73445 21.82618,21.82617 l 0,110.73047 c 0,12.09171 -9.73446,21.82617 -21.82618,21.82617 l -110.01757,0 c -12.09172,0 -21.82618,-9.73446 -21.82618,-21.82617 l 0,-110.73047 c 0,-12.09172 9.73446,-21.82617 21.82618,-21.82617 z"
       style="fill:#ffffff;fill-opacity:1;stroke:none;stroke-width:4.9000001;stroke-miterlimit:4;stroke-dasharray:none;stroke-opacity:1" />
  </g>
  <g
     transform="translate(-118.57227,-167.36133)"
     style="display:inline"
     id="layer2">
    <rect
       ry="21.826206"
       y="312.67023"
       x="299.59372"
       height="154.38403"
       width="153.66978"
       id="rect3347"
       style="display:inline;fill:#000000;fill-opacity:0;fill-rule:evenodd;stroke:#000000;stroke-width:4.94453764;stroke-linecap:butt;stroke-linejoin:miter;stroke-miterlimit:4;stroke-dasharray:none;stroke-opacity:1" />
  </g>
</svg>
