<?xml version="1.0" encoding="UTF-8" standalone="no"?>
<svg
   xmlns:dc="http://purl.org/dc/elements/1.1/"
   xmlns:cc="http://creativecommons.org/ns#"
   xmlns:rdf="http://www.w3.org/1999/02/22-rdf-syntax-ns#"
   xmlns:svg="http://www.w3.org/2000/svg"
   xmlns="http://www.w3.org/2000/svg"
   version="1.1"
   id="svg2"
   viewBox="0 0 458.29134 460.41561"
   height="129.93951mm"
   width="129.34mm">
  <defs
     id="defs4" />
  <metadata
     id="metadata7">
    <rdf:RDF>
      <cc:Work
         rdf:about="">
        <dc:format>image/svg+xml</dc:format>
        <dc:type
           rdf:resource="http://purl.org/dc/dcmitype/StillImage" />
        <dc:title></dc:title>
      </cc:Work>
    </rdf:RDF>
  </metadata>
  <g
     transform="translate(0,-591.94656)"
     style="display:inline"
     id="layer1">
    <path
       id="rect4157"
       d="m 322.84766,310.88477 h 110.01757 c 12.09172,0 21.82618,9.73445 21.82618,21.82617 v 110.73047 c 0,12.09171 -9.73446,21.82617 -21.82618,21.82617 H 322.84766 c -12.09172,0 -21.82618,-9.73446 -21.82618,-21.82617 V 332.71094 c 0,-12.09172 9.73446,-21.82617 21.82618,-21.82617 z"
       style="fill:#ffffff;fill-opacity:1;stroke:none;stroke-width:4.9000001;stroke-miterlimit:4;stroke-dasharray:none;stroke-opacity:1" />
  </g>
  <g
     transform="translate(0,-591.94656)"
     style="display:inline"
     id="layer2">
    <path
       id="rect3347-6"
       d="M 0.00548724,591.95098 V 1052.3661 H 458.291 V 591.95098 Z M 173.42651,745.67351 H 283.4436 c 12.09171,0 21.82617,9.73446 21.82617,21.82618 v 110.7312 c 0,12.09172 -9.73446,21.82617 -21.82617,21.82617 H 173.42651 c -12.09172,0 -21.82617,-9.73445 -21.82617,-21.82617 v -110.7312 c 0,-12.09172 9.73445,-21.82618 21.82617,-21.82618 z"
       style="display:inline;fill:#ffffff;fill-opacity:1;fill-rule:evenodd;stroke:none;stroke-width:14.74597263;stroke-linecap:butt;stroke-linejoin:miter;stroke-miterlimit:4;stroke-dasharray:none;stroke-opacity:1" />
    <rect
       ry="21.826206"
       y="745.67285"
       x="151.60056"
       height="154.38403"
       width="153.66978"
       id="rect3347"
       style="display:inline;fill:#000000;fill-opacity:0;fill-rule:evenodd;stroke:#000000;stroke-width:4.94453764;stroke-linecap:butt;stroke-linejoin:miter;stroke-miterlimit:4;stroke-dasharray:none;stroke-opacity:1" />
  </g>
</svg>
