<?xml version="1.0" encoding="UTF-8" standalone="no"?>
<!-- Created with Inkscape (http://www.inkscape.org/) -->

<svg
   xmlns:dc="http://purl.org/dc/elements/1.1/"
   xmlns:cc="http://creativecommons.org/ns#"
   xmlns:rdf="http://www.w3.org/1999/02/22-rdf-syntax-ns#"
   xmlns:svg="http://www.w3.org/2000/svg"
   xmlns="http://www.w3.org/2000/svg"
   xmlns:sodipodi="http://sodipodi.sourceforge.net/DTD/sodipodi-0.dtd"
   xmlns:inkscape="http://www.inkscape.org/namespaces/inkscape"
   width="155.10001"
   height="156"
   viewBox="0 0 41.03688 41.274998"
   version="1.1"
   id="svg8"
   inkscape:version="0.92.3 (2405546, 2018-03-11)"
   sodipodi:docname="WackDonalds.svg">
  <defs
     id="defs2" />
  <sodipodi:namedview
     id="base"
     pagecolor="#ffffff"
     bordercolor="#666666"
     borderopacity="1.0"
     inkscape:pageopacity="0.0"
     inkscape:pageshadow="2"
     inkscape:zoom="2.8284271"
     inkscape:cx="38.289803"
     inkscape:cy="86.875856"
     inkscape:document-units="mm"
     inkscape:current-layer="layer1"
     showgrid="false"
     inkscape:window-width="1366"
     inkscape:window-height="705"
     inkscape:window-x="-8"
     inkscape:window-y="-8"
     inkscape:window-maximized="1"
     units="px" />
  <metadata
     id="metadata5">
    <rdf:RDF>
      <cc:Work
         rdf:about="">
        <dc:format>image/svg+xml</dc:format>
        <dc:type
           rdf:resource="http://purl.org/dc/dcmitype/StillImage" />
        <dc:title></dc:title>
      </cc:Work>
    </rdf:RDF>
  </metadata>
  <g
     inkscape:label="Layer 1"
     inkscape:groupmode="layer"
     id="layer1"
     transform="translate(0,-255.72502)">
    <g
       id="g1406"
       transform="translate(0,-0.17777467)">
      <text
         id="text828"
         y="291.15149"
         x="3.1027737"
         style="font-style:normal;font-variant:normal;font-weight:normal;font-stretch:normal;font-size:0.78458613px;line-height:80.00000119%;font-family:'Adobe Fan Heiti Std';-inkscape-font-specification:'Adobe Fan Heiti Std';letter-spacing:0px;word-spacing:0px;fill:#000000;fill-opacity:1;stroke:none;stroke-width:0.05884396px;stroke-linecap:butt;stroke-linejoin:miter;stroke-opacity:1"
         xml:space="preserve"><tspan
           style="font-size:5.6490202px;stroke-width:0.05884396px"
           y="291.15149"
           x="3.1027737"
           id="tspan826"
           sodipodi:role="line">WackDonalds</tspan></text>
      <path
         inkscape:connector-curvature="0"
         id="use834"
         d="m 34.457455,262.1279 a 1.0526245,1.0526245 0 0 0 -1.049027,1.05554 c -0.04569,3.9923 -0.825883,9.1077 -2.013782,13.1452 -0.593953,2.01875 -1.296303,3.77315 -2.00553,4.94976 -0.709232,1.1766 -1.374159,1.59862 -1.645867,1.60416 -0.689159,0.0141 -2.243311,-0.92134 -3.533674,-2.65189 -1.290369,-1.73055 -2.361145,-4.11234 -2.646242,-6.4362 a 1.0526245,1.0526245 0 0 0 -2.089368,0 c -0.285103,2.32386 -1.355876,4.70565 -2.646241,6.4362 -1.290364,1.73055 -2.844516,2.66593 -3.533677,2.65189 -0.271708,-0.005 -0.936636,-0.42756 -1.645865,-1.60416 -0.709229,-1.17661 -1.411582,-2.93101 -2.0055312,-4.94976 -1.1878991,-4.0375 -1.9685357,-9.1529 -2.0142182,-13.1452 a 1.0526245,1.0526245 0 1 0 -2.1045694,0.0239 c 0.048529,4.24121 0.8472201,9.4597 2.0993569,13.71554 0.6260684,2.12792 1.358916,4.01002 2.2222862,5.44234 0.8633697,1.43232 1.9079797,2.59141 3.4055367,2.62191 2.004496,0.0408 3.761313,-1.48243 5.264247,-3.49805 0.77536,-1.03986 1.464388,-2.25272 2.003358,-3.56018 0.538962,1.30742 1.228022,2.52035 2.003361,3.56018 1.502929,2.01562 3.259313,3.53889 5.263812,3.49805 1.497551,-0.0305 2.542601,-1.18959 3.405971,-2.62191 0.86337,-1.43232 1.596214,-3.31442 2.222283,-5.44234 1.252138,-4.25584 2.050824,-9.47433 2.099359,-13.71554 a 1.0526245,1.0526245 0 0 0 -1.055979,-1.07943 z"
         style="color:#000000;font-style:normal;font-variant:normal;font-weight:normal;font-stretch:normal;font-size:medium;line-height:normal;font-family:sans-serif;font-variant-ligatures:normal;font-variant-position:normal;font-variant-caps:normal;font-variant-numeric:normal;font-variant-alternates:normal;font-feature-settings:normal;text-indent:0;text-align:start;text-decoration:none;text-decoration-line:none;text-decoration-style:solid;text-decoration-color:#000000;letter-spacing:normal;word-spacing:normal;text-transform:none;writing-mode:lr-tb;direction:ltr;text-orientation:mixed;dominant-baseline:auto;baseline-shift:baseline;text-anchor:start;white-space:normal;shape-padding:0;clip-rule:nonzero;display:inline;overflow:visible;visibility:visible;opacity:1;isolation:auto;mix-blend-mode:normal;color-interpolation:sRGB;color-interpolation-filters:linearRGB;solid-color:#000000;solid-opacity:1;vector-effect:none;fill:#e9ff00;fill-opacity:1;fill-rule:evenodd;stroke:#ff3500;stroke-width:0.50374138;stroke-linecap:round;stroke-linejoin:round;stroke-miterlimit:4;stroke-dasharray:none;stroke-dashoffset:0;stroke-opacity:1;color-rendering:auto;image-rendering:auto;shape-rendering:auto;text-rendering:auto;enable-background:accumulate" />
    </g>
  </g>
</svg>
